<?xml version="1.0" encoding="utf-8"?>
<!-- Generator: Adobe Illustrator 12.0.0, SVG Export Plug-In . SVG Version: 6.00 Build 51448)  -->
<!DOCTYPE svg PUBLIC "-//W3C//DTD SVG 1.1//EN" "http://www.w3.org/Graphics/SVG/1.1/DTD/svg11.dtd" [
	<!ENTITY ns_svg "http://www.w3.org/2000/svg">
	<!ENTITY ns_xlink "http://www.w3.org/1999/xlink">
]>
<svg  version="1.1" id="Layer_1" xmlns="&ns_svg;" xmlns:xlink="&ns_xlink;" width="625.456" height="405.27"
	 viewBox="0 0 625.456 405.27" overflow="visible" enable-background="new 0 0 625.456 405.27" xml:space="preserve">
<path fill-rule="evenodd" clip-rule="evenodd" fill="#FFFFFF" d="M556.635,405.27c-0.09-1.6-0.371-1.686,0-3.139
	c-3.387-2.436-4.683-6.551-2.44-10.813c-1.252,0.205-1.688-0.404-2.441-0.697c-0.874-3.973,1.392-5.748,1.395-8.371
	c-1.433,0.947-3.152,1.234-4.533,1.396c-2.105-3.764,0.701-7.887,1.046-12.207c-2.024-7.582-4.783-15.699-11.161-20.578
	c-1.773,5.42-3.363,12.143-10.463,11.16c0.16-2.35-1.247-3.445-2.441-3.486c-1.158-5.16-4.096-9.709-2.441-15.695
	c-1.163,0.035-2.824-0.371-3.837-1.395c0.051-3.322,1.13-5.613,1.396-8.719c-1.6-0.801-3.17,0.234-4.534,0.697
	c-4.162-3.928-7.225-11.648-13.95-10.813c-0.281-1.113-1.794-0.996-2.441-1.744c-3.021,0.314-6.426-3.248-9.417-0.697
	c0.37,1.789,0.695,1.699,0.697,3.488c5.495,4.254,4.318,14.654,2.79,22.67c-1.693,0.516-1.661,2.756-3.837,2.789
	c-3.751-2.061-7.391-4.232-8.021-9.416c-1.066-0.252-1.271,0.357-2.094,0.35c-5.321-3.021-1.803-11.084-5.23-15.346
	c-2.225,0.855-2.985,1.299-5.232,1.742c-2.582-2.764-3.375-7.32-4.185-11.857c2.184-6.941-2.763-12.504-8.371-13.951
	c-0.995,0.756,0.712,3.42-0.697,1.744c0.438,1.063,0.267,1.355-0.349,2.094c-3.879-2.193-5.807-3.449-9.068-3.488
	c-0.104,0.709-0.698,0.93-1.046,1.395c-1.865,0.121-1.604-1.883-3.14-2.092c-0.222,0.76,0.989,1.109-0.348,1.045
	c-1.468-0.242,0.333-1.588-1.047-1.744c-7.848-1.092-14.604,1.896-16.043,8.371c2.285,4.762,7.718,9.717,14.299,6.977
	c0.694-1.998,0.867-2.371,2.442-3.488c4.982,1.494,4.02,6.629,3.487,9.416c-0.412,2.158,0.179,5.018,0,7.324
	c-0.147,1.887-1.354,4.162-1.046,5.58c1.022,4.715,10.764,5.861,13.95,9.418c0.964,1.074,1.609,4.328,2.441,2.441
	c0.253,0.793,0.311,1.781,0.697,2.441c-0.686,0.104-0.691-0.473-1.046-0.697c0.585,1.205-0.285,2.311,0,4.186
	c5.307,3.18,9.321,7.65,12.556,12.904c0.001-0.35-0.283-0.416-0.349-0.699c1.328,0.104,1.885,3.184,0.349,1.396
	c1.467,2.602,4.715,3.422,4.186,8.021c-3.806-2.82-5.797-4.469-12.207-4.535c0.574,0.938,1.683,1.34,2.093,2.441
	c-0.746,1.582-0.509,5.908-0.698,9.068c2.716,3.563,6.169,6.387,8.021,10.813c0.762,0.223,1.11-0.988,1.047,0.348
	c0.254,1.529-0.693-0.281-0.697,0.697c0.63,1.877,1.686,4.004,3.139,3.141c0.276,1.609-0.388,0.996-0.697,1.395
	c1.107,1.932,2.35,4.232,5.23,5.232c-0.083-0.5-0.574-0.59-0.696-1.047c1.668,0.307,2.469,1.482,3.139,2.789
	c-0.144,0.596-0.45-0.072-1.047,0c0.107,0.822,1.212,0.65,1.047,1.744c-7.093,0-14.185,0-21.275,0
	c-1.201-1.031-0.015-4.053-2.093-4.883c1.832-0.566-0.464-1.459-0.349-2.092c0.399-2.195-1.504-2.715-3.837-5.93
	c-0.919-1.268-1.226-3.242-2.092-4.533c-2.398-3.578-6.024-7.082-8.022-10.463c-2.619-4.438-3.199-9.316-9.765-8.721
	c-1.553-2.117-3.385-2.641-4.186-4.533c-2.217-5.236,2.378-10.705,1.046-15.346c-1.226-4.271-6.367-9.451-9.067-13.604
	c-0.794-1.221-0.912-2.727-1.744-3.836c-0.813-1.08-2.252-1.629-3.139-2.789c-2.661-3.479-4.473-7.391-6.976-10.813
	c-2.941-4.021-6.973-7.088-10.114-10.813c-2.112-2.504-4.171-4.08-6.278-6.277c-2.879-3-5.113-6.395-8.37-8.021
	c-0.607,0.908-1.64,2.918-1.744,1.395c-0.763,4.352-2.577,7.654-8.719,6.627c-2.354-1.018-3.513-3.23-5.58-4.533
	c0.083,0.496,0.574,0.588,0.697,1.047c-0.986,0.48-3.224,0.623-2.79,0.348c-1.344,0.85-1.208,3.086-3.139,3.139
	c-4.185,0.117-4.071-6.863-4.883-11.16c-0.712-3.758-2.587-6.664-3.837-8.371c0.843,1.828-1.476,0.152-2.093,1.744
	c-0.138-0.6,0.518-0.895,0-1.045c-2.068,1.998-3.968,4.17-8.021,4.184c-3.567-5.385,3.501-16.447-1.743-17.787
	c0.27,0.078,0.688,0.01,0.696,0.35c-1.349-1.826-7.108,1.73-6.277-0.35c-4.538,0.971-5.935-4.004-9.766-4.882
	c-0.715,1.335-2.457,2.173-3.836,2.441c0.177-0.033,0.833,0.301,0.697,0.35c-2.934,1.037-4.895,0.082-6.277,2.441
	c-1.528,0.254,0.28-0.693-0.698-0.697c-0.292,1.621-3.916,0.791-4.534,1.045c0.161,0.395,0.042,1.682,1.744,1.396
	c-1.015,2.141,2.539,1.889,1.743,4.883c-0.891,1.201-2.104,2.08-3.139,3.139c2.022-0.334-0.807,0.813-0.697,1.744
	c0.357,2.604,5.124,5.404,2.79,7.324c2.576,4.848-0.638,9.121,1.046,13.252c-2.042-0.369-1.478,3.574-3.836,4.186
	c-0.992,0.258-1.851-0.215-3.836-0.697c2.271-4.32-0.998-7.527-4.534-6.975c-2.052,0.32-4.876,3.9-5.58,6.277
	c-0.694,2.336,0.27,5.367,0.349,8.719c0.075,3.23-0.728,5.549,0.349,8.371c4.162,3.859,7.761,8.283,11.509,12.555
	c0.393-1.885,1.705,0.359,2.791,0c0.431,1.129-1.129,0.268-0.698,1.396c2.387-0.223,3.48,1.313,4.883,2.439
	c2.438,1.961,6.916,4.861,6.976,6.627c0.088,2.637-2.608,2.479-3.837,4.883c0.855,0.412,2.446,1.447,1.047,2.094
	c5.27,0.521,13.618-3.9,12.904,3.836c0.917,0.906,0.274-0.564,1.396-0.35c0.846,0.695-0.589,1.49,0.697,1.744
	c4.972-1.008,6.508,4.625,6.277,7.674c-0.284,3.777-4.236,7.857-9.416,7.672c-1.436-0.051-2.57-0.904-3.837-1.045
	c-3.215-0.359-8.581,0.691-10.114,1.744c0.992,0.932,0.19,2.297,0.349,4.533c0.326-0.213,1.286-0.813,1.047,0.348
	c-0.039,1.236-1.153-0.74-1.047,0.35c0.065,2.246,0.251,1.627,1.396,1.744c-0.542,0.092-0.242,0.766,0,1.047
	c-0.6,0.137-0.894-0.518-1.047,0c-1.68,7.973,3.195,12.311,3.488,20.229c-1.107,1.766-4.568,0.941-3.488,3.139
	c-0.686,0.104-0.691-0.471-1.046-0.697c0.228,1.506-0.603,1.955-1.047,2.789c-4.534,0-9.068,0-13.602,0
	c-1.348-4.113,2.067-9.18-3.836-9.766c-0.954-2.156-1.636-5.723,0-7.672c2.403-1.316,6.301-1.139,7.323-3.838
	c-0.917,0.104-0.273-1.354-1.395-1.045c-0.727,0.102,0.518,0.943-0.697,1.045c-2.129-1.832-3.717-5.242-6.976-4.883
	c0.822-0.094-0.032-1.299-0.349-1.395c-1.579,1.678-3.829,0.453-5.231,0.697c0.095,0.719,1.544,0.084,1.395,1.047
	c-1.101,0.17-1.231-0.629-2.441-0.35c-0.505-1.318,0.959-0.668,0.697-1.742c-1.209-0.281-1.34,0.52-2.44,0.348
	c-0.198-1.725,0.488-2.105-1.047-3.486c-0.614,0.867-0.576,0.508-1.396,0c-0.542-1.24,1.185-0.211,1.047-1.047
	c-5.06-5.117-5.844-14.898-16.741-14.998c-3.754,5.451-4.015,9.414-4.186,17.787c0.659,0.262,0.242,1.041,1.047,0.35
	c-0.836,1.266-0.556,3.363,0.697,2.789c-0.904,1.664,1.049,1.971,0,3.488c2.09,0.07,1.063,1.332,2.093,2.094
	c0.985-0.176-0.13-0.369,1.046-0.699c4.904,0.523,9.306-0.973,11.858,0.699c1.036-0.037,1.413-0.795,2.093-0.35
	c-0.503-0.063,1.12,0.975,2.441,1.047c-0.419,0.959-0.376,1.846,0.697,1.045c-2.647,3.109-8.624,5.561-12.556,4.883
	c0.098,0.795-0.084,1.313-0.697,1.396c-0.951-0.945,0.902-0.869,0.697-2.094c-2.067-0.879-2.845,0.502-3.836,0.697
	c0.002,0.928,0.97,0.891,1.395,1.396c-1.72-0.328-1.722-0.326-1.395,1.395c-5.292,0.186-1.526,7.482,2.093,8.371
	c0.267,0.781-1.611,1.111-0.349,1.744c1.439,0.168-0.468-1.072,1.395-0.699c0.454,1.377-1.279,0.844-0.349,1.744
	c-27.785,0-55.57,0-83.356,0c1.793-3.83,4.136-8.826,4.534-12.904c-5.533-0.482-8.156,3.631-13.253,2.441
	c-0.752,1.34-2.239,1.947-3.836,2.441c-0.038,1.408,1.167,3.594-0.698,3.836c1.629,1.652-0.077,2.574,1.047,4.186
	c-13.486,0-26.972,0-40.458,0c0.253-9.375-0.173-15.074-2.79-22.67c-3.583-1.334-7.303-1.871-9.765,0.35
	c2.161,2.219,5.945,7.232,0,8.719c1.712,2.938,4.242,5.059,6.975,6.975c-1.886,2.385,2.837,3.443,1.047,6.627
	c-21.74,0-43.48,0-65.22,0c0.898-11.945-0.52-17.945-4.185-27.203c-2.559,0.252-4.821-1.564-6.626,0
	c-0.129,1.662-0.117,1.908-0.698,3.488c0.48,0.014,0.766-0.166,1.046-0.35c-2.202,2.604-0.106,7.041-1.395,10.463
	c0.48-0.016,0.766,0.164,1.047,0.348c-2.482,2.799-1.551,8.904-1.744,13.254c-20.81,0-41.62,0-62.43,0C0,339.586,0,273.9,0,208.215
	c1.515,0.12,1.946-0.844,3.139-1.046c-2.221-5.543,0.302-11.811-2.791-16.044c-0.116,0-0.232,0-0.349,0c0-41.619,0-83.239,0-124.859
	c0.409,0.056,0.294,0.636,0.349,1.046c1.236,0.245,2.184-2.919,1.046-2.79c2.114-1.223,1.164-4.14,3.488-5.581
	c-0.982-3.099,2.049-6.616-0.349-8.719c0.056-0.409,0.636-0.294,1.046-0.349c-0.261-0.907-1.984-1.401-1.046-2.441
	c0.409,0.056,0.294,0.636,0.349,1.046c0.763-0.051,0.749-0.879,0.697-1.744c5.572-0.706,8.368-4.188,10.463-8.371
	c7.056-0.204,9.398-6.807,15.346-6.976c4.677-6.815,15.582-10.633,24.763-9.765c1.626-0.163-0.01-1.564,2.092-1.395
	c2.353,1.224,11.758-1.947,14.998-5.232c0.072,3.205,3.974,2.494,6.975,0c0.257-0.474,0.277-2.934,1.046-1.744
	c0.671-3.549-1.289-6.61,0.698-9.766C84.078,0.125,88.95,0.883,92.075,0c-0.097,4.127,0.008,7.946,2.79,11.509
	c2.725,3.49,8.476,8.433,12.556,8.371c2.069-0.032,3.996-1.957,6.278-0.698c0.425-3.104,5.423-3.187,9.766-2.79
	c0.192-0.773-0.666-0.496-0.697-1.046c0.985-0.289,0.903,0.491,1.743,0.349c0.559-2.737,6.352-1.964,5.93-4.534
	c2.896-0.113,6.687-2.243,10.463-2.79c1.948-0.283,4.524,1.018,5.58-1.046c1.112,1.126,4.465,1.56,5.231,0.349
	c4.237,3.179,8.287,3.485,12.904,5.581c0.952,0.315-1.061,0.78,0,1.395c3.492,2.438,8.306,5.153,10.813,8.371
	c5.731,2.757,15.441,1.542,21.274,2.441c1.326-0.417,2.141-1.347,3.488-1.744c1.278,0.465,2.663,0.825,4.185,1.046
	c0.253,1.681,2.135,2.791,1.047,3.836c2.726,1.413,5.312,0.853,7.324,1.395c0.291,0.079,2.623,1.174,2.79,1.395
	c0.546,0.724,1.342,0.217,3.139,0.698c0.489,0.13,0.157,0.904,0.697,1.046c0.755,0.198,1.875-0.223,2.441,1.395
	c2.12,0.196,5.539-0.05,6.976,1.744c-0.012-0.014,0.406,1.078,0.349,1.046c0.937,0.508,3.049,0.375,3.837,0.698
	c0.468,0.191,0.156,0.919,0.697,1.046c0.81,0.19,1.667-0.288,2.441,0c1.477,0.548,2.905,2.761,4.534,1.744
	c1.334,3.202,2.819,3.589,4.534,7.324c3.246-0.074,6.793,0.175,11.857,0c1.5,0.165,0.446-0.939,1.047-1.046
	c1.437-0.274,1.79,0.535,3.139,0.349c3.322,12.026,14.227,16.602,24.065,23.019c3.217-0.431,6.069,1.232,8.719-1.046
	c7.347-0.983,15.501,0.953,21.275-1.395c3.775,1.803,5.396-0.291,9.766,0.697c0.65-1.732,4.216-0.528,4.882-1.744
	c1.236,1.206,3.814,1.069,4.883,2.441c1.24,0.542,0.211-1.185,1.047-1.046c1.128,0.151,1.384,1.173,2.093,1.744
	c5.057-0.955,6.665,1.378,12.207,1.744c0.114,0.815,0.419,1.441,0.697,2.093c-0.405-0.057-0.621,0.077-0.697,0.349
	c-3.621-0.866-10.889-2.052-17.787-1.046c-1.599,1.961-1.705,3.438-1.396,6.976c1.182,0.644,2.605,1.828,4.186,1.046
	c-0.004,1.464,0.561,1.295,1.046,2.79c4.381,1.357,7.054,6.144,11.16,6.627c-0.397,0.939-0.205,1.677,0.698,1.046
	c1.166,3.063,2.451,5.312,1.047,9.068c-1.058,0.419-1.521,1.475-3.14,2.093c0.038,2.287-0.016,4.666,1.046,5.929
	c-0.367,1.145-2.385,0.638-2.79,1.744c-0.199,6.506,0.822,9.888,4.186,16.043c1.066-0.252,1.271,0.356,2.093,0.349
	c0.521,7.111-0.916,11.567-2.79,17.438c-1.146,0.108-2.856,0.807-3.837,0c-1.369-3.876-3.221-2.716-5.929-6.975
	c-2.846-0.324-3.849,0.654-6.627,1.046c-2.658,5.98-4.868,11.466-10.812,12.556c-3.093-0.862-3.627-4.936-5.93-5.58
	c-0.53,0.557-1.29,3.179-2.79,2.441c-0.919,2.473-4.185,7.9-1.395,12.207c5.493,1.248,9.803,3.683,12.207,8.021
	c5.861,1.138,8.617,3.944,16.043,4.883c0.031,0.951-0.581,0.702,0,1.395c1.263-1.081,6.194,2.426,8.022,4.186
	c3.943-1.906,10.862-1.928,12.556-7.673c3.966-1.498,7.13-3.798,9.416-6.976c-2.882-2.351-9.19-1.272-12.207-3.487
	c-4.927,2.074-11.625-1.097-18.484,0.349c-4.229-3.635-0.072-4.065,4.882-5.231c1.692-0.398,3.474-1.656,5.232-1.744
	c3.938-0.196,8.17,2.568,9.766,1.046c0.044,0.626-0.428,0.736-0.35,1.396c2.395-1.576-2.057-2.028-2.44-4.186
	c-2.565-0.224-4.54-1.04-6.278-2.092c2.253-6.7,11.549,0.512,15.694,1.046c1.753,0.227,3.225-0.387,4.884,0.697
	c-0.108-1.271,0.055-2.27,0.348-3.139c4.344-0.486,6.074,2.636,7.324,4.186c2.403-4.114-1.445-9.621,0-13.951
	c0.317-1.266,1.03-0.213,2.093-0.349c0.116-1.395-0.622-1.936-0.349-3.487c9.821-5.828,9.952,9.417,13.951,13.602
	c-1.283-3.819,1.636-4.468,1.395-7.673c2.634-0.901,4.996-3.742,8.371-1.395c2.295-1.218,4.718-1.341,5.58-4.534
	c6.632,0.459,12.435,1.749,15.346,5.929c0.332,1.761,0.068,2.667,1.396,3.836c2.388,0.151,2.449-1.306,4.534-0.697
	c1.284-0.006,1.541,1.017,2.092,1.744c2.515-0.59,3.113,0.113,4.534,2.093c0.869,1.21,1.001,2.644,1.396,3.139
	c0.33,0.416,1.489,0.477,1.046,2.093c3.961,2.29,11.924,4.796,14.299-0.697c3.018,2.87,6.143,9.093,7.674,13.95
	c1.526,0.061,3.945,2.044,5.58,3.14c9.066,0.171,12.579-12.024,21.275-6.976c3.573,2.074,6.124,8.192,12.904,4.883
	c2.401-2.829,5.081-5.382,8.72-6.976c3.776,3.018,5.654,3.813,8.021,9.068c0.464,4.02-3.728,7.267-3.14,10.812
	c0.293,1.764,2.053,2.217,2.093,4.534c5.072,3.879,14.772,3.131,16.393,10.463c1.196-1.758,3,2.612,1.395,3.139
	c1.672-0.233,0.75,4.418,3.139,3.487c-0.524,1.576,0.347,1.405,0.698,2.791c1.759-0.521,3.6,0.879,5.231,1.046
	c3.703,3.729-1.563,9.065,0,10.812c1.175,1.313,3.051,1.014,4.534,2.093c2.853,2.075,2.735,5.234,1.396,9.068
	c0.784,2.037,2.722,4.938,1.046,7.324c-0.988-0.059-1.454-0.64-2.441-0.697c1.075-1.088-0.956-1.574-1.396-3.14
	c-2.882,1.578-5.814-1.527-8.021-0.697c-1.548-2.686-3.633-4.273-4.883-5.93c-1.018-0.286-3.634-0.491-4.186,0.698
	c0.35,0,0.697,0,1.046,0c-1.375,0.601-2.481,1.471-3.487,2.441c-0.124,2.104-0.092,4.986,1.396,7.673
	c4.576,1.734,5.382,6.857,9.067,8.021c-1.003,0.464,2.004,3.547,2.791,2.093c0.073,0.897,0.364,2.544,1.743,1.046
	c-1.054,1.927,1.521,2.389,3.139,3.488c-0.284,2.412,0.561,2.837,1.396,4.534c-2.694,4.863,2.664,6.991,0.349,11.857
	c-1.741,1.135-3.396,0.76-4.883,0.699c0.01-1.973-3.322-1.35-1.743-3.837c-1.639-0.533-1.857-1.57-3.488-1.395
	c0.304-1.015,0.522-0.393,1.396-0.35c-2.754-2.509-5.833,0.601-8.022,1.744c-0.423,1.566,1.127,4.599,0,6.277
	c2.359-0.012,0.64,2.98,2.442,2.094c0.252,3.193,0.416,5.186,3.486,6.627c0.794,3.186,2.281,9.309,1.745,11.508
	c0.907,0.525,4.507-4.891,3.487-7.672c-0.71-1.938-3.06-2.105-2.79-4.186c0.594-0.129,0.657,0.273,0.697,0.697
	c0.266-0.971,1.505-2.018,0.349-2.441c6.361-2.053,10.486,4.4,8.021,10.813c0.612,1.365,1.734,2.219,2.441,3.488
	c-1.364,4.004,1.619,6.896,2.442,10.463c0.258,1.117-0.332,2.334,0,3.488c0.743,2.6,3.111,4.879,3.836,7.324
	c0.966,3.26,2.306,8.373-2.441,9.066c0.577-1.184-6.545-0.139-5.929,3.139c8.638,2.563,15.807,4.857,22.32,8.371
	c1.7,1.672,2.798,3.945,3.14,6.975c1.968,2.227,7.643,3.988,11.858,6.977c1.306,0.926,2.635,2.936,3.836,3.488
	c2.293,1.055,5.001,0.16,6.976,1.395c2.823,1.766,4.686,8.496,1.046,10.463c1.405,1.965,3.045,3.697,4.534,5.58
	c-0.915,0.873,0.071,2.871-1.046,2.791c2.435,0.34,4.863,3.117,5.58,6.277c5.101,0.289,8.789,8.098,11.16,9.068
	c0.816,1.219-0.385,2.412,0.698,3.486c3.851,0.822,8.956,5.361,8.021,11.859c-4.947-2.268-8.04-8.27-12.905-7.674
	c-2.01-1.359-3.211-3.531-5.929-4.186c-2.163,3.418-1.458,9.703-6.626,10.115c-1.121,4.873-7.175,2.068-8.022,6.277
	C580.12,405.27,568.377,405.27,556.635,405.27z M97.655,35.923c-1.244,1.491,0.045,3.192-1.395,3.836
	c2.182,2.595,6.696,2.746,10.463,1.744c0.231-2.542-1.385-3.11,0.349-4.534C104.861,33.913,100.804,35.745,97.655,35.923z
	 M178.918,42.201c-0.128,0.593,0.272,0.658,0.697,0.698c-0.254,1.286-1.049-0.149-1.743,0.697c0,1.046,0,2.093,0,3.139
	c1.411,0.798,3.469,0.948,3.139,3.488c1.737-0.338,2.545,0.061,3.837-1.047c-0.049-0.649-0.23-1.166-0.698-1.395
	c0.75-0.646,0.735-2.055,2.441-1.744c1.938-1.782,0.475-4.119-0.697-5.581C182.776,39.836,180.712,40.675,178.918,42.201z
	 M39.411,51.269c-1.416,0.259-1.253,3.498-2.093,5.231c0.405-0.057,0.621,0.077,0.698,0.349c0.54-0.793,0.726-0.658,1.744-0.349
	c1.225-2.146,3.021-3.721,4.534-5.58c-0.608-1.229,0.107-2.489,1.046-3.139c-0.363-0.799-1.604-0.722-1.395-2.092
	c-0.628,0.884-1.972,1.051-3.139,1.395c0.521,0.953-0.678,2.666-2.093,2.79C38.761,50.523,38.943,51.04,39.411,51.269z
	 M196.706,48.479c-1.021,0.438-2.085-0.229-3.836,0c-0.396,1.639-5.938,4.029-3.837,6.975c-0.079,0.502-1.041,0.122-1.046,0.698
	c1.476,2.291,6.838,3.708,9.416,1.744C196.062,56.041,198.379,52.062,196.706,48.479z M15.694,49.874
	c-0.991,0.172-0.501,1.823-2.092,1.395c0.053,1.109,0.791,1.534,0.698,2.79C16.096,53.296,15.843,51.866,15.694,49.874z
	 M134.974,51.269c-1.276-0.229-1.338,0.755-2.441,0.698c0.528,1.246-1.786,1.937-0.349,2.441c-2.475,5.936,6.222,5.887,5.58,1.046
	C137.503,53.487,135.689,53.42,134.974,51.269z M109.514,52.664c-2.352-0.25-5.389,1.196-4.883,3.488
	c-2.558,0.981-2.244,5.488-1.395,8.022c5.532,1.271,10.61-3.554,8.021-10.115C108.97,54.091,109.61,53.554,109.514,52.664z
	 M175.083,58.942c0.132,1.297,2.481,1.251,2.79,0C177.074,58.72,175.768,58.25,175.083,58.942z M143.344,63.825
	c-2.253-2.246-7.933-2.437-8.37,1.046c-0.267,2.117,1.523,3.87,3.487,3.836C140.917,68.666,142.721,64.987,143.344,63.825z
	 M106.723,72.544c-3.639-0.779-5.111-3.725-10.114-3.139c-1.475,1.315-2.896,2.684-4.883,3.488c0.948,1.53-0.444,1.869-0.697,3.139
	c0.281,0.185,0.566,0.364,1.046,0.349c0.062,1.225-1.178,1.147-1.395,2.093c-0.563,3.4-0.022,5.143-0.698,7.324
	c2.253,4.512-1.426,11.226-2.092,15.346c-0.335,2.07,0.197,4.118-0.349,5.929c-1.202,3.98-0.923,9.722-1.744,14.997
	c-1.301,8.362-3.183,15.55-3.836,24.414c-0.151,2.05,0.327,3.925,0,5.93c-0.721,4.418-1.375,8.794-1.744,13.602
	c-0.269,3.504-1.089,8.138-0.698,10.463c0.677,4.019,6.116,5.119,8.022,7.673c6.104,0.64,7.019-3.909,10.114-6.277
	c-0.086-0.379-0.693-0.236-0.697-0.697c1.62,0.552,4.249-1.735,3.139-3.488c1.658,1.15,3.06-2.625,4.534-2.441
	c1.873-2.768,5.501-6.512,8.719-9.067c0.254-0.952-0.693-0.702-0.698-1.396c0.052-0.778,0.879,0.452,1.744,0
	c-0.118-0.7,0.071-1.091,0.698-1.047c0.191-0.772-0.666-0.496-0.698-1.046c0.838-0.825,1.466-2.396,3.14-1.395
	c0.269-1.521,0.028-1.998,0.697-3.488c1.097-0.174,1.363,0.761,2.093,0c0.637-1.151-0.275-1.828,0.697-2.79
	c0.315-0.952,0.78,1.062,1.396,0c2.62-3.017-1.815-5.668-1.744-9.417c0.061-3.235,3.647-9.052-0.698-10.463
	c-3.311-1.075-4.294,1.874-7.324,2.79c-5.985-1.836-2.76-11.674-0.697-14.997c0.052-0.865,0.065-1.692-0.697-1.744
	c0.967-0.312,1.207-1.35,1.744-2.092c-0.393-1.003-0.07-2.72-0.697-3.488c2.187-3.477,4.511-10.41,1.743-15.346
	c-6.336-3.268-10.249,2.635-15.694,3.488c-0.947,0.249,0.25-1.646-0.698-1.396c3.12-4.603,4.037-8.959,5.929-14.648
	c0.385-1.157,1.012-2.938,1.395-3.487c0.647-0.926,2.456-1.302,2.791-3.14C108.159,74.935,106.896,75.041,106.723,72.544z
	 M89.982,72.195c-1.801,0.023-1.992,5.105-0.697,5.929C88.635,75.41,90.959,74.107,89.982,72.195z M161.131,73.242
	c0.824,0.792-0.436,1.043-1.046,1.395c-0.129,0.594,0.271,0.658,0.697,0.698c-0.044,0.77-1.479,0.147-2.093,0.349
	c0.413,2.99,0.59,5.8,2.79,7.673c2.092,0.231,3.404-0.316,5.231-0.349c1.332-3.92,0.489-7.092,0.698-9.417
	C165.02,74.336,163.886,73.018,161.131,73.242z M310.405,80.217c-0.234,2.442,3.005,1.413,3.139,3.487
	c4.498,0.55,5.477,5.106,9.417,5.231c1.029,0.304-0.81,0.522-0.349,1.396c1.795,0.879,3.304,2.044,5.58,2.441
	c1.514,3.832-0.269,6.896,1.046,10.463c4.013,1.335,5.676,5.021,8.72,7.324c0.945-0.333,2.404-0.153,2.093-1.744
	c0.296,0.75,1.284,0.809,2.441,0.697c2.238-2.665-1.272-6.641-0.698-8.719c-0.106-1.482-3.231-0.334-2.092-2.093
	c-3.149,0.359-2.114-3.466-4.534-3.836c0.241-0.689,0.93-0.931,1.743-1.047c-0.368-1.091-0.125-1.729-0.348-3.487
	c-3.241-1.491-4.19-3.406-7.674-4.883c0.268-1.314-0.426-1.667-0.349-2.79c-4.457-1.938-8.243-4.545-12.904-6.278
	c-1.274,0.899-4.091,1.844-3.488,3.488C311.744,80.161,311.213,80.329,310.405,80.217z M193.916,86.844
	c0.195,0.502,0.544,0.851,1.047,1.046c-0.94,0.803-1.919,1.569-2.442,2.79c1.092,4.511,7.267,5.092,10.464,2.093
	c-0.862-1.117,0.902-1.938,0.349-3.837c-2.227,0.085-1.688-3.317-4.534-3.487c-0.199-0.268,0.256-0.794,0.349-0.697
	C196.83,82.359,194.952,85.827,193.916,86.844z M19.88,100.097c-1.814,0.13-0.516-2.909-1.744-4.186
	c2.37-2.228,0.674-7.422-0.349-11.51c-0.559,0.604-1.055,1.27-2.441,1.047c-0.322,3.791-0.169,7.153-0.349,10.463
	c1.392,0.7,1.257,2.928,2.79,3.487c-2.583,1.638-0.404,4.987,1.744,5.232c0.675-0.372,0.486-1.607,1.046-2.093
	C19.733,101.769,19.213,100.956,19.88,100.097z M139.159,124.162c7.354-0.609,10.244-9.402,10.114-16.74
	c2.588-0.644,5.418-3.816,4.883-8.72c-3.599-2.874-18.49-11.653-21.274-3.487c-0.883,2.589,0.984,7.096,1.395,10.114
	c0.408,3.002-0.077,5.828,0.349,8.37C135.431,118.51,138.668,123.485,139.159,124.162z M186.243,107.072
	c-1.86-3.544-3.307-4.725-2.441-9.416c-1.236-0.154-2.211-0.763-2.441,0.697c-0.472-0.342-0.452-1.176-1.046-1.396
	c-8.436-1.581-10.756,9.065-2.441,11.161C180.335,108.74,184.488,109.105,186.243,107.072z M270.296,97.656
	c0.059-0.757-1.237-0.158-1.744-0.35c0.796,0.791-0.503,1.268-1.395,1.396c-0.534,4.836,2.57,6.032,5.23,7.673
	c-1.589,1.747,3.382,2.232,3.14,4.883c0.648-1.33,1.277-0.063,1.046,1.396c1.506,0.553,1.433,0.812,3.488,1.046
	c0.239-1.169-0.586-1.275-1.396-1.395c0.888-1.322,1.091-3.327,2.79-3.837c-0.292-0.405-0.46-0.935-0.349-1.744
	c-0.649,0.334-1.165-1.044-1.395,0C277.15,103.356,273.117,99.603,270.296,97.656z M212.75,117.186
	c-0.188-1.65,1.976-0.951,2.79-0.697c-0.227-0.354-0.802-0.36-0.697-1.046c3.716,0.524,5.992-1.711,6.277-5.581
	c-1.668,1.275-2.223-3.67-1.046-3.139c-0.292-1.619-1.715-0.291-2.441-1.046c0.227-0.354,0.802-0.36,0.697-1.046
	c-1.646-1.029-3.732-1.616-6.627-1.396c0.271,0.311,0.375,0.788,0.35,1.396c-1.039-0.463-1.771-0.358-2.442,0.349
	c0.819,1.63-0.453,8.075-2.79,7.673c-0.301,1.857,0.214,2.608-0.697,3.487c1.109,1.139,3.527-0.079,5.231,1.396
	C211.668,116.919,211.382,116.749,212.75,117.186z M189.73,107.072c-0.697,0-1.395,0-2.092,0c0.394,1.096-0.101,0.922,0.349,1.744
	c1.518,0.125,1.604,0.054,2.441,0.349C191.152,108.862,189.181,108.352,189.73,107.072z M310.405,117.884
	c2.105,1.242,4.416,3.022,5.58,4.185c1.319,0.23,0.654-2.443,0.349-2.79c1.314,0.269,1.667-0.425,2.79-0.349
	c0.452-1.612,1.384-6.956,0-9.417C312.727,106.712,308.68,113.788,310.405,117.884z M259.135,122.767
	c-1.529-1.284-5.18-4.476-3.836-7.324c-0.524-0.522-1.044-1.049-1.396-1.744c-2.333,0.782-3.664-0.749-6.277,0.349
	c-4.271,5.979,3.611,11.277,9.416,11.858C257.641,124.76,258.479,123.854,259.135,122.767z M11.161,121.023
	c2.673-6.884-10.636-4.031-8.021,0.697C4.746,124.627,8.612,123.155,11.161,121.023z M53.71,131.137
	c0.195-0.787,0.544,0.423,1.046-0.349c-1.939-2.67-1.938-5.258-3.139-8.37c-1.042,0.787-1.856-0.984-2.441-1.744
	c-2.063,0.097-2.493-0.098-3.487,0.697c-0.221-1.988-3.009-1.986-4.185-3.487c-0.32,1.308-1.647,1.608-2.791,2.092
	c-1.99,3.631-2.919,6.306-2.441,9.767c2.231,4.369,0.059,8.362-1.395,12.206c1.837,5.399,1.438,17.604,5.58,23.368
	c-1.292,4.062,1.426,7.795,2.441,10.812c0.24,3.868,1.191,5.256,2.791,7.324c1.667-1.395,1.32-3.53,4.185-4.186
	c-1.215-2.117,4.15-4.684,6.626-4.185c1.21-2.045,1.227-5.284,3.836-5.93c1.119-4.979,5.616-6.058,4.185-12.904
	c0.04-0.891,0.64-1.221,1.046-1.743c-1.143-1.147,0.082-3.649-0.697-4.883c0.056-0.409,0.636-0.295,1.046-0.35
	c-0.981-3.67-4.346-8.246-5.231-13.602C58.699,133.822,56.566,132.118,53.71,131.137z M311.451,126.254
	c3.653,0.137,11.387-0.66,11.161,3.488c-0.096,1.75-1.456,2.656-3.837,2.79c-0.654,0.665,0.207,0.631,0,1.743
	c-1.045,0.563-3.286-0.036-5.231,0.698c0.507,1.885-2.37,2.771-3.139,1.743c0.92,2.179,1.374,3.434,4.185,3.139
	c-0.184-0.28-0.363-0.565-0.349-1.046c1.162,0,2.325,0,3.487,0c0.099-0.563-0.329-0.601-0.348-1.046
	c2.388,0.063,4.515-0.136,4.534-2.441c1.456,0.294,1.646-0.678,2.789-0.697c-0.027-0.73,0.723-1.312,0.35-1.744
	c1.053-0.342,1.415-1.374,2.441-1.744c0.105-1.332,0.388-3.153,0-3.836C326.189,125.003,312.483,120.812,311.451,126.254z
	 M143.693,140.903c-2.056,1.548-5.682,1.526-6.976,3.836c-0.14,3.531,0.919,3.6,1.396,6.278c1.566,0.171,2.613-0.177,3.836-0.349
	c0.904,0.731,9.83-1.349,13.254-0.349c0.411-0.519,0.302-1.559,1.395-1.396c-0.413-9.484,0.253-18.418-3.487-25.809
	C145.499,125.69,144.861,134.381,143.693,140.903z M259.135,137.764c2.573,1.813,6.007-2.486,9.068-2.093
	c1.19-6.994-13.846-11.481-13.253-3.488c0.099,1.343,1.174,1.125,1.046,2.442C258.168,134.545,258.788,136.02,259.135,137.764z
	 M303.778,129.743c-2.063,1.429-4.787,2.798-7.324,3.487c0,0.465,0,0.93,0,1.396C299.69,133.792,303.072,133.105,303.778,129.743z
	 M220.771,134.625c2.967,0.751,3.631-2.639,3.487-3.837C221.714,129.392,220.691,132.261,220.771,134.625z M169.85,143.693
	c4.152-0.545,8.311-4.49,6.278-8.021c-1.086-0.317-3.583-0.123-4.186-1.046C168.251,135.368,167.353,141.557,169.85,143.693z
	 M188.684,134.974c-3.574,4.731-8.126,9.492-12.556,14.299c-2.108,2.287-4.014,3.146-3.139,6.976
	c6.472-1.658,13.131,6.963,19.88,2.79c1.909-4.446-2.553-7.376-2.441-10.463c0.104-2.886,2.531-3.438,3.487-6.277
	C193.24,138.789,193.442,134.401,188.684,134.974z M251.462,137.066c0.444,1.139,0.502,0.739,0.697,1.744c0.466,0,0.931,0,1.396,0
	c-0.169-1.099,1.07-0.789,0.697-2.093C253.185,136.207,252.436,136.624,251.462,137.066z M272.388,139.508
	c1.741-0.701,4.065-0.818,5.93-1.396C277.1,136.782,273.374,138.346,272.388,139.508z M12.904,141.6
	c-0.304,0.736-2.628,1.436-3.139,2.79c0.029-0.076,0.486,4.814,0,5.93c-1.63,3.739-7.031,5.063-3.139,8.719
	c3.117-1.07,4.306-5.921,6.278-6.976C15.106,148.868,16.934,143.516,12.904,141.6z M211.354,152.761
	c-0.292,0.511-1.591,1.979-1.395,0c-0.465,0-0.931,0-1.396,0c-0.505,1.318,0.958,0.669,0.697,1.744
	C210.608,154.573,211.266,153.951,211.354,152.761z M248.672,154.505c-1.299-0.37-1.126,0.733-1.744,1.046
	C247.272,156.315,248.674,155.238,248.672,154.505z M224.957,154.505c-3.534,0.477-4.466,5.46-4.186,7.673
	c3.843-1.59,5.185-3.603,8.021-6.278C228.241,154.415,225.053,155.536,224.957,154.505z M28.599,184.5
	c0.28-0.296,1.436,0.023,2.093-0.698c-0.108-0.473-0.874-0.289-1.396-0.349c-0.163-0.744,0.499-0.664,1.046-0.697
	c-0.586-0.333-1.089-1.157,0-1.396c-0.039-0.658-1.153-0.242-1.046-1.046c0.836-0.905-0.03-0.642,0.698-2.441
	c-0.952-0.031-0.702,0.581-1.395,0c0.445-1.218,1.733-2.13,2.79-1.744c-0.03-0.899-1.493-0.367-1.046-1.744
	c-0.698,0-1.395,0-2.093,0c1.479-1.386,1.348-2.526,2.442-4.534c-0.088-1.19-1.848-0.71-2.093-1.743
	c0.229-1.045,0.746,0.333,1.395,0c0.163-0.744-0.498-0.664-1.046-0.697c1.99-1.102,0.101-2.562,0-3.837
	c-6.298,0.251-6.096-9.573-12.556-5.929c-2.51,4.93-6.052,8.828-9.068,13.253c-1.666,4.481,0.641,8.566,0.349,12.207
	c-0.312,3.892,2.306,6.305,4.883,9.766c0.895,1.201,4.094,1.829,3.139,3.487c2.687,0.453,2.414,3.864,4.883,4.534
	c-0.268,1.314,0.426,1.667,0.349,2.79c1.777-0.266,2.194,0.829,2.79,1.744c2.065-0.411,4.429,0.466,6.278-0.697
	c0.447-1.297-0.271-3.76,1.395-3.837c-0.339-0.823-0.993-1.332-1.395-2.093c2.16-1.926-2.358-2.785,0-4.534
	c0.437,1.274,0.854,0.4,1.395,1.396c0.865-1.805-3.119-1.757-2.441-4.534c0.392-0.653,1.352-0.741,1.744-1.396
	c-0.043-1.229-0.508-0.095-1.396-0.697c0.689-0.938,0.666-2.59,1.396-3.487c-0.339-0.01-0.271-0.428-0.349-0.697
	c-0.729-0.148-0.923,0.238-1.395,0.349C29.004,184.792,28.871,184.576,28.599,184.5z M260.531,163.224
	c-1.406,2.343-2.49-3.414-0.349-4.534c-0.584-0.463-0.744-1.349-2.093-1.046c0.927,1.181-2.293,0.547-2.79,1.395
	c-0.129-0.593,0.272-0.658,0.697-0.697c-2.327-0.346-4.562,2.411-6.278,3.837c1.211,2.464,1.986,3.517,3.837,5.58
	c0.621-0.256,0.051-0.635,0-1.047c1.544-0.497,0.912,1.181,2.093,1.047c-0.079-0.003-0.335-0.697-0.349-0.698
	c3.092,0.138,4.474-1.139,7.673-2.092C262.941,163.604,261.094,164.055,260.531,163.224z M125.208,159.736
	c-0.396,0.066-0.194,0.351,0,0.35c-0.984,0.295-1.361,1.196-2.093,1.743c0.32,0.609,1.09,0.771,2.093,0.698
	c-0.036-1.083,1.097-0.995,0.697-2.441C125.5,160.141,125.285,160.008,125.208,159.736z M201.588,161.829
	c-1.191-0.261-0.442,1.417-1.743,1.047c-0.116,1.278,0.387,1.938,0.697,2.79c0.985-0.288,0.903,0.491,1.744,0.349
	c0.319-1.075,1.448-1.341,1.046-3.139C201.267,163.231,202.799,162.154,201.588,161.829z M389.924,167.758
	c1.292,0.042,0.877,0.507,0.697,1.395c1.501,0.433,2.814-1.115,2.79,0.697c1.065,0.253,1.271-0.356,2.093-0.348
	c-0.342-2.242-1.396-2.916-1.046-5.232c-1.009-0.634-1.59-0.066-1.744-1.046c-0.688,0.768-0.774,1.938-2.442,2.441
	c0.264,0.759,0.675,1.758-0.696,2.093c-0.064,0.297,0.136,0.329,0.349,0.349C390.342,168.595,390.06,168.137,389.924,167.758z
	 M172.641,164.62c0.381,1.544-0.592,1.734-0.698,2.79c2.517,3.027,6.761,5.511,11.161,3.836c3.089-6.045-5.408-6.295-7.324-7.324
	C175.418,163.471,173.51,164.422,172.641,164.62z M390.622,171.246c0.581,0,1.162,0,1.744,0
	C392.937,169.106,389.939,168.95,390.622,171.246z M373.183,170.2c-0.813,0.828-3.627,1.077-2.79,2.441c-0.698,0-1.396,0-2.093,0
	c0.267,1.012,0.551,2.006,1.395,2.441c-1.863,1.973-4.432,3.24-7.323,4.185c2.274,0.487,6.327,1.062,7.672,0.698
	c2.929-0.79,4.545-5.845,2.093-8.72C371.999,170.41,373.725,171.439,373.183,170.2z M151.714,171.246
	c1.066,0.252,1.271-0.356,2.093-0.349C153.491,170.073,151.811,170.089,151.714,171.246z M103.933,183.453
	c4.512,3.769,11.99-1.353,14.648-4.883c-0.575-2.195-1.624-3.381-1.046-5.929c-1.075-0.205-1.071-1.487-2.093-1.744
	C110.561,174.038,105.651,177.149,103.933,183.453z M149.273,171.943c0.296,0.751,0.859,1.234,2.093,1.047
	c0.064-0.297-0.136-0.329-0.349-0.349c0.01-0.34,0.427-0.271,0.697-0.349C151.228,171.758,149.91,171.301,149.273,171.943z
	 M196.008,172.292c-1.969,0.355-2.382,2.268-3.836,3.139c0.192,1.435,1.3,1.955,3.139,1.744
	C195.733,175.853,196.381,173.292,196.008,172.292z M501.879,177.873c-0.312,0.271-0.788,0.375-1.396,0.349
	c0.857,1.074,0.41,1.395-0.697,2.093c-1.122-0.56,1.227-1.304,0-2.093c-1.545-0.498-0.913,1.18-2.093,1.046
	c0.742,1.653,0.554,2.947-0.698,4.186c0.676,1.185,1.288,2.433,2.093,3.487c0.34-0.009,0.271-0.427,0.349-0.697
	c1.109,0.307,1.182,1.401,0.698,2.441c1.096-0.058,1.098,0.951,2.44,1.396c0.432,1.128-1.128,0.266-0.696,1.395
	c4.521-1.156,8.354,0.743,10.811,1.396c0.28,1.21-0.519,1.341-0.348,2.441c2.044-0.919,2.244,1.002,4.534,1.395
	c-0.427-1.014,1.928-1.844,2.789-3.487c-0.558-1.229-1.18-1.618-0.696-3.139c-1.523,0.477-0.742-1.351-2.093-1.047
	c0,0.35,0,0.697,0,1.047c-0.379-1.133-2.449-0.575-3.837-0.697c-0.769-0.859-1.604-1.652-2.093-2.791
	c-0.106-1.09,1.007,0.887,1.047-0.349c0.352-1.049-0.777-0.617-1.396-0.697c-0.305-1.118,0.536-1.091,1.046-1.396
	c-0.84-2.07-5.554-2.113-5.58-3.836C505.346,179.906,501.962,179.987,501.879,177.873z M450.61,196.008
	c-4.558,0.022-5.091-8.742-1.743-8.021c-0.272-0.311-0.376-0.788-0.35-1.396c0.752-0.41,1.602-0.723,2.441-1.046
	c-0.546-1.663-0.72-3.697-1.744-4.883c-4.37,0.353-10.554-1.897-11.16,2.441c-0.053,0.646-1.182,0.214-1.396,0.697
	c0.903,1.635-0.956,2.184-1.395,3.488c0.29,1.918,0.9,3.517,2.093,4.533c-0.12,1.276-1.488,1.304-1.744,2.441
	c-2.12-0.612-5.872-0.456-8.021,0c3.292,2.519,7.885,1.191,11.857,2.441c3.764,1.185,6.149,4.574,9.766,5.231
	c0.978,0.343-0.506,0.931,0.349,1.396c1.211-0.279,1.341,0.52,2.442,0.349c0.106-2.021,0.761-3.836,0.349-4.534
	C451.787,198.984,450.542,197.819,450.61,196.008z M402.828,182.057c-0.001,2.211,3.229,1.189,2.791,3.837
	c1.436,0.309,3.689,1.265,5.231,0.349c-0.065-0.98-0.607-1.485-1.743-1.395C410.159,181.173,405.475,180.576,402.828,182.057z
	 M359.233,182.057c-1.435-0.163,0.272,0.877-0.698,1.396c-0.409-0.057-0.294-0.636-0.349-1.046c-1.294,0.259-0.42,1.883,0.697,1.743
	C359.285,183.738,359.278,182.917,359.233,182.057z M100.097,224.607c-4.984,0.501-10.84,0.581-10.812-5.58
	c-2.367-1.209-4.292-0.052-6.278,0.697c-1.993,10.143-0.871,19.096-3.139,26.507c1.3,1.483,0.362,3.621,0.349,6.278
	c1.331,1.572,4.691,1.811,6.627-0.349c0.146-0.163-0.171-0.921,0-1.047c1.793-1.322,4.712-1.535,4.534-3.487
	c0.31,0.271,0.788,0.375,1.395,0.349c0.012-2.895,4.051-1.762,4.186-4.534c4.959-1.319,7.208-5.347,10.812-8.021
	c1.955-5.425,5.779-8.72,7.324-13.602c6.421-12.12,12.428-21.354,14.647-35.227c-0.649-0.048-1.165-0.229-1.395-0.697
	c-9.535,3.674-16.965,7.461-26.855,10.463c-2.927,2.745,1.211,5.051,1.744,9.068c0.307,2.313-0.893,3.794-1.396,6.627
	c-0.512,2.886,0.797,5.022,0.698,6.975C102.42,221.354,100.969,222.683,100.097,224.607z M130.789,216.238
	c7.052-2.708,10.73-8.877,16.392-11.161c-1.256-0.995,3.228-2.029,2.093-1.744c0.915-0.983,3.126-4.338,4.883-3.836
	c1.379-1.926-0.122-3.167-1.046-4.534c-2.569,0.473-5.77-0.303-6.976,0.349c-0.009-1.119-1.757-1.438-2.79-2.441
	c0.925-2.012-1.416-2.14-1.046-3.837c-0.406,0.057-0.621-0.076-0.698-0.349c-0.325,0.197-0.528,0.97-0.697,0.349
	c-0.396,0.066-0.194,0.35,0,0.35c-4.468,5.079-6.542,14.691-8.719,20.926C130.499,211.971,130.325,213.689,130.789,216.238z
	 M415.733,189.033c-1.519,0.485,0.257,1.207,0.697,1.744C417.575,190.159,416.024,189.364,415.733,189.033z M53.362,191.474
	c0.24,1.559,1.113,1.917,0,3.139c2.809,0.925,6.341-2.229,9.417-2.44C60.97,191.019,55.692,189.397,53.362,191.474z
	 M419.221,190.428c-0.52,0.412-1.559,0.302-1.396,1.395c1.071-0.052,1.568,1.228,2.441,0.35
	C420.323,191.186,419.219,191.36,419.221,190.428z M365.51,198.45c1.391-1.284,2.004-3.343,3.487-4.534
	c-1.157-1.275-3.649-2.421-7.324-1.395C361.229,194.888,363.23,197.662,365.51,198.45z M490.02,197.054
	c-0.898-0.083,0.479-0.6,0-1.395c-1.308,0.261-1.699-0.394-1.743-1.396c-0.931,0-1.86,0-2.791,0
	c-2.661,4.031-3.331,9.277-0.348,12.905c-1.157,0.425-0.208,2.684,0.697,3.139c-1.363,1.022,1.189,3.795-0.697,4.185
	c0.333,1.062,1.387,1.404,1.047,3.14c0.279-0.185,0.565-0.364,1.046-0.349c4.099,3.108,4.813,9.603,8.37,13.253
	c-0.249,2.226,1.181,2.771,1.395,4.534c1.616,0.322,0.999-3.399,2.441-2.093c-0.529-2.054,1.904-2.878,3.139-4.186
	c0.14-0.835-1.588,0.193-1.046-1.046c0.195-0.788,0.544,0.423,1.046-0.349c-0.243-1.996,0.303-2.981,0.35-5.93
	c-1.402,0.952-0.369-1.989-0.35-2.79c-0.28,0.185-0.566,0.364-1.046,0.349c-0.163-0.744,0.499-0.664,1.046-0.697
	c-0.34-0.821-0.112-2.212-1.395-2.092c1.338-1.502-1.065-3.176-0.697-5.581c-1.3,0.369-1.126-0.734-1.743-1.047
	c0.009-0.339,0.426-0.271,0.696-0.348c-0.736-0.519-1.323-2.339-2.441-1.396c0.873-1.152-0.948-3.104-0.349-3.837
	c-0.321-0.608-1.091-0.77-2.093-0.697c-0.227-1.518-0.356-3.131-2.093-3.139C494.278,199.135,490.605,196.766,490.02,197.054z
	 M426.544,204.378c0.111,1.981,2.24,1.945,3.837,2.441c3.707,2.455,8.462,3.861,12.206,6.278c0.903,2.004,3.405,2.409,4.884,3.836
	c0.17-0.727-1.358-5.555,1.046-5.929c-0.87-0.989-1.387-2.334-3.139-2.441c0.065,0.282,0.35,0.348,0.349,0.698
	c-1.243,0.079-1.823-0.502-1.744-1.744c-2.658,1.094-6.189-3.197-6.277-3.488C436.782,202.912,429.04,202.42,426.544,204.378z
	 M9.766,206.123c0.797,1.361,2.244,0.15,3.836,0.349C13.434,204.095,10.496,204.544,9.766,206.123z M269.25,218.33
	c-0.709-1.069,0.729-0.381,1.047-1.396c0.583-1.862-0.706-5.355-1.047-6.976c-2.837-1.513-7.058-1.767-9.766,0
	c0.125,1.28,3.818,4.254,2.093,2.094c0.876,0.52,1.922,0.868,2.441,1.743c-1.629,0.998,2.98,1.474,3.488,3.139
	C266.057,216.043,267.772,218.897,269.25,218.33z M329.238,213.447c-1.038,1.358-3.129,0.297-4.883,0.349
	c-0.128,0.594,0.272,0.658,0.698,0.697c-2.836,1.159-5.729,1.381-8.022,4.884c0.138,2.089,2.396,4.564,2.442,9.416
	c4.29-1.597,9.753-2.83,10.114-7.324c0.408,0.057,0.294,0.636,0.348,1.046c1.684-0.061,1.408-2.08,2.442-2.79
	c-0.688-0.708-1.173-1.617-2.094-2.092c0.307-0.974,0.835-1.723,1.047-2.79C330.383,214.627,329.698,214.15,329.238,213.447z
	 M430.73,216.934c1.306,0.869,0.706,3.042,0.697,4.534c-4.763-3.233-11.639-5.839-17.787-3.139
	c2.725,3.786,5.318,7.702,6.277,13.253c-3.183,1.111-6.963-1.409-8.719-3.836c-1.359,0.384-1.881,1.605-2.79,2.441
	c-5.726-0.089-14.277,1.644-17.787,5.231c-0.249,0.254-2.741,4.859-1.046,6.277c4.306,3.606,10.546,8.015,18.136,5.58
	c2.995-0.961,5.893-4.274,9.765-0.697c5.006-1.264,7.47-6.564,13.603-5.58c1.933,1.782-0.616,4.227,1.047,6.277
	c8.169-1.471,10.467-9.091,12.207-16.043c0.107-0.473,0.873-0.289,1.395-0.349c-0.391-3.673,0.422-4.634,0.349-8.371
	c-0.523-0.521-1.469-0.623-1.743-1.395C438.098,221.441,437.118,217.522,430.73,216.934z M483.394,224.607
	c0.266-0.29,1.653-0.069,1.396-1.743c-3.617-0.73-6.546-1.414-7.673-5.231c-1.067,0.253-1.026-0.602-2.093-0.349
	c1.004,2.134,2.132,4.146,4.185,5.23c-0.271,5.988-0.212,14.215-1.395,20.229c0.757,1.104,2.056,1.665,2.441,3.14
	c4.329,1.127,5.021-3.916,6.626-6.626c-3.235-0.838-2.995-6.112,0.35-6.628C487.876,228.792,484.532,227.625,483.394,224.607z
	 M202.635,222.167c-1.646,9.382,8.081,9.547,15.346,9.766c9.161,0.274,17.983,4.766,25.111,0.696
	c-0.593-2.778-2.975-3.768-4.534-5.58c-0.621,0.256-0.05,0.635,0,1.047c-1.206,0.044-1.644-0.682-2.441-1.047
	c0.086-0.438,0.693-0.352,0.697,0c-0.862-2.254-4.822-2.698-7.673-3.836c-1.04-0.415-2.338-1.606-3.487-1.744
	c-3.167-0.379-6.384,2.454-10.114,1.396C213.809,217.413,207.375,221.753,202.635,222.167z M453.749,228.792
	c-0.877,1.1-1.078,2.874-1.047,4.883c2.135-1.529,0.929,4.51-0.348,5.581c0.28-0.186,0.565-0.364,1.046-0.349
	c-1.156,3.45-2.058,4.926-2.093,8.369c7.215-0.561,11.974-4.502,10.813-14.299c-1.407,0.104-0.617,2.406-2.093,2.441
	c0.154,0.311,0.307,0.624,0.697,0.697c-0.556,1.401-4.604,0.846-3.488,2.791c-1.68,0.169-1.211-1.812-2.44-2.094
	c0.798-1.643,0.894-3.988,2.44-4.882c-0.314-3.317-0.254-4.46-1.743-7.674c-0.985,0.288-0.903-0.491-1.744-0.349
	c0.154-0.311,0.306-0.623,0.698-0.697c-0.396-0.768-2.302-0.024-2.441-1.046c-1.253,1.051,0.882,1.651,0.349,3.139
	c0.378-0.087,0.236-0.693,0.697-0.698c0.953,0.317-0.619,1.222,0.349,1.745c-0.142,0.671-1.353,0.275-1.046,1.395
	C453.733,226.639,451.814,229.092,453.749,228.792z M121.372,237.861c0.732,1.593,1.426,3.225,2.79,4.186
	c3.123-2.731,8.618-6.604,7.324-12.207C127.671,232.07,125.21,235.655,121.372,237.861z M143.344,236.465
	c-3.513,2.301-5.327,6.299-7.673,9.766c2.05,2.427,8.004,3.445,10.463,0.697C146.443,242.203,144.735,239.493,143.344,236.465z
	 M65.568,238.209c-0.172-0.593-1.823,0.236-1.395,1.395c0.625,0.044,0.735-0.427,1.395-0.348
	C65.327,238.974,65.026,238.3,65.568,238.209z M63.825,241.348c0.297,0.064,0.329-0.136,0.349-0.349
	c0.325,0.256,0.528,0.635,0.697,1.047c0.518-0.297,0.75-0.878,0.697-1.744C64.763,239.492,63.712,240.216,63.825,241.348z
	 M73.939,246.58c-0.708,0.223-0.229,1.631-1.046,1.744c1.239,1.558-0.611,2.9,0.349,4.883
	C74.272,251.328,73.59,249.773,73.939,246.58z M45.34,261.577c1.041,0.622,1.3,2.564,1.046,3.488
	c9.313-0.793,13.87-7.552,9.417-15.346c-5.925-0.048-12.124,5.417-9.766,10.813C45.811,260.885,45.236,260.891,45.34,261.577z
	 M101.84,250.068c-0.581,0-1.162,0-1.744,0c-0.358,1.172,1.084,0.543,1.744,0.697C101.84,250.532,101.84,250.3,101.84,250.068z
	 M515.481,262.624c0.128,0.593-0.271,0.658-0.697,0.697c0.315,0.607,0.779,1.343,1.395,0.697c0.156,1.82,0.567,3.387,2.441,3.488
	c-0.173-1.375-1.517-3.475-1.396-5.231c0.822-0.008,1.027,0.601,2.093,0.349c-0.895-1.432,0.808-1.314,1.047-2.093
	c1.25-4.076-3.395-9.085-6.627-4.534c-1.368-0.399-1.296-0.075-2.79-0.349c-0.307,2.411,3.994,4.432,3.488,6.976
	C514.586,263.141,514.88,262.486,515.481,262.624z M108.816,256.345c-0.698,0-1.395,0-2.093,0c-0.764,1.213-0.644,3.309-2.441,3.487
	c1.13,0.551-1.525,1.603,0.349,1.744c-0.758,1.104-1.538,2.183-2.441,3.14c0.794,0.539,0.659,0.725,0.349,1.742
	c0.582,0,1.163,0,1.744,0c-0.393-0.646,0.67-2.168,2.092-2.092c1.684-2.394,3.247-3.636,3.139-6.626
	C108.9,257.656,108.719,257.14,108.816,256.345z M72.893,258.089c0.416,1.095,1.924,1.098,2.092,2.441
	C75.664,259.715,73.921,258.355,72.893,258.089z M522.457,288.432c-0.108-0.473-0.874-0.289-1.396-0.348
	c0.373-2.217-0.476-3.672,1.396-4.883c-0.295-1.102-1.799-0.992-2.093-2.094c-3.304,1.275-4.963-1.385-6.976-2.092
	c1.186,0.416-1.928,0.842-0.698-0.35c-0.61,0.32-1.211,0.648-1.046,1.744c-3.102,0.428-3.987-1.359-5.58-2.441
	c-0.912,1.609-1.516-1.248-3.488-0.697c-0.58,1.162-1.262,2.227-2.789,2.441c0.086,0.379,0.693,0.236,0.697,0.697
	c-1.336,1.025-4.803,0.455-3.488,3.139c4.348,4.262,11.85,10.629,18.834,6.977c-0.01-0.34-0.427-0.271-0.697-0.35
	c1.636-0.881,2.439-0.525,4.883-0.697c-0.227,0.355-0.803,0.361-0.698,1.047C520.455,289.918,521.339,289.059,522.457,288.432z
	 M145.088,284.596c-6.701,0.158-9.386,4.332-9.417,11.16C140.276,293.502,144.512,290.879,145.088,284.596z M83.705,307.963
	c9.559,2.783,22.181,0.557,25.111-9.416c-1.29-3.361-2.724-6.576-5.231-8.721c-3.402,0.844-6.809,3.912-11.161,4.885
	C89.9,299.332,81.619,299.875,83.705,307.963z M230.885,302.383c1.607-0.234,1.201-1.943,2.441-1.744
	c0.78-2.539,0.911-3.799,2.093-5.58c-0.601-1.23-0.571,1.008-1.744,0.35c-0.309,2.395-2.813,3.365-4.883,4.883
	c-0.128,0.592,0.272,0.656,0.697,0.697c-0.116,1.928-1.748,0.988-2.79,1.395c-0.087,1.422,0.887,2.201-1.046,2.094
	c1.232,0.986-0.667,2.73-2.093,3.139c1.035,0.963-1.514,1.641,0.349,2.092c-1.365,0.422-1.703,1.096-3.139,0.697
	c0.336,2.256-0.103,1.977-0.697,3.488c1.661-0.5,0.866,1.459,2.441,1.047c0-0.582,0-1.164,0-1.744
	c0.625-0.045,0.735,0.426,1.395,0.348c-0.562,0.602-0.687,1.639-1.395,2.094c0.411,1.902,0.778,1.934,1.395,3.836
	c1.266-0.258,1.368-1.885,1.047-2.791c3.041-3.469,4.243-8.775,6.626-12.904C232.013,302.648,230.455,303.512,230.885,302.383z
	 M77.776,325.053c-0.146,2.541,3.096,3.32,4.534,3.139c1.546-0.895,2.649-2.232,2.441-4.883
	C82.297,321.723,79.754,324.074,77.776,325.053z M193.218,328.541c-0.446-0.477-1.646-0.477-2.093,0
	c0.436,1.656,1.236,2.949,2.79,3.488c0.064,0.297-0.136,0.328-0.349,0.348C195.344,332.463,192.327,329.855,193.218,328.541z
	 M95.563,330.633c0.775,1.332-0.816,0.908-1.047,2.094c1.286,0.572,2.252,1.469,4.186,1.395c0.532-1.533,0.275-3.061,0.349-3.836
	C97.644,329.703,96.97,330.115,95.563,330.633z M95.214,341.795c-6.729-5.555-11.218-1.078-13.951,4.533
	c-1.721,3.531,3.812,7.965,7.324,5.928c0.946-2.656,3.074-4.133,5.581-5.23C94.247,345.012,95.057,343.73,95.214,341.795z
	 M189.381,363.068c-1.347,0.281-1.037,2.219-2.092,2.791c-1.512,0-3.023,0-4.534,0c-0.382,2.447,2.299,3.361,2.79,5.93
	c2.665,0.193,9.432,1.018,11.857-1.047C195.919,367.381,191.232,366.877,189.381,363.068z M212.75,404.92
	c5.327-2.693,10.167-5.875,10.812-13.252c-1.621-1.916-3.383-2.416-5.929-2.791C215.891,394.113,214.29,399.486,212.75,404.92z
	 M112.652,393.063c-3.701,0.398-7.625,11.686-1.743,11.857C116.398,405.082,114.394,396.615,112.652,393.063z"/>
</svg>
