<?xml version="1.0" encoding="utf-8"?>
<!-- Generator: Adobe Illustrator 12.0.0, SVG Export Plug-In . SVG Version: 6.00 Build 51448)  -->
<!DOCTYPE svg PUBLIC "-//W3C//DTD SVG 1.1//EN" "http://www.w3.org/Graphics/SVG/1.1/DTD/svg11.dtd" [
	<!ENTITY ns_svg "http://www.w3.org/2000/svg">
	<!ENTITY ns_xlink "http://www.w3.org/1999/xlink">
]>
<svg  version="1.1" id="Layer_1" xmlns="&ns_svg;" xmlns:xlink="&ns_xlink;" width="737.69" height="553.414"
	 viewBox="0 0 737.69 553.414" overflow="visible" enable-background="new 0 0 737.69 553.414" xml:space="preserve">
<g>
	<path fill-rule="evenodd" clip-rule="evenodd" fill="none" stroke="rgb(25, 25, 25)" stroke-width="2" d="M412.75,203.988
		c1.706-0.26,2.12,0.773,3.255,1.085c-0.313,3.667,0.839,8.797-1.085,10.852C411.673,214.469,414.324,207.115,412.75,203.988z"/>
	<path fill-rule="evenodd" clip-rule="evenodd" fill="none" stroke="rgb(25, 25, 25)" stroke-width="2" d="M643.344,225.149
		c1.879-0.381,1.946,1.901,1.085,2.712C642.55,228.242,642.482,225.959,643.344,225.149z"/>
	<path fill-rule="evenodd" clip-rule="evenodd" fill="none" stroke="rgb(25, 25, 25)" stroke-width="2" d="M736.667,552.321
		c-1.981,0.353-2.891-0.366-3.799-1.086C733.544,549.176,737.008,549.313,736.667,552.321z"/>
	<path fill-rule="evenodd" clip-rule="evenodd" fill="none" stroke="rgb(25, 25, 25)" stroke-width="2" d="M157.468,32.263
		c14.484,11.6,21.815,31.867,36.108,42.685c-3.313-11.204-0.104-44.687-7.853-53.956c-6.112-7.311-21.165-7.576-28.798-1.931"/>
	<path fill-rule="evenodd" clip-rule="evenodd" fill="none" stroke="rgb(25, 25, 25)" stroke-width="2" d="M439.742,74.584
		c-1.607-9.339,12.649-42.605,23.615-20.359c6.302,12.785-8.479,9.925-16.697,16.562"/>
	<path fill-rule="evenodd" clip-rule="evenodd" fill="none" stroke="rgb(25, 25, 25)" stroke-width="2" d="M220.407,93.574
		c-0.962,0.026-1.836-0.087-2.377-0.434c6.281-16.255,16.478-33.805,30.063-44.709c1.89,10.553,6.191,20.527,10.369,30.378
		C248.58,88.773,232.782,87.626,220.407,93.574"/>
	<path fill-rule="evenodd" clip-rule="evenodd" fill="none" stroke="rgb(25, 25, 25)" stroke-width="2" d="M510.142,70.244
		c13.772,4.882,29.626,6.13,40.474,17.45c-4.637-13.324-23.054-34.096-39.462-26.767C509.616,63.55,507.003,67.792,510.142,70.244"
		/>
	<path fill-rule="evenodd" clip-rule="evenodd" fill="none" stroke="rgb(25, 25, 25)" stroke-width="2" d="M495.221,84.622
		c15.102,16.052,33.382,36.469,58.081,29.388c-6.656-7.941-15.487-28.284-27.58-22.546c-3.46,0.377-5.712-3.078-9.016-3.124
		c-7.393,6.112-9.651-7.463-16.602-8.33"/>
	<path fill-rule="evenodd" clip-rule="evenodd" fill="none" stroke="rgb(25, 25, 25)" stroke-width="2" d="M478.4,81.095
		c9.392,9.215,24.719,15.886,28.894,28.703c-8.985,0.876-19.119-1.336-26.632,5.118"/>
	<path fill-rule="evenodd" clip-rule="evenodd" fill="none" stroke="rgb(25, 25, 25)" stroke-width="2" d="M479.894,108.766
		c-2.483-8.142-3.654-17.01-7.578-24.493"/>
	<path fill-rule="evenodd" clip-rule="evenodd" fill="none" stroke="rgb(25, 25, 25)" stroke-width="2" d="M123.286,262.586
		c6.124,9.994,3.903,32.178,19.595,31.37c-2.079-12.439-3.347-27.166-10.565-38.043c-3.269-0.842-7.52-1.548-10.116,1.129
		C121.046,258.813,122.825,260.826,123.286,262.586"/>
	<path fill-rule="evenodd" clip-rule="evenodd" fill="none" stroke="rgb(25, 25, 25)" stroke-width="2" d="M108.501,264.214
		c-0.293,0.007-0.588,0.015-0.882,0.021c-2.225,15.271,0.906,31.717,3.485,46.785c6.631,1.121,14.724-1.147,19.937-5.734
		C127.474,291.169,117.312,276.27,108.501,264.214"/>
	<path fill-rule="evenodd" clip-rule="evenodd" fill="none" stroke="rgb(25, 25, 25)" stroke-width="2" d="M46.783,310.061
		c-0.908-0.013-1.885-0.312-2.458-0.743c-0.212-0.583-0.225-1.261-0.241-1.695c8.317-7.453,20.669-15.548,31.241-23.563
		c5.7-4.32,12.008-12.165,17.46-9.871C98.931,299.667,67.177,310.915,46.783,310.061"/>
	<path fill-rule="evenodd" clip-rule="evenodd" fill="none" stroke="rgb(25, 25, 25)" stroke-width="2" d="M253.233,502.946
		c4.019-7.764,5.342-16.947,10.309-24.279"/>
	<path fill-rule="evenodd" clip-rule="evenodd" fill="none" stroke="rgb(25, 25, 25)" stroke-width="2" d="M263.542,478.667
		c5.749-19.053,13.391-38.938,22.72-56.089"/>
	<path fill-rule="evenodd" clip-rule="evenodd" fill="none" stroke="rgb(25, 25, 25)" stroke-width="2" d="M286.262,422.578
		c5.933-27.091,24.326-54.419,43.667-74.148c39.07-39.853,101.17-29.024,143.751,4.118c0.16,0.645,0.173,1.72-0.057,2.966
		c-23.569-1.056-45.034-5.057-60.417,8.933c-2.124,1.931-4.164,4.844-7.042,6.715c-5.737,3.729-5.618,3.995-8.153,10.629
		c-3.101,8.112-7.677,13.351-9.242,20.104c-3.126,13.497-3.858,26.055-1.121,40.361c4.127,21.564,3.895,39.061,18.126,50.224
		c10.264,8.051,27.495,14.891,37.437,17.379c13.185,3.3,25.489,4.409,37.991,10.305c21.024,9.913,44.16,3.538,67.101,10.546"/>
	<path fill-rule="evenodd" clip-rule="evenodd" fill="none" stroke="rgb(25, 25, 25)" stroke-width="2" d="M263.542,478.667
		c7.046,2.257,10.929-9.001,14.065-14.396c7.07-12.172,14.051-32.239,8.655-41.692"/>
	<path fill-rule="evenodd" clip-rule="evenodd" fill="none" stroke="rgb(25, 25, 25)" stroke-width="2" d="M504.535,382.766
		c-1.96-27.997,25.412-45.34,46.771-57.73c9.306,5.271,16.021,15.438,22.282,23.979c-15.715,16.291-42.265,20.825-54.657,41.456"/>
	<path fill-rule="evenodd" clip-rule="evenodd" fill="none" stroke="rgb(25, 25, 25)" stroke-width="2" d="M472.523,365.585
		c-15.841-12.416-40.147-4.182-50.089,11.904c-3.597,12.959-16.935,20.269-22.4,31.693c27.523-11.409,59.014-9.19,87.826-17.85
		c1.079-8.241-1.4-18.283-7.561-24.302"/>
	<path fill-rule="evenodd" clip-rule="evenodd" fill="none" stroke="rgb(25, 25, 25)" stroke-width="2" d="M523.241,395.942
		c-0.678,0.385-1.767,0.77-1.797,1.675c10.178,12.156,25.399,20.508,37.631,30.777c11.025-10.57,20.697-24.263,35.548-29.401
		C577.24,379.209,544.99,385.64,523.241,395.942"/>
	<path fill-rule="evenodd" clip-rule="evenodd" fill="none" stroke="rgb(25, 25, 25)" stroke-width="2" d="M420.694,428.188
		c23.86,1.925,31.156,24.357,41.521,41.08c10.618-7.396,10.933-22.661,15.178-34.824c4.124-11.816,12.396-19.159,14.966-29.5
		c-9.404-2.226-19.294,5.868-34.851,8.238c-12.767,1.945-24.688,4.575-37.396,12.969
		C420.164,426.612,420.296,427.391,420.694,428.188"/>
	<path fill-rule="evenodd" clip-rule="evenodd" fill="none" stroke="rgb(25, 25, 25)" stroke-width="2" d="M479.758,488.026
		c13.974,16.835,35.216,23.963,56.261,24.074c-4.111-12.381-13.966-25.732-8.622-38.763c-4.146-0.913-8.081,2.306-12.189,1.995
		c-1.902-5.823,5.07-11.746,2.18-17.157c-5.265-0.447-9.5,7.558-14.8,5.15c0.518-8.793,7.407-16.105,11.729-23.44
		c-2.78-5.384-7.878-9.932-11.447-14.758c-8.465,19.573-20.263,38.555-25.495,59.817
		C477.623,486.318,478.681,487.259,479.758,488.026"/>
	<path fill-rule="evenodd" clip-rule="evenodd" fill="none" stroke="rgb(25, 25, 25)" stroke-width="2" d="M523.459,419.07
		c16.506,2.739,40.308,11.721,41.253,30.511c-0.855,18.797-5.233,37.862-15.851,53.561c-7.604-11.146-5.933-26.437-10.763-38.952
		c0.63-1.447,2.206-2.136,3.201-3.281c-0.607-4.64-6.543-5.728-9.028-9.117c-0.156-0.573-0.353-1.287-0.438-1.733
		c0.136-1.929,2.28-2.815,2.875-4.556c-10.456-4.118-18.201-13.377-17.73-25.623"/>
	<path fill-rule="evenodd" clip-rule="evenodd" fill="none" stroke="rgb(25, 25, 25)" stroke-width="2" d="M193.7,4.562
		c9.157-3.801,20.913-4.523,30.757-2.342"/>
	<path fill-rule="evenodd" clip-rule="evenodd" fill="none" stroke="rgb(25, 25, 25)" stroke-width="2" d="M224.457,2.22
		c20.063-3.959,57.661,8.355,70.936,25.507c6.687,8.64,1.147,19.671,9.225,28.216c2.281,6.33,7.064,13.561-1.882,19.253
		c-10.225,6.507-24.981,12.772-35.839,16.869c-23.976,9.046-22.903,27.307-41.668,24.713
		c-6.432,55.758-6.146,112.535-10.248,168.326"/>
	<path fill-rule="evenodd" clip-rule="evenodd" fill="none" stroke="rgb(25, 25, 25)" stroke-width="2" d="M214.981,285.103
		c8.481,8.437,13.813,19.619,19.098,30.275"/>
	<path fill-rule="evenodd" clip-rule="evenodd" fill="none" stroke="rgb(25, 25, 25)" stroke-width="2" d="M214.981,285.103
		c-7.505,34.029,2.38,71.211,17.09,101.786"/>
	<path fill-rule="evenodd" clip-rule="evenodd" fill="none" stroke="rgb(25, 25, 25)" stroke-width="2" d="M232.072,386.889
		c4.544-26.956,4.255-56.353,12.585-83.079"/>
	<path fill-rule="evenodd" clip-rule="evenodd" fill="none" stroke="rgb(25, 25, 25)" stroke-width="2" d="M244.657,303.81
		c-10.264-8.981-15.683-23.644-25.227-34.008"/>
	<path fill-rule="evenodd" clip-rule="evenodd" fill="none" stroke="rgb(25, 25, 25)" stroke-width="2" d="M244.657,303.81
		c0.11-0.064,0.219-0.128,0.329-0.192c6.213-23.168,12.195-44.47,21.71-70.385c3.868-10.537,9.123-25.674,15.982-38.996
		c8.203-15.933,21.374-37.753,31.498-40.743"/>
	<path fill-rule="evenodd" clip-rule="evenodd" fill="none" stroke="rgb(25, 25, 25)" stroke-width="2" d="M314.176,153.495
		c1.167-2.477,3.936-3.604,5.078-6.091"/>
	<path fill-rule="evenodd" clip-rule="evenodd" fill="none" stroke="rgb(25, 25, 25)" stroke-width="2" d="M319.254,147.404
		c-17.132-41.365-72.635-23.873-87.524,10.576c-5.728,13.249-1.887,28.535,2.039,41.745c3.542,11.923,7.048,26.252,19.192,33.834"/>
	<path fill-rule="evenodd" clip-rule="evenodd" fill="none" stroke="rgb(25, 25, 25)" stroke-width="2" d="M319.254,147.404
		c19.268-20.384,52.289-19.844,75.319-8.932"/>
	<path fill-rule="evenodd" clip-rule="evenodd" fill="none" stroke="rgb(25, 25, 25)" stroke-width="2" d="M394.573,138.472
		c11.075-19.02,24.45-36.817,35.799-55.19c-5.712-13.726-6.506-23.372,0.608-32.729c9.195-12.097,28.355-10.549,44.057-13.491
		c9.611-1.8,17.249-2.147,24.162,1.441"/>
	<path fill-rule="evenodd" clip-rule="evenodd" fill="none" stroke="rgb(25, 25, 25)" stroke-width="2" d="M499.199,38.503
		c9.534-0.407,25.305,9.268,34.725,16.859c8.978,7.233,20.82,15.126,23.422,18.137"/>
	<path fill-rule="evenodd" clip-rule="evenodd" fill="none" stroke="rgb(25, 25, 25)" stroke-width="2" d="M499.199,38.503
		c13.889,6.113,6.458,19.217-0.854,27.521c-8.938-0.675-16.657,1.033-22.838-3.109c-5.486-3.676-2.874-11.021-6.988-16.08"/>
	<path fill-rule="evenodd" clip-rule="evenodd" fill="none" stroke="rgb(25, 25, 25)" stroke-width="2" d="M394.573,138.472
		c4.038,3.562,7.36,9.507,11.259,13.7"/>
	<path fill-rule="evenodd" clip-rule="evenodd" fill="none" stroke="rgb(25, 25, 25)" stroke-width="2" d="M405.832,152.172
		c8.832-19.233,16.228-43.934,36.723-54.6c1.001,0.332,1.546,1.107,2.154,1.822"/>
	<path fill-rule="evenodd" clip-rule="evenodd" fill="none" stroke="rgb(25, 25, 25)" stroke-width="2" d="M444.709,99.394
		c5.905,5.651,13.114,10.316,21.198,12.182c-0.64-8.064,1.943-29.875-12.193-23.427"/>
	<path fill-rule="evenodd" clip-rule="evenodd" fill="none" stroke="rgb(25, 25, 25)" stroke-width="2" d="M444.709,99.394
		c-2.47,12.614,15.826,25.506,26.234,29.548c18.027,7,44.708,5.41,61.463,5.808c13.889,0.331,29.456,4.004,41.776-0.256
		c4.119-25.097-7.116-52.125-29.316-65.335"/>
	<path fill-rule="evenodd" clip-rule="evenodd" fill="none" stroke="rgb(25, 25, 25)" stroke-width="2" d="M405.832,152.172
		c-0.487,4.661-0.744,9.45-0.082,14.107"/>
	<path fill-rule="evenodd" clip-rule="evenodd" fill="none" stroke="rgb(25, 25, 25)" stroke-width="2" d="M405.75,166.279
		c12.521-5.773,25.681-11.979,39.826-12.073"/>
	<path fill-rule="evenodd" clip-rule="evenodd" fill="none" stroke="rgb(25, 25, 25)" stroke-width="2" d="M445.576,154.207
		c13.223-2.315,27.632-0.813,40.149,3.934"/>
	<path fill-rule="evenodd" clip-rule="evenodd" fill="none" stroke="rgb(25, 25, 25)" stroke-width="2" d="M485.726,158.141
		c6.015,0.092,11.115,3.794,16.94,4.944"/>
	<path fill-rule="evenodd" clip-rule="evenodd" fill="none" stroke="rgb(25, 25, 25)" stroke-width="2" d="M339.95,321.066
		c0.14,0.051,0.28,0.102,0.421,0.153c25.438-6.374,60.372-11.597,86.02-7.02c24.392,4.354,51.505,10.003,64.774,34.219
		c0.623,0.152,1.423,0.364,2.342,0.405c9.413-21.341,26.101-39.04,47.368-45.071c33.772-9.578,74.509,19.146,85.209,55.817
		c4.352,14.911,10.688,28.521,9.394,43.252c-4.493,7.842-4.249,17.642-7.857,26.029c-3.695,8.592-18.323,13.417-23.177,26.223
		c-2.679,7.068-4.53,14.814-7.979,21.265c-10.385,19.43-29.601,31.413-38.861,48.038c-1.29,2.316-2.345,4.047-3.783,6.512"/>
	<path fill-rule="evenodd" clip-rule="evenodd" fill="none" stroke="rgb(25, 25, 25)" stroke-width="2" d="M239.496,468.591
		c-1.377,5.84-6.246,10.575-7.424,16.449"/>
	<path fill-rule="evenodd" clip-rule="evenodd" fill="none" stroke="rgb(25, 25, 25)" stroke-width="2" d="M64.093,232.403
		c6.862-4.9,14.792-8.636,22.957-10.82"/>
	<path fill-rule="evenodd" clip-rule="evenodd" fill="none" stroke="rgb(25, 25, 25)" stroke-width="2" d="M87.05,221.583
		c4.63-2.375,10.879-3.41,16.161-5.279"/>
	<path fill-rule="evenodd" clip-rule="evenodd" fill="none" stroke="rgb(25, 25, 25)" stroke-width="2" d="M103.211,216.304
		c2.398-0.431,4.719-1.673,7.208-1.348"/>
	<path fill-rule="evenodd" clip-rule="evenodd" fill="none" stroke="rgb(25, 25, 25)" stroke-width="2" d="M110.419,214.956
		c9.227-4.125,25.679-5.113,26.973,7.971c1.771-0.006,2.433-2.31,4.056-2.759c22.136,4.562,35.93,26.23,54.108,38.24"/>
	<path fill-rule="evenodd" clip-rule="evenodd" fill="none" stroke="rgb(25, 25, 25)" stroke-width="2" d="M87.05,221.583
		c3.595,7.966,3.295,17.636,8.593,24.614c-0.008,1.355-0.664,2.715-1.656,3.638"/>
	<path fill-rule="evenodd" clip-rule="evenodd" fill="none" stroke="rgb(25, 25, 25)" stroke-width="2" d="M64.093,232.403
		c5.145,7.469,18.423,6.285,22.298,15.805"/>
	<path fill-rule="evenodd" clip-rule="evenodd" fill="none" stroke="rgb(25, 25, 25)" stroke-width="2" d="M64.093,232.403
		c-21.03,17.951-38.029,42.797-48.965,68.169c-4.275,9.921-11.294,17.414-13.85,27.333c16.333,0.602,33.475-1.99,51.652,2.358
		c10.193,2.439,21.227,9.313,30.992,9.051c36.382-0.983,75.57-14.235,75.697-50.322c0.052-14.725-6.511-32.63-14.209-42.985"/>
	<path fill-rule="evenodd" clip-rule="evenodd" fill="none" stroke="rgb(25, 25, 25)" stroke-width="2" d="M145.411,246.007
		c-21.404-11.146-40.69,7.628-57.663,18.207"/>
	<path fill-rule="evenodd" clip-rule="evenodd" fill="none" stroke="rgb(25, 25, 25)" stroke-width="2" d="M87.748,264.214
		c-6.034,8.738-16.127,6.611-23.728,10.939c-0.521,1.289,0.489,2.612-0.159,3.862c-3.823,2.893-9.054,3.685-13.438,5.745
		c0.256,9.463-12.377,13.658-19.217,17.147c5.568-15.608,21.651-44.099,40.6-47.417C79.872,253.078,83.597,258.815,87.748,264.214"
		/>
	<path fill-rule="evenodd" clip-rule="evenodd" fill="none" stroke="rgb(25, 25, 25)" stroke-width="2" d="M145.411,246.007
		c0.326-0.862,0.424-1.844,0.764-2.564c20.145,1.148,35.304,20.027,52.479,29.083"/>
	<path fill-rule="evenodd" clip-rule="evenodd" fill="none" stroke="rgb(25, 25, 25)" stroke-width="2" d="M198.654,272.526
		c2.952-33.839,10.743-67.21,10.584-101.463c-3.964-17.78-1.873-36.345-3.304-53.658c-21.05,2.627-33.91-19.142-55.977-13.643
		c-12.622,3.146-19.469,12.404-28.352,20C97.249,144.59,91.91,97.027,94.287,81.15c3.392-22.642,18.203-40.362,38.426-54.773
		c16.86-14.494,38.177-23.33,60.986-21.815"/>
	<path fill-rule="evenodd" clip-rule="evenodd" fill="none" stroke="rgb(25, 25, 25)" stroke-width="2" d="M193.7,4.562
		c11.934,18.187,12.77,40.097,18.552,60.001c10.144-8.86,24.487-16.691,26.979-31.302c-6.591-9.626-7.26-22.017-14.773-31.042"/>
	<path fill-rule="evenodd" clip-rule="evenodd" fill="none" stroke="rgb(25, 25, 25)" stroke-width="2" d="M198.654,272.526
		c0.332,1.051,1.068,1.9,1.512,2.898c0.888,22.295,1.896,45.659,3.725,68.043c2.874,35.191,21.011,71.002,30.749,105.669
		c1.973,7.024,1.336,16.313,4.856,19.455"/>
	<path fill-rule="evenodd" clip-rule="evenodd" fill="none" stroke="rgb(25, 25, 25)" stroke-width="2" d="M239.496,468.591
		c7.032-7.614,10.761-18.504,13.466-28.421"/>
	<path fill-rule="evenodd" clip-rule="evenodd" fill="none" stroke="rgb(25, 25, 25)" stroke-width="2" d="M252.962,440.17
		c-7.167-12.604-14.707-25.892-15.182-40.736"/>
	<path fill-rule="evenodd" clip-rule="evenodd" fill="none" stroke="rgb(25, 25, 25)" stroke-width="2" d="M237.78,399.434
		c-4.508-2.18-5.029-8.092-5.708-12.545"/>
	<path fill-rule="evenodd" clip-rule="evenodd" fill="none" stroke="rgb(25, 25, 25)" stroke-width="2" d="M277.648,246.309
		c16.872,9.143,34.899,15.691,52.54,22.697"/>
	<path fill-rule="evenodd" clip-rule="evenodd" fill="none" stroke="rgb(25, 25, 25)" stroke-width="2" d="M330.188,269.006
		c5.348-0.172,11.533,1.555,16.195,4.259"/>
	<path fill-rule="evenodd" clip-rule="evenodd" fill="none" stroke="rgb(25, 25, 25)" stroke-width="2" d="M346.383,273.265
		c4.121-1.103,9.06-0.716,12.923,0.986"/>
	<path fill-rule="evenodd" clip-rule="evenodd" fill="none" stroke="rgb(25, 25, 25)" stroke-width="2" d="M359.306,274.251
		c19.786-27.75,47.14-53.821,82.153-59.99"/>
	<path fill-rule="evenodd" clip-rule="evenodd" fill="none" stroke="rgb(25, 25, 25)" stroke-width="2" d="M441.459,214.262
		c-15.746-23.529-42.907-13.821-64.828-5.543c3.001-16.939,17.981-29.864,29.119-42.439"/>
	<path fill-rule="evenodd" clip-rule="evenodd" fill="none" stroke="rgb(25, 25, 25)" stroke-width="2" d="M445.576,154.207
		c-5.322,18.383,23.336,29.903,34.295,47.689c2.391,3.88,8.487,15.151,14.818,18.806"/>
	<path fill-rule="evenodd" clip-rule="evenodd" fill="none" stroke="rgb(25, 25, 25)" stroke-width="2" d="M494.689,220.702
		c-2.438-9.718,7.821-14.935,7.021-24.345c-3.142-7.063-11.929-1.447-16.558-5.284c2.194-4.3,8.885-3.533,12.062-7.147
		c-2.211-4.775-9.253-3.037-12.966-6.136c0.41-6.25,1.609-12.958,1.478-19.649"/>
	<path fill-rule="evenodd" clip-rule="evenodd" fill="none" stroke="rgb(25, 25, 25)" stroke-width="2" d="M441.459,214.262
		c3.251,1.465,7.324,2.782,8.634,6.428"/>
	<path fill-rule="evenodd" clip-rule="evenodd" fill="none" stroke="rgb(25, 25, 25)" stroke-width="2" d="M450.093,220.69
		c16.243,9.674,37.525,49.901,56.187,41.623c3.337-1.481,6.083-4.275,8.983-5.826c14.367-7.683,25.677-3.04,44.655,1.817
		c-0.427-14.749-4.233-32.38,4.256-45.769c18.24,6.915,39.907,28.817,60.176,12.81c-12.394-4.319-24.392-13.73-35.538-17.174
		c-19.302-5.964-27.75-21.771-44.443-28.584c-2.571-1.048-8.268-4.744-11.981-4.626"/>
	<path fill-rule="evenodd" clip-rule="evenodd" fill="none" stroke="rgb(25, 25, 25)" stroke-width="2" d="M532.387,174.96
		c-0.348,9.307,3.817,18.791,0.788,27.079c-3.688,10.094-17.637,14.777-18.894,28.365c-0.338,0.1-0.678,0.198-1.016,0.297
		c-0.412-0.234-0.771-0.464-1.091-0.691c-3.239-13.328-6.138-29.521,4.366-40.655c-1.418-2.209-5.053-1.91-6.276-4.344
		c1.041-3.202,5.063-3.92,6.9-6.565c-3.206-6.364-18.739-4.076-14.499-15.36"/>
	<path fill-rule="evenodd" clip-rule="evenodd" fill="none" stroke="rgb(25, 25, 25)" stroke-width="2" d="M494.689,220.702
		c1.132,3.045,0.614,6.472,2.147,9.436"/>
	<path fill-rule="evenodd" clip-rule="evenodd" fill="none" stroke="rgb(25, 25, 25)" stroke-width="2" d="M237.78,399.434
		c5.085-21.212,5.644-43.265,9.688-64.686"/>
	<path fill-rule="evenodd" clip-rule="evenodd" fill="none" stroke="rgb(25, 25, 25)" stroke-width="2" d="M247.467,334.749
		c12.03-28.51,19.172-59.276,30.181-88.439"/>
	<path fill-rule="evenodd" clip-rule="evenodd" fill="none" stroke="rgb(25, 25, 25)" stroke-width="2" d="M277.648,246.309
		c6.253-33.125,29.389-60.351,36.528-92.814"/>
	<path fill-rule="evenodd" clip-rule="evenodd" fill="none" stroke="rgb(25, 25, 25)" stroke-width="2" d="M532.387,174.96
		c-8.646-6.364-19.734-8.566-29.721-11.875"/>
	<path fill-rule="evenodd" clip-rule="evenodd" fill="none" stroke="rgb(25, 25, 25)" stroke-width="2" d="M103.211,216.304
		c0.209,4.572,3.591,8.516,3.132,13.373c0.604,0.667,1.32,1.442,2.26,1.919c2.599-4.69,2.519-11.295,1.816-16.64"/>
	<path fill-rule="evenodd" clip-rule="evenodd" fill="none" stroke="rgb(25, 25, 25)" stroke-width="2" d="M319.339,331.787
		c7.22-1.942,14.447-6.323,20.611-10.721"/>
	<path fill-rule="evenodd" clip-rule="evenodd" fill="none" stroke="rgb(25, 25, 25)" stroke-width="2" d="M339.95,321.066
		c6.471-16.878,20.586-30.916,34.157-42.464"/>
	<path fill-rule="evenodd" clip-rule="evenodd" fill="none" stroke="rgb(25, 25, 25)" stroke-width="2" d="M374.107,278.602
		c12.295-14.901,24.541-30.808,39.456-43.416"/>
	<path fill-rule="evenodd" clip-rule="evenodd" fill="none" stroke="rgb(25, 25, 25)" stroke-width="2" d="M413.563,235.187
		c8.12-11.515,23.729-13.383,36.529-14.497"/>
	<path fill-rule="evenodd" clip-rule="evenodd" fill="none" stroke="rgb(25, 25, 25)" stroke-width="2" d="M374.107,278.602
		c14.274,2.986,28.75-3.226,42.893-4.703c-1.354-11.316-5.353-23.398-1.042-34.661c-0.003-1.515-1.078-2.72-2.087-3.728
		c-0.103-0.108-0.205-0.216-0.308-0.324"/>
	<path fill-rule="evenodd" clip-rule="evenodd" fill="none" stroke="rgb(25, 25, 25)" stroke-width="2" d="M273.727,391.595
		c4.29-2.456,7.071-7.093,7.434-12.018"/>
	<path fill-rule="evenodd" clip-rule="evenodd" fill="none" stroke="rgb(25, 25, 25)" stroke-width="2" d="M281.161,379.578
		c-6.767-19.307-11.259-41.365-23.317-59.208"/>
	<path fill-rule="evenodd" clip-rule="evenodd" fill="none" stroke="rgb(25, 25, 25)" stroke-width="2" d="M281.161,379.578
		c8.312-16.268,19.797-31.123,32.522-44.275"/>
	<path fill-rule="evenodd" clip-rule="evenodd" fill="none" stroke="rgb(25, 25, 25)" stroke-width="2" d="M313.683,335.302
		c-1.892-22.474,10.677-44.667,16.505-66.296"/>
	<path fill-rule="evenodd" clip-rule="evenodd" fill="none" stroke="rgb(25, 25, 25)" stroke-width="2" d="M313.683,335.302
		c2.19-0.557,4.265-1.697,5.656-3.516"/>
	<path fill-rule="evenodd" clip-rule="evenodd" fill="none" stroke="rgb(25, 25, 25)" stroke-width="2" d="M319.339,331.787
		c2.936-11.889,15.893-18.588,18.983-30.984"/>
	<path fill-rule="evenodd" clip-rule="evenodd" fill="none" stroke="rgb(25, 25, 25)" stroke-width="2" d="M346.383,273.265
		c-2.46,9.284-8.009,17.75-8.061,27.537"/>
	<path fill-rule="evenodd" clip-rule="evenodd" fill="none" stroke="rgb(25, 25, 25)" stroke-width="2" d="M338.322,300.802
		c9.663-5.517,14.816-17.45,20.983-26.551"/>
	<path fill-rule="evenodd" clip-rule="evenodd" fill="none" stroke="rgb(25, 25, 25)" stroke-width="2" d="M252.962,440.17
		c7.651-15.567,14.02-32.38,20.765-48.575"/>
	<path fill-rule="evenodd" clip-rule="evenodd" fill="none" stroke="rgb(25, 25, 25)" stroke-width="2" d="M273.727,391.595
		c-7.093-18.683-12.037-42.201-26.26-56.847"/>
	<path fill-rule="evenodd" clip-rule="evenodd" fill="none" stroke="rgb(25, 25, 25)" stroke-width="2" d="M144.989,46.37
		c2.39,7.469,5.215,15.806,2.05,23.421c13.215,7.619,27.741,14.061,38.547,25.58c1.079,0.399,2.73,1.515,3.685,0.389
		c-2.514-10.25-10.577-16.597-16.92-24.485c-8.516-10.588-15.442-24.757-27.247-29.104C144.475,43.507,145.094,44.968,144.989,46.37
		"/>
</g>
</svg>
