<?xml version="1.0" encoding="utf-8"?>
<!-- Generator: Adobe Illustrator 12.0.0, SVG Export Plug-In . SVG Version: 6.00 Build 51448)  -->
<!DOCTYPE svg PUBLIC "-//W3C//DTD SVG 1.1//EN" "http://www.w3.org/Graphics/SVG/1.1/DTD/svg11.dtd" [
	<!ENTITY ns_svg "http://www.w3.org/2000/svg">
	<!ENTITY ns_xlink "http://www.w3.org/1999/xlink">
]>
<svg  version="1.1" id="Layer_1" xmlns="&ns_svg;" xmlns:xlink="&ns_xlink;" width="551.222" height="532.397"
	 viewBox="0 0 551.222 532.397" overflow="visible" enable-background="new 0 0 551.222 532.397" xml:space="preserve">
<path fill-rule="evenodd" clip-rule="evenodd" fill="#FFFFFF" d="M466.362,0c0.252,1.288,0.162,2.373-0.367,3.301
	c0.958,5.406-19.431,29.259-21.716,30.703c0.53,2.793-2.511,3.549-2.752,6.236c-0.192,2.152,0.102,3.541-0.917,5.137
	c-1.646,1.656-3.328,3.275-4.953,4.953c-2.212,0.504-3.826,2.365-5.136,3.668c-0.562,0.56-1.273,0.926-1.834,1.468
	c-0.61,0.589-0.834,1.474-1.468,2.019c-0.666,0.57-1.582,0.697-2.201,1.283c-0.747,0.709-1.044,1.836-1.835,2.568
	c-1.409,1.305-3.288,1.907-4.585,3.302c-0.483,0.519-0.604,1.312-1.101,1.835c-0.281,0.295-0.765,0.104-1.102,0.366
	c-0.228,0.179-0.546,0.901-0.917,1.284c-1.532,1.581-2.832,2.771-4.402,4.586c-3.819,4.414-8.007,8.844-10.639,13.941
	c-0.478,0.924-1.294,1.764-1.651,2.567c-0.165,0.372,0.023,0.91-0.184,1.284c-1.365,2.467-3.66,4.578-3.852,7.705
	c0.987,0.176,1.89-0.871,2.567-1.469c4.134-3.639,6.499-9.035,10.272-12.84c1.204-1.213,2.371-2.631,3.485-3.669
	c2.494-2.32,5.337-3.88,8.071-5.87c1.554-1.13,2.628-1.998,4.402-2.935c2.297-1.213,4.607-2.991,7.338-3.669
	c1.529-2.369,4.684-1.529,7.521-2.568c1.474-0.539,2.662-1.535,4.219-1.834c4.247-0.815,8.717,0.746,14.125,0
	c1.104,0.426,2.137,1.443,3.485,1.468c0.688,0.013,1.346-0.491,2.018-0.55c8.878-0.777,15.393,2.765,21.646,4.586
	c0.766,1.947,0.35,2.109-0.184,4.035c0.541,1.08,3.614,1.01,4.035,0.184c0.047-0.902-1.442-0.27-1.65-0.918
	c-0.099-0.709,0.327-0.895,0.183-1.65c3.715-0.656,9.15-0.189,11.007,2.201c0.653-0.665,1.5,0.109,2.385,0
	c0.784-0.097,1.38-0.742,2.201-0.734c0.562,0.006,0.914,0.613,1.65,0.734c0.399,0.065,0.749-0.275,1.101-0.184
	c0.713,0.188,1.372,0.76,2.018,0.917c3.25,0.794,6.858,1.249,8.438,3.669c-1.397,0.879-3.445,1.147-5.319,1.284
	c-5.034,0.366-8.993,0.593-13.024,1.284c-1.132,1.333-3.632,1.297-5.503,2.201c-1.524,0.736-2.588,2.423-3.669,3.484
	c-0.375,0.369-1.077,0.566-1.467,0.918c-0.922,0.83-1.519,1.963-2.385,2.752c-3.083,2.803-6.175,5.555-9.355,7.887
	c-1.14,0.836-2.372,1.363-3.669,2.201c-1.334,0.863-2.375,2.084-3.668,3.119c-0.588,0.471-1.389,0.613-2.019,1.1
	c-0.544,0.422-0.897,1.211-1.467,1.652c-0.474,0.365-1.193,0.365-1.651,0.732c-1.349,1.081-2.258,2.609-3.669,3.486
	c-0.616,0.383-1.271,0.385-1.834,0.733c-1.271,0.784-2.225,2.095-3.485,2.935c-1.757,1.17-4.608,1.79-6.787,2.936
	c-1.087,0.571-2.13,1.519-3.118,1.834c-0.929,0.297-1.969,0.143-2.935,0.367c-0.832,0.192-1.59,0.717-2.385,0.917
	c-3.379,0.851-6.621,0.796-10.64,1.101c-2.497,0.189-5.251,0.729-8.071,0.734c-2.731,0.004-5.584-0.45-8.071-0.734
	c-3.42-0.391-7.149-0.991-10.272-1.834c-2.68-0.724-5.013-2.055-8.07-2.018c-0.493,1.157-0.867,2.435-2.385,2.567
	c-0.376,2.499-1.574,4.173-3.485,5.136c-0.253,1.672-1.699,2.732-2.385,4.219c-0.354,0.77-0.327,1.779-0.733,2.568
	c-0.634,1.23-1.834,2.115-2.568,3.303c-2.322,3.75-3.116,8.645-4.953,12.84c-1.139,2.603-3.3,5.283-3.485,8.438
	c2.894,0.732,5.419-1.832,8.438-2.751c1.533-0.466,3.322-0.671,5.136-0.917c1.681-0.229,3.497-0.756,5.137-0.918
	c5.67-0.557,10.655,2.4,15.041,4.036c1.839,1.83,3.675,3.663,6.054,4.952c2.464-1.811,5.042-3.492,6.42-6.42
	c0.413-0.875,0.345-2.113,0.918-2.935c0.575-0.826,1.665-0.989,2.935-1.468c2.104-0.793,3.364-2.047,6.054-2.018
	c4.338-2.266,9.585-3.621,13.023-6.787c2.88,0.523,5.672,0.021,8.071,0.918c3.626-0.142,6.937,0.033,8.805,1.65
	c2.23-0.095,3.983,0.69,5.687,0.551c1.227-0.102,1.944-1.068,3.118-1.469c1.424-0.484,2.863-0.488,4.402-0.732
	c4.212-2.238,6.718-8.103,13.024-8.622c2.911-0.239,6.646,0.946,10.272,1.101c2.068,0.088,4.483-0.404,6.42,0
	c0.79,0.164,1.505,0.976,2.568,1.467c2.148,0.994,4.429,1.123,5.503,2.568c3.035,0.634,5.675,1.663,7.704,3.303
	c1.276,0.342,2.563-0.201,3.853-0.184c2.179,0.029,4.313,0.673,6.604,0.917c2.898,0.309,6.59-0.304,8.988,0
	c5.167,0.653,10.745-0.081,14.491,2.384c-3.74,3.59-9.934,2.962-15.408,4.22c-3.45,0.792-6.896,2.179-10.272,2.567
	c-3.48,0.402-6.348,0.926-8.805,2.019c-3.504,1.558-5.51,4.724-8.622,6.421c-0.11,0.438-0.264,0.836-0.184,1.467
	c-2.234,1.129-2.572,4.153-4.035,6.053c0.002,4.354-2.229,6.598-3.853,9.172c-0.452,0.718-0.501,1.623-0.917,2.201
	c-0.456,0.636-1.452,0.875-2.201,1.651c-0.947,0.981-1.538,2.417-2.385,3.118c-0.683,0.565-1.641,0.736-2.201,1.284
	c-0.376,0.357-0.603,0.865-0.917,1.284c-4.558,1.863-7.378,5.463-11.373,7.888c-1.258,0.332-2.622,0.558-3.485,1.284
	c-2.609-0.237-3.725,0.763-5.87,1.283c-1.16,0.283-2.094,0.106-2.935,0.551c-1.659,0.878-2.644,2.494-4.035,3.485
	c-0.2,0.142-0.618,0.028-0.918,0.184c-0.292,0.151-0.278,0.362-0.55,0.55c-1.787,1.238-4.189,2.043-6.42,2.936
	c-2.381,0.953-4.572,1.525-7.338,2.385c-4.119,1.279-10.041,2.146-15.775,1.834c-3.857-0.209-7.619-1.034-11.006-1.283
	c-2.154-1.169-4.955-1.623-8.255-2.202c-4.396-0.772-9.12-0.261-12.29,0.55c-3.068,0.787-7.308,1.473-7.888,4.22
	c1.838,0.093,4.191,0.118,6.787-0.184c1.157-0.134,2.205-0.683,3.302-0.733c2.94-0.135,5.59,0.832,7.338,1.283
	c0.708,0.184,1.541,0.006,2.201,0.184c1.354,0.367,2.008,1.922,3.668,1.468c1.453,1.569,4.127,2.665,5.32,4.22
	c0.399,0.521,0.379,1.293,0.733,1.834c0.854,1.305,2.141,2.027,3.118,3.118c0,0.55,0,1.101,0,1.651
	c1.535,4.029,2.505,8.623,5.687,11.006c1.091,3.618,4.301,5.116,5.503,8.622c-5.293-0.445-8.34-5.807-14.124-6.236
	c-1.486-0.111-3.574-0.252-5.319,0c-0.663,0.094-1.241,0.607-2.019,0.732c-0.653,0.107-1.473-0.131-2.201,0
	c-0.653,0.119-1.3,0.621-2.018,0.734c-1.683,0.266-3.516-0.113-5.136,0.367c-1.58,0.469-2.562,1.838-4.036,2.752
	c-3.933,1.373-9.213,1.346-13.207,0.916c-0.854,5.691,4.228,8.607,5.319,13.574c-1.558,0.549-2.964-0.432-4.402-0.549
	c-1.829-0.15-3.756,0.42-5.503,0.365c-1.741-0.053-3.275-0.773-4.77-0.549c-2.142,0.32-3.909,1.857-6.053,2.201
	c-6.61,1.061-8.393-3.297-14.125-2.752c-1.107,1.736-0.623,3.877-0.917,5.869c-0.939,6.361-3.694,12.873-3.118,19.261
	c3.385-0.779,6.518,0.137,9.905,0.367c2.808,1.84,5.269,4.025,7.337,6.604c-0.593,0.506-1.367,0.834-2.201,1.1
	c-4.856,6.088-10.377,11.514-18.71,14.125c-1.59,7.383-1.556,15.441-0.367,22.93c2.401-1.193,2.378-4.074,4.219-5.688
	c0.505-0.441,1.268-0.67,1.835-1.1c1.136-0.861,1.89-2.271,3.118-3.119c0.595-0.41,1.418-0.512,2.018-0.916
	c1.358-0.916,2.193-2.539,3.485-3.303c0.486-0.287,1.144-0.293,1.651-0.551c3.017-1.525,5.743-3.703,8.621-5.502
	c4.399-0.541,8.285-1.27,11.924-2.752c1.607-0.654,3.092-1.947,4.586-2.201c1.552-0.264,3.084,0.33,4.585,0
	c1.698-0.373,2.894-1.91,4.22-2.568c0.628-0.311,1.508-0.408,2.201-0.734c1.159-0.545,2.25-1.535,3.302-1.834
	c1.266-0.359,2.584,0.172,4.219,0c1.094-0.115,3.728-1.143,4.77-1.65c1.12-0.547,2.479-1.834,3.669-2.752
	c1.396-1.076,2.935-2.268,2.935-3.484c0-2.293-4.971-4.348-5.687-6.42c-1.066-0.279-1.65-1.041-2.752-1.285
	c-0.737-1.035-1.259-2.287-2.567-2.752c-0.157-2.145-2.343-3.246-3.302-4.951c-0.516-0.918-0.572-2.158-1.101-3.302
	c-0.505-1.09-1.374-2.1-2.019-3.301c-0.577-1.078-0.738-2.404-1.283-3.303c-1.587-2.615-5.445-4.324-3.853-7.889
	c3.36,0.492,4.739,2.967,6.236,5.32c2.524,0.699,2.695,4.131,5.687,4.402c1.932,0.176,4.045-1.166,6.237-0.916
	c0.606,0.068,1.065,0.607,1.65,0.732c1.088,0.234,2.23-0.188,3.119,0c1.456,0.311,2.554,1.699,4.035,2.201
	c0.325,2.049,0.973,4.257,0.733,6.238c-0.073,0.611-0.558,1.043-0.733,1.65c-0.882,3.053-0.94,7.129-2.201,9.355
	c0.075,0.779,0.935,0.777,0.917,1.65c-0.146,3.072,1.281,5.523,2.568,7.703c2.564-0.17,3.379,2.391,5.503,2.385
	c0.714,0,1.123-0.623,1.834-0.732c1.572-0.244,3.106,0.604,5.137,0.367c0.655-0.141,0.124-1.467,0.917-1.469
	c0.394-0.34,1.344-0.123,2.018-0.184c5.078-2.748,13.068-2.584,18.527-4.951c3.816-0.676,7.399,1.988,9.905-0.551
	c1.692,0.436,3.186-0.98,4.586-1.285c2.123-0.461,4.15,0.051,5.87-1.1c1.587,0.645,4.276,1.08,5.87,0.184
	c5.473,1.008,7.397,5.564,10.639,8.805c-0.048,2.801,1.327,4.748,0.917,7.154c-0.491,2.887-4.104,5.568-5.869,8.805
	c-1.237,2.268-1.313,4.029-3.119,5.318c-0.672,2.141-1.989,3.637-3.485,4.953c-0.064,2.316-1.989,2.693-3.118,4.035
	c-0.504,0.6-0.678,1.941-1.284,3.119c-0.381,0.74-1.091,1.246-1.284,1.834c-0.627,1.914-0.716,3.469-1.467,4.953
	c-0.573,1.131-1.79,1.727-2.568,2.752c-0.314,0.414-0.253,1.006-0.551,1.467c-1.571,2.436-4.779,3.641-6.42,5.871
	c-1.033,1.404-1.586,3.354-2.751,4.402c-1.055,0.947-2.822,1.311-3.485,2.566c-0.601,1.139-0.077,2.752-1.651,2.936
	c0.651,1.947-1.092,2.725-1.468,4.219c-0.611,0-1.223,0-1.834,0c-0.989,2.924-2.49,5.336-3.118,8.621
	c-1.536,1.154-2.942,3.817-5.319,4.222c-1.956,0.332-4.212-0.693-6.054,0.182c-3.324-2.301-7.833-3.417-10.822-6.054
	c-3.006-0.051-4.244-1.869-5.87-3.301c-1.794-0.217-3.816-1.4-5.87-1.469c-0.136,0.844-0.505,1.453-0.733,2.201
	c0.97,0.734,1.949,1.951,3.668,2.752c1.107,0.516,2.629,0.195,3.485,0.734c1.365,0.857,1.112,3.271,0.367,4.954
	c-1.823,0.988-2.208,3.416-3.302,5.135c-1.748,0.088-2.612,1.057-3.485,2.018c-0.169,3.746-1.877,5.949-3.853,7.889
	c-0.439,1.684-0.624,2.924-2.018,3.852c-0.753,0.502-1.79,0.344-2.385,0.918c-1.391,1.342-1.524,4.186-2.751,5.686
	c-1.61,0.574-2.822-0.352-4.586-0.184c-0.776-0.691-1.688-1.248-2.752-1.65c-1.42-1.82-2.824-3.656-4.402-5.32
	c-1.681-3.393-3.675-6.475-5.503-9.721c-0.351-2.033-1.615-3.154-2.935-4.219c0.146-1.115-0.893-2.002-0.734-3.303
	c0.09-0.736,0.733-0.738,0.917-1.283c1.146-3.39-1.113-4.995-2.567-6.239c-0.519-0.711,0.604-1.275,0-2.018
	c-1.729,0.229-2.87,1.043-3.485,2.385c-1.152,0.133-1.938,0.631-2.568,1.285c-1.183-0.143-1.807,0.271-2.935,0.184
	c-1.119,2.573-2.824,3.058-5.503,4.036c-0.645,0.234-1.13,0.809-1.651,0.916c-5.08,1.064-10.106-2.424-14.308-0.549
	c-0.143,0.998,0.281,1.43,0.55,2.018c0.082,0.693-0.958,0.264-1.101,0.732c0.231,2.889,3.618,2.619,5.32,4.037
	c0.378-1.213,1.637-1.543,2.935-1.836c0.407,2.125,1.657,4.762,2.385,7.154c0.417,0.623,1.341,0.738,2.018,1.102
	c0.092,0.764,0.642,1.07,0.733,1.834c5.118,2.404,8.637,6.404,13.024,9.539c0.653,2.281,2.71,3.158,4.586,4.219
	c0.073,1.531,1.474,2.537,1.834,4.035c0.099,0.408-0.15,1.035,0,1.467c0.484,1.393,1.685,2.709,2.018,4.221
	c0.081,0.367-0.279,0.779-0.183,1.1c0.341,1.133,1.472,2.113,1.65,3.119c0.199,1.123,0.026,2.979-0.184,3.668
	c-0.459,1.514-2.136,2.154-3.485,3.119c-1.724,1.23-2.488,3.301-3.852,4.219c-2.521,1.412-5.95,1.268-8.438,2.752
	c-0.706,0.42-1.127,1.318-1.834,1.65c-0.835,0.391-1.728,0.146-2.568,0.367c-2.892,0.754-5.581,3.121-6.971,5.135
	c1.337,5.117,4.176,8.939,6.971,12.658c1.916,2.547,4.327,4.902,6.42,7.338c0.559,2.438,2.777,3.215,3.853,5.135
	c-0.387,1.693,10.103,14.051,10.64,15.592c2.849,2.635,5.217,5.854,7.521,8.988c2.709,3.689,6.523,7.396,8.071,11.924
	c0.636,0.838,1.974,1.621,2.201,2.752c0.13,0.646,13.662,22.346,14.858,22.93c2.013,4.713,5.298,8.152,7.521,12.656
	c-6.543,0-13.085,0-19.628,0c-1.037-1.281-1.63-2.801-2.385-4.219c-0.799-1.504-1.925-2.471-2.751-3.852
	c-0.688-1.15-0.956-2.535-1.651-3.67c-0.651-1.063-1.788-1.887-2.385-2.934c-0.658-1.158-0.945-2.385-1.65-3.486
	c-0.641-1-1.587-1.887-2.201-2.936c-1.028-1.754-1.463-3.742-2.752-5.318c-2.392-2.926-4.741-5.943-6.97-9.172
	c-2.051-2.971-4.019-5.572-6.237-8.805c-0.976-1.422-2.28-2.492-3.302-3.854c-2-2.662-3.305-5.75-6.237-7.152
	c-5.943-7.551-12.274-15.027-19.627-22.379c-2.396-2.396-4.731-4.598-8.071-6.238c-1.436-0.703-3.114-1.584-4.77-2.385
	c-2.071-1-3.837-2.584-6.604-2.201c-1.567,0.217-3.093,1.494-4.952,1.652c-0.983-0.486-1.542-1.395-2.936-1.469
	c-0.623-1.488-2.388-2.488-3.669-4.035c-0.689-0.834-1.045-2.018-1.834-2.752c-1.267-1.176-4.8-2.729-6.42-3.484
	c-1.576-0.736-3.505-1.561-5.32-2.385c-1.795-0.816-4.297-2.078-5.687-2.018c-1.401,0.061-2.003,1.045-3.302,1.65
	c-2.701,1.262-6.416,2.102-8.988,3.852c-2.475,2.615-6.352,3.99-8.621,6.787c-0.576,0.711-0.66,1.896-1.834,2.018
	c-2.418-3.67,0.409-9.758-1.101-13.939c-3.067,0.539-5.623,1.592-7.521,3.301c0.846,2.84,2.351,6.938,1.468,10.457
	c-0.482,1.922-1.65,3.35-2.568,4.586c-0.654,7.246,4.16,10.311,6.604,15.041c1.446,1.121,3.424,1.713,4.402,3.301
	c1.04,0.307,2.227,0.465,2.019,2.018c-1.646,1.381-5.595,0.563-7.338-0.182c-7.348,0.381-13.915,0.604-20.729,1.1
	c-0.796,1.1-1.639,2.152-1.65,4.035c-2.709,3.369-2.393,7.887-3.118,12.291c0.237,1.713,0.421,3.469,0.183,5.318
	c-0.107,0.84-0.677,1.57-0.732,2.385c-0.049,0.699,0.306,1.578,0.366,2.385c0.178,2.377-0.194,5.195,0,7.521
	c0.126,1.52,0.629,2.869,0.366,4.402c-0.254,1.488-0.414,18.707-0.183,19.811c0.335,1.598,1.831,3.121,1.651,4.953
	c-6.971,0-13.941,0-20.912,0c-2.402-0.631-3.066-2.58-4.586-4.586c-0.959-1.266-2.533-1.936-3.485-3.117
	c-0.358-0.445-0.499-1.227-0.917-1.836c-0.33-0.48-1.066-0.881-1.284-1.283c-0.261-0.482-0.097-1.176-0.366-1.65
	c-0.713-1.25-3.197-4.191-4.77-2.936c-0.764,3.184-2.414,6.072-2.201,9.355c0.15,2.326,1.742,4.162,2.385,6.053
	c-25.926,0-51.852,0-77.777,0c1.93-3.084,4.224-5.805,8.255-6.787c1.034-1.412,2.628-2.174,4.402-3.301
	c2.365-1.504,2.093-2.129,1.284-5.688c-0.292-1.285-1.174-2.297-1.65-3.484c-0.657-1.637-0.777-3.514-1.285-4.77
	c-0.532-1.318-1.313-2.721-2.018-4.035c-1.096-2.047-2.264-4.305-3.301-5.871c-1.808-2.729-6.527-3.627-8.072-6.053
	c-1.199-0.084-1.957-0.611-2.935-0.918c-0.863-0.545-1.274-2.563-2.567-3.117c-2.4-1.033-5.883,0.951-8.806,0.732
	c-1.477-0.109-2.455-0.701-4.586-0.916c-3.344-0.338-6.007-1.725-8.071-0.184c-1.465,6.617-5.251,11.125-9.722,15.041
	c-2.753,2.412-5.108,4.846-9.172,6.053c-4.215,4.295-9.734,6.836-14.491,10.457c-1.495,1.137-2.217,2.682-3.485,4.035
	c-0.554,0.592-1.44,0.895-2.018,1.467c-2.265,2.246-4.024,4.988-6.054,7.338c-0.855,0-1.712,0-2.568,0
	c0.109-2.26,2.877-3.096,3.119-5.502c0.141-1.404-0.959-4.078-1.284-6.238c-0.382-2.535-0.255-5.23-0.917-7.52
	c-2.994,2.744-6.033,6.08-8.621,9.354c-0.902,1.143-1.885,2.023-2.752,3.119c-1.52,1.92-2.4,4.654-3.853,6.787
	c-17.12,0-34.241,0-51.361,0c0.05-1.418,1.421-1.514,2.201-2.201c1.776,2.045,4.698-0.121,3.669-2.385
	c0.465-0.451,1.705-0.479,2.385-0.184c1.037-1.164,1.564-2.838,2.201-4.402c-2.67-3.141-0.94-4.881,1.467-7.338
	c1.98-2.02,3.706-3.615,4.953-5.686c3.816-2.23,5.788-5.088,8.988-7.889c3.813-3.334,6.795-6.191,8.805-11.189
	c0.923-2.295,1.711-5.221,3.302-6.787c1.593-1.566,6.608-3.605,8.806-4.219c1.465-0.408,2.973-0.174,4.402-0.549
	c1.354-0.357,2.615-1.328,4.035-1.836c8.945-3.191,20.857-3.619,28.982-7.52c-1.343-0.766-2.568,0.439-4.035,0.732
	c-2.621,0.523-6.11,0.623-9.355,0.918c-2.169,0.197-4.281,0.834-6.053,0.734c-4.543-0.256-7.294-2.686-9.355-5.871
	c-2.568-1.467-7.199-0.873-9.906-2.201c1.414-3.111,7.479-1.57,9.355-4.219c-0.064-1.766,0.252-2.871,0.367-4.035
	c2.732-0.018,4.15-1.863,5.869-2.752c0.455-0.234,1.09-0.127,1.469-0.367c0.548-0.35,0.778-1.117,1.283-1.467
	c0.717-0.498,1.813-0.602,2.568-1.102c0.739-0.488,1.271-1.211,2.018-1.65c1.176-0.691,2.584-0.775,4.035-1.283
	c1.307-0.457,2.24-1.412,3.486-1.652c1.541-0.295,3.271,0.063,5.318-0.184c1.617-0.193,3.646-3.678,4.586-4.951
	c0.543-0.736,1.264-1.682,1.835-2.568c0.545-0.848,1.528-2.309,1.651-2.936c0.504-2.576-1.223-3.971-2.018-5.686
	c-1.846-0.418-4.061-0.465-5.871-0.918c-0.598-1.289-2.055-2.373-2.201-3.852c-0.176-1.779,1.354-3.85,1.835-4.953
	c1.692-3.889,1.908-9.514,2.751-13.574c0.543-0.926,2.233-0.701,2.568-1.834c-1.14-2.313-2.984,0.676-3.852,1.467
	c-0.226-1.303-0.357-2.699-0.367-4.219c2.546,0,4.346-0.924,5.869-1.834c1.629-0.975,2.782-2.252,4.22-3.119
	c1.534-0.924,3.19-1.277,5.319-2.018c1.979-0.688,3.929-1.461,6.236-1.65c1.876-0.154,4.172,0.371,6.421,0.367
	c1.444-0.004,2.931-0.504,4.22-0.367c1.408,0.148,2.35,0.756,4.035,0.916c2.984,0.285,6.193,1.029,8.805,1.836
	c1.795,0.555,3.475,2.383,5.503,3.117c2.267,0.82,3.676,1.223,4.402,3.119c0.731,1.908-0.163,4.135,0.367,6.42
	c0.178,0.768,1.127,1.654,1.834,2.385c1.606,1.658,4.903,6.027,6.971,6.236c1.026,0.105,2.083-0.773,3.118-0.916
	c1.168-0.162,2.674,0.109,4.219,0c1.585-0.113,3.262-0.563,4.586-0.367c3.045,0.449,5.767,2.418,9.172,2.018
	c1.193-0.141,2.219-0.789,3.303-0.918c2.484-0.293,3.942,0.137,5.686-0.916c-0.746-2.803-3.949-2.756-4.953-4.953
	c-0.331-0.727-0.125-1.723-0.366-2.568c-0.373-1.311-1.425-2.375-1.651-3.303c-1.57-6.432,3.361-10.443,3.669-15.775
	c0.073-1.268-0.679-2.32,0.184-3.668c1.845-0.047,2.083,1.615,3.853,1.834c4.302,0.533,9.955-3.008,14.491-0.549
	c2.546-0.586,3.945,1.059,6.236,1.283c2.144,1.402,3.836,3.258,5.87,4.77c0.598,1.809,2.24,2.371,2.936,4.219
	c0.721,1.918,0.576,4.32,1.1,6.604c0.539,2.354,1.607,4.676,1.835,6.971c1.661,0.07,2.031-1.148,3.118-1.65
	c4.938-0.139,8.316-1.834,12.84-2.385c0.305-1.959-1.979-2.932-2.384-4.586c-0.177-0.721,0.149-1.674,0-2.385
	c-0.287-1.361-1.433-2.559-1.651-4.035c-0.24-1.625,0.051-2.908-0.184-4.586c5.402-1.621,10.971-3.029,17.61-2.018
	c3.02,1.26,6.276,2.283,8.438,4.402c0.992,2.125,2.521,3.715,2.934,6.42c3.863,2.52,10.084,0.854,14.859,2.018
	c5.825,1.418,10.205,5.773,16.325,6.053c0.122-1.854-1.088-1.107-2.018-1.283c-2.102-1.873-2.988-4.961-5.87-6.055
	c-1.785-3.064-5.249-5.293-8.621-8.254c-2.764-2.426-5.504-5.457-7.154-7.887c-2.082-3.066-3.577-7.23-6.604-8.256
	c-2.51-0.85-4.234,0.006-5.687,0.918c-3.019,1.895-6.222,4.707-10.823,5.137c-2.836,0.264-7.627,0.154-9.904-0.551
	c-4.003-1.238-8.278-3.498-10.64-6.236c-1.229-1.426-1.235-2.934-3.118-4.221c-1.319-0.148-2.974,0.039-3.853-0.549
	c0.37-1.391,1.894-1.215,2.935-1.652c0.94-0.393,1.738-1.264,2.752-1.65c0.758-0.287,1.717-0.17,2.568-0.551
	c2.058-0.921,3.18-3.03,4.952-4.036c2.409-1.367,7.482-2.709,9.905-1.1c4.736-2.211,9.055,1.639,12.291,3.301
	c-0.052-1.377-1.545-2.842-2.936-3.484c-4.1-5.684-9.73-9.836-13.758-15.592c-1.07-0.703-2.02-1.527-2.935-2.385
	c-2.093-0.203-3.155-1.879-4.586-2.201c-2.612-0.59-6.756,0.969-8.622,2.568c-0.979,0.838-1.811,2.42-2.751,3.668
	c-2.206,2.93-4.813,5.527-7.337,7.705c-2.734,1.021-4.838,2.139-7.154,3.484c-2.767,1.605-5.585,1.352-8.805,1.834
	c-3.191,0.479-6.356,1.602-10.09,1.469c-2.215-0.08-3.631-0.955-5.135-1.469c-0.914-0.311-1.902-0.404-2.568-0.734
	c-1.172-0.578-2.234-1.73-3.669-2.201c-5.55-1.813-11.808,1.904-17.243,2.201c-0.793,0.045-1.608-0.268-2.385-0.182
	c-1.133,0.123-1.123,0.793-2.201,0.549c0.064-2.66,2.896-1.646,4.586-2.018c1.195-0.262,3.746-1.645,4.586-2.201
	c2.477-1.643,2.107-5.18,4.402-7.338c2.233-0.842,3.479-2.943,5.503-4.035c1.47-0.791,3.122-1.115,4.586-2.018
	c0.679-0.418,1.377-1.299,2.201-1.65c3.036-1.293,6.446-0.721,10.272-1.285c1.403-0.205,2.631-1.266,4.035-1.467
	c1.104-0.158,2.211,0.078,3.303,0c4.056-0.291,7.125-2.465,10.822-3.301c0.752-0.172,1.563-0.113,2.385-0.367
	c1.105-0.344,2.169-1.197,3.118-1.285c1.638-0.15,2.265,0.605,3.485,0.918c3.57,0.912,8.576,0.953,11.924,0.916
	c-0.488-1.875-2.405-2.816-3.853-3.852c-1.48-1.059-2.872-2.316-4.402-3.301c-3.171-2.043-7.093-3.188-9.905-5.688
	c-0.293-0.502-0.686-0.904-0.918-1.467c-1.68-0.766-3.037-1.855-5.502-1.834c-2.756-2.076-5.529-4.133-7.889-6.604
	c-3.205-0.264-4.213-2.701-6.42-4.221c-3.086-2.123-7.512-0.895-10.272-3.852c-4.438,2.594-6.96,7.104-11.373,9.723
	c-1.312,2.051-2.448,4.277-5.503,4.586c-0.902,1.727-2.396,2.863-4.402,3.484c-2.028,2.131-4.475,3.842-7.521,4.953
	c-0.697,0.525-0.971,1.475-1.467,2.201c-8.855,5.332-17.051,11.32-27.516,15.041c-0.785,0.07-0.772,0.939-1.283,1.285
	c-0.574,0.037-1.348-0.125-1.651,0.184c-2.85,1.615-5.86,3.564-9.172,4.402c-1.644,0.416-3.523,0.352-5.136,0.916
	c-0.623,0.219-1.225,0.797-1.835,0.918c-1.546,0.307-3.606-0.109-5.136,0c-4.031,0.289-7.634,0.406-10.456-0.734
	c-1.114-0.449-1.75-1.348-2.751-1.65c-0.595-0.18-1.313,0.043-2.018-0.184c-1.802-0.578-3.592-2.611-5.688-2.568
	c-1.459,0.031-3.432,1.645-4.953,2.385c-3.688,1.797-8.502,2.529-11.922,4.402c-0.951,0.521-1.523,1.484-2.752,1.652
	c-0.838-1.635,0.853-3.42,1.467-4.77c3.637-1.922,7.599-4.738,12.291-5.504c2.041-0.332,3.661-0.121,4.952-1.283
	c0.474-0.428,0.479-1.096,0.917-1.652c0.447-0.564,1.305-0.828,1.651-1.283c1.165-1.529,1.493-3.326,3.485-3.852
	c0.284-1.734,2.117-1.918,2.568-3.486c4.541-2.551,7.178-7.006,12.289-8.988c2.381-1.656,3.825-4.246,6.237-5.869
	c0.487-3.549,3.897-4.174,4.22-7.889c2.375-1.379,4.718-3.277,7.887-3.668c1.177-0.146,2.373,0.371,3.669,0.184
	c0.826-0.121,1.292-0.848,2.019-1.102c0.555-0.193,1.285-0.035,1.834-0.184c1.832-0.49,3.708-1.658,4.77-2.566
	c1.305,0.143,2.141-0.184,2.385-1.102c0.859,0.289,1.716,0.184,2.201-0.367c-0.067-1.104,0.332-1.879,0.55-3.117
	c0.616-0.424,1.333-0.746,1.834-1.285c1.708,0.119,2.945-0.234,3.853-0.916c4.62-0.262,8.79,2.318,13.574,1.65
	c0.746-0.105,1.3-0.588,2.018-0.734c1.557-0.318,3.1,0.078,4.77,0c2.897-0.137,6.301-0.451,8.805-1.1c0.79,0.205,1.482,0.9,2.018,0
	c0.197-1.584-2.364-2.109-4.035-1.469c-0.287-2.709-3.737-2.254-4.953-4.035c-0.68-0.373-1.074,0.143-1.65,0.367
	c-1.229-0.381-1.48-2.363-3.119-1.285c-1.291-0.869-1.793-2.438-3.301-3.117c-1.695-0.764-3.992-0.697-5.871-1.285
	c-0.641-0.199-1.154-0.914-1.834-1.1c-2.549-0.695-5.521-0.809-8.438-1.285c-4.393-0.715-8.59-1.891-12.475-2.018
	c-1.594-0.051-2.541-1.002-3.852-1.467c-0.544-0.193-1.274,0-1.834-0.184c-1.695-0.555-3.186-2.041-4.953-2.752
	c-0.604-0.242-1.428-0.133-2.018-0.367c-1.871-0.738-3.381-2.43-5.503-2.201c-1.362-1.953-3.81-2.424-5.87-3.484
	c-1.507-0.775-2.35-2.463-4.035-2.752c-0.182-0.613-0.583-1.008-0.734-1.65c-5.058-2.586-6.694-8.592-11.189-11.74
	c-0.075-1.82-1.41-2.381-2.385-3.301c-0.059-1.621-2.018-2.039-2.568-3.303c-0.537-1.236,0.182-2.951-0.733-4.402
	c-2.418-1.678-2.909-5.285-5.687-6.604c-0.488-2.508-1.455-4.538-3.302-5.687c-1.452-2.661-2.593-5.909-3.853-8.805
	c-0.334-0.771-0.913-1.569-1.1-2.202c-0.438-1.477-0.188-2.979-0.734-4.402c-0.25-0.652-1.01-1.271-1.283-2.018
	c-0.328-0.888,0.02-1.971-0.184-3.118c-0.265-1.482-1.15-2.953-1.285-4.035c-0.391-3.163-0.043-6.642,0.367-9.538
	c0.808-5.703,1.823-13.729,4.219-17.244c0.246-1.475,1.211-2.918,1.469-4.586c1.299-8.422,0.242-19.263,7.703-21.645
	c0.021,6.002,27.018,18.535,27.148,19.443c0.232,1.148,0.697,2.137,1.834,2.201c1.8,0.104,7.855-0.529,9.355,0
	c0.641,0.217,0.722,0.991,0.918,1.651c1.59-0.876,7.553,1.745,8.805,1.651c0.619,0.42,0.734,1.344,0.917,2.201
	c1.589,0.612,1.786,2.615,2.935,3.668c0.555,0.242,1.465,0.127,2.018,0.367c0.75,1.024,1.539,2.009,1.835,3.485
	c4.37,4.802,7.394,10.95,11.739,15.775c0.266,0.408,0.461,0.885,0.367,1.651c3.08,0.588,3.039,4.299,6.054,4.952
	c-0.011,1.207,0.666,1.952,0.183,3.118c0.992,1.055,2.307,1.911,2.385,3.669c0.045,0.981-0.711,2.19-0.733,3.118
	c0.768,0.947,1.519,2.371,2.752,1.835c0.218,0.394,4.239,3.937,6.787,2.935c0.171,1.174,1.761,2.879,2.384,3.119
	c0.493,1.402,1.363,2.428,2.201,3.484c-0.177,0.74-0.338,1.496-0.732,2.018c0.936,1.204,1.572,2.708,3.117,3.303
	c-0.107,1.113-0.541,14.422,0.184,14.674c-0.663,0.896-1.326,3.637-0.733,5.871c-2.146,0.668-1.813,3.811-3.669,4.77
	c0.48,3.957,0.139,9.066,2.752,11.738c1.079-1.832-0.332-3.551-0.184-5.135c0.296-3.166,3.721-4.712,4.402-7.705
	c1.725-1.271,3.438-2.553,4.586-4.402c2.523-0.412,3.212-2.658,4.586-4.219c1.945,0.668,2.34,3.164,2.568,5.502
	c0.2,2.057,1.011,4.334,1.101,6.055c0.143,2.744-0.382,5.078-0.917,6.97c-0.778,2.748-1.32,4.211-2.752,6.787
	c-0.889,1.598-2.329,2.961-2.385,4.035c-0.151,2.926,3.914,7.076,5.87,8.07c4.896,2.488,12.233,3.566,15.409,7.705
	c0.425,0.555,0.699,1.313,0.916,2.018c3.909,2.572,7.115,5.848,10.09,9.355c1.291,0.299,1.503,1.676,3.301,1.467
	c-0.155-2.316-2.093-4.381-3.117-6.787c-1.824-4.279-3.713-9.09-7.521-10.822c-1.213-2.945-3.213-5.104-4.77-7.705
	c-0.224-1.324-0.417-2.531-0.917-3.668c-1.017-2.313-3.202-4.26-4.036-6.42c-0.431-1.117-0.325-2.188-0.732-3.119
	c-0.35-0.797-1.185-1.322-1.651-2.201c-0.876-1.646-0.835-3.246-2.202-4.218c-0.039-0.59,0.325-0.775,0.184-1.467
	c-0.853-1.152-1.177-2.605-1.834-4.035c-0.509-1.109-1.41-1.994-1.834-3.119c-0.399-1.061-0.342-2.357-0.734-3.486
	c-0.276-0.795-1.006-1.49-1.1-2.383c-0.207-1.957,1.528-4.764-0.367-6.238c1.154-1.051,1.452-2.07,1.467-4.035
	c0.018-2.246-2.715-3.027-3.118-4.402c-0.276-0.947-0.117-3.234,0-4.219c0.113-0.951,0.844-1.957,1.101-3.119
	c0.189-0.852-0.028-1.807,0.184-2.385c0.352-0.959,1.458-1.28,2.018-2.201c1.17-1.922,0.766-4.559,2.201-6.053
	c-0.173-2.547,0.227-3.77,0.918-5.503c0.385-0.967,0.561-2.077,0.916-2.935c0.539-1.299,1.869-2.369,2.202-3.486
	c0.243-0.816-0.133-1.44,0.183-2.018c0.805-1.466,2.967-2.025,3.486-3.668c1.629,0.082,2.129-1.235,2.935-1.834
	c0.589-0.438,1.509-0.514,2.018-0.918c1.153-0.917,1.392-2.15,2.019-3.485c0.347-0.739,1.19-1.263,1.1-2.201
	c1.154-2.024,2.246-4.113,3.303-6.237c0.832-0.267,1.734-0.466,2.567-0.732c2.802-2.824,5.722-5.529,9.172-7.705
	c0.569-1.08,1.853-1.449,2.385-2.568c2.587-1.203,5.179-2.402,6.97-4.402c1.469-0.031,1.906-0.89,2.936-1.467
	c0.688-0.387,1.676-0.551,2.201-0.918c1.246-0.867,1.518-2.733,3.853-2.201c5.349-3.517,10.026-7.704,16.876-9.722
	c1.13,0.294,2.252,0.24,2.752-0.55c-0.163-0.816-0.565-1.393-0.734-2.201c1.215-1.32,0.738-3.152,1.284-4.77
	c0.265-0.785,1.079-1.316,1.284-2.018c0.412-1.409-0.174-2.518-0.184-3.67c-0.018-2.102,1.01-4.508,1.467-6.786
	c0.455-2.263,0.722-4.327,1.651-5.87c0.419-0.695,1.22-1.146,1.651-1.834c0.729-1.164,1.123-2.512,1.834-3.669
	c1.105-1.802,2.371-3.599,3.485-5.319c0.454-0.703,1.121-1.137,1.651-1.835c2.648-3.489,4.137-8.187,6.971-11.189
	c2.395-2.251,5.479-3.815,7.887-6.054c0.154-0.518,0.213-1.132,0.367-1.65c2.082-0.689,2.64-3.373,4.219-4.402
	c0.798-0.52,4.154-1.088,5.137-0.918c2.037,0.355,2.646,3.006,3.485,4.586c1.373,2.59,3.565,4.326,5.503,5.688
	c2.541,3.932,4.519,7.887,6.236,13.023c1.075,3.215,2.577,6.613,2.936,9.539c0.232,1.906-0.27,3.918-0.551,6.236
	c-0.398,3.277-0.93,6.711-1.834,9.355c-0.956,2.791-2.692,5.549-3.853,8.438c-0.349,0.868-0.255,1.904-0.55,2.752
	c-1.374,3.936-3.834,8.391-4.586,12.29c-0.265,1.37-0.419,3.021-0.551,4.036c-0.456,3.522,0.407,7.084,0.184,11.189
	c-0.052,0.949-0.493,1.801-0.551,2.751c-0.355,5.905,0.934,11.546,0.367,18.343c1.811-0.383,1.338-2.316,1.651-3.484
	c0.471-1.758,1.425-4.16,2.201-6.054c1.206-2.94,2.573-4.864,4.219-7.153c0.932-1.297,1.835-2.732,2.752-3.853
	c3.307-4.044,7.694-7.353,11.739-10.456c1.391-0.016,1.999-0.814,2.752-1.467c3.876-1.828,10.808-3.521,16.509-3.119
	c1.586,0.112,3.043,0.667,4.586,0.918c4.634,0.752,8.878-0.299,12.657-1.469c-1.61-1.08-3.408-1.973-5.87-2.201
	c-1.261-0.957-2.869-1.42-4.219-2.201c-1.807-1.043-2.947-2.549-4.402-3.668c-1.84-1.413-4.167-2.508-6.054-4.035
	c-0.764-0.619-1.286-1.619-2.018-2.201c-2.622-2.09-5.326-3.996-6.237-7.338c-1.558-1.07-2.229-3.029-3.485-4.402
	c-0.354-3.688-3.352-6.04-3.852-9.906c-0.257-1.982,0.602-4.088,0.366-6.236c-0.12-1.104-1.033-2.307-1.101-3.484
	c-0.022-0.398,0.286-0.859,0.367-1.469c0.217-1.62-0.364-3.711-0.184-5.318c0.303-2.689,2.663-4.842,3.853-7.338
	c1.004-2.107,0.265-5.786,0.917-8.071c0.694-2.436,3.659-8.25,4.586-8.988c0.759-0.604,1.975-0.565,2.752-1.101
	c0.97-0.668,1.423-1.816,2.018-2.752c1.592-2.504,2.351-4.836,3.485-7.154c2.06-1.407,2.542-3.695,4.035-5.502
	c0.354-0.43,1.046-0.657,1.468-1.102c1.216-1.278,2.244-3.055,3.485-4.219c1.726-1.618,4.006-2.697,5.503-4.402
	c1.984-2.259,2.93-5.314,5.687-6.787c2.23-4.121,5.517-10.313,11.006-9.722c-0.37,1.423-1.906,1.804-2.568,3.118
	c-0.781,1.551-0.617,3.42-1.467,5.137c1.373,1.928,1.444,5.158,2.935,6.971c0.142,1.059-0.923,0.91-0.733,2.018
	c4.507,2.035,9.239,3.845,11.006,8.621c0.784-0.011,1.344-0.246,2.018-0.367c1.376-4.332-0.65-9.943,0.551-14.491
	c0.392-1.485,1.819-2.45,1.834-4.036c2.286-1.811,3.957-4.236,5.136-7.153c1.161-0.123,2.344-0.225,2.936-0.917
	c0.13-2.9,3.53-5.415,2.201-9.172c1.709,0.303,1.218-1.595,2.201-2.018c1.54-0.111,1.841-1.461,3.302-1.651
	c0.833-1.979,0.842-4.784,2.752-5.687c-0.062-0.611-0.532-0.813-0.367-1.65c1.229-1.435,1.387-2.922,1.65-5.137
	c1.148-0.747,1.436-2.355,2.019-3.668c1.836-1.208,3.961-1.449,6.053-2.568c1.239-0.663,2.343-1.627,3.853-1.834
	C401.387,13.814,454.011,0,466.362,0z M235.897,162.775c-1.42,0.714-2.369,0.708-3.486,1.467c-2.293,1.561-4.144,3.235-5.869,5.137
	c0.136,1.734-1.153,2.95-1.65,4.586c1.201,2.449,3.078,4.017,3.301,6.971c0.061,0.797-0.281,1.54-0.184,2.385
	c0.301,2.592,2.935,4.932,3.853,7.338c0.274,0.717-0.234,1.477,0.55,2.018c6.381,0.975,13.101,1.22,20.179,1.1
	c2.037,1.02,3.858,2.256,6.604,2.568c1.171,0.969,2.198,2.082,4.586,1.834c0.792-1.522-0.792-2.766-1.651-3.668
	c-2.305-2.422-5.071-3.815-7.521-5.87c-1.05-0.88-2.155-2.567-3.118-3.853c-2.753-3.671-7.605-7.949-8.621-12.473
	c-0.814-3.622,0.051-8.596-2.385-11.373C238.081,160.533,237.085,162.177,235.897,162.775z M395.485,171.947
	c-0.837,0.307-1.909,0.471-2.935,0.733c-0.977,0.251-2.029,0.728-2.936,0.917c-7.312,1.527-13.55,0.229-20.728-0.733
	c-3.436,6.249-0.172,15.204-0.734,22.929c-0.369,5.084-2.263,9.322-3.852,13.574c-1.458,3.9-2.931,8.777-1.835,13.024
	c1.522-1.229,3.094-2.699,4.22-4.219c1.106-1.495,2.413-3.761,2.751-5.87c0.228-1.42-0.528-2.993-0.367-4.586
	c0.075-0.736,0.926-2.128,1.651-3.302c2-3.235,3.523-5.458,5.687-8.255c1.328-1.717,2.674-3.509,4.035-4.77
	c3.294-3.047,8.718-3.6,14.492-4.219c1.745-3.236,2.867-7.807,3.852-11.923c0.188-0.782,0.081-1.647,0.367-2.385
	c0.456-1.178,1.949-1.716,1.65-3.118C398.375,169.666,397.416,171.24,395.485,171.947z M321.928,207.9
	c-3.853,2.295-7.961,3.846-12.106,5.137c-5.876,1.828-13.67,2.774-18.16,6.053c-0.608,4.354,1.245,6.656,2.568,9.355
	c1.861,3.798,3.232,7.362,4.77,11.374c0.555,1.449,1.51,5.361,2.935,5.137c0.955-0.152,1.137-2.58,1.468-3.67
	c1.433-4.717,3.1-7.477,5.136-10.823c1.618-1.189,2.945-2.879,4.586-4.402c1.229-1.143,3.549-3.673,4.953-4.219
	c1.432-0.558,3.566-0.584,5.503-1.102c1.786-0.477,3.647-1.128,5.319-1.283c2.187-0.204,4.765,0.576,6.971-0.551
	c-0.553-1.943-2.438-2.463-3.669-3.852c-2.515-2.838-3.101-6.838-4.402-11.006c-0.122,0-0.244,0-0.367,0
	C325.296,205.082,323.898,206.726,321.928,207.9z M335.502,267.333c-1.452-2.675-2.871-5.865-2.201-9.722
	c0.471-2.707,3.193-5.668,5.687-7.889c0.677-0.602,1.609-0.885,2.385-1.467c1.315-0.988,2.222-2.273,3.302-2.936
	c2.194-1.342,4.587-1.975,5.687-3.852c0.06-4.604,1.805-10.875-0.367-14.675c-0.571-0.999-2.352-2.362-3.485-3.302
	c-1.302-1.079-3.227-2.063-4.585-2.385c-2.656-0.629-6.087,3.381-6.971,5.137c-0.635,1.259-0.585,2.824-1.468,4.219
	c-1.526,2.41-4.015,3.564-5.87,5.321c-1.209,2.873-2.158,5.482-4.035,7.703c-0.689,0.816-2.217,1.688-3.302,2.752
	c-1.121,1.1-2.106,2.365-3.119,3.119c-1.931,1.438-6.098,3.152-6.42,5.502c-0.128,0.939,0.587,2.854,1.101,4.035
	c1.562,3.59,4.112,6.402,6.787,9.355c1.359,1.502,2.547,2.84,4.036,4.035c1.503,1.209,3.304,2.129,4.586,3.486
	c3.843,4.07,4.63,12.021,6.42,17.609c0.871,2.721,2.854,4.496,3.669,7.338c1.274,0.438,1.511,1.912,3.485,1.65
	c1.06-3.09,0.335-6.494,0.55-9.723c0.378-5.682,2.229-11.357,2.201-17.426C341.451,272.023,337.507,270.648,335.502,267.333z
	 M308.354,269.167c-2.588-0.928-3.896-2.931-5.869-4.402c-1.52-1.133-3.134-1.99-4.22-3.303c-2.439-2.947-3.836-7.398-5.87-11.373
	c-0.713-1.395-1.602-2.535-2.201-3.852c-1.172-2.576-1.894-5.348-3.118-7.521c-1.749-3.105-4.627-7.144-8.988-7.154
	c-8.524-0.019-16.539,4.205-24.029,5.503c-4.194,0.727-8.318,1.357-12.841,1.1c-4.219-0.238-8.138-1.904-12.841-1.65
	c-1.445,1.744-1.327,3.918-1.101,6.238c0.313,3.203-0.155,7.844,0.367,11.006c0.176,1.063,0.614,1.516,0.55,2.385
	c-0.066,0.893-0.703,1.738-0.917,2.566c-0.578,2.25-0.899,4.504-1.468,6.605c-0.583,2.156-1.777,3.791-2.567,5.685
	c-0.622,1.49-0.72,3.217-1.284,4.77c-0.68,1.869-1.865,4.107-2.936,5.869c-3.711,6.115-9.337,10.234-9.904,18.16
	c-0.151,2.107-0.371,4.18-0.367,6.42c0.01,5.443,1.86,8.879,4.219,12.107c1.418,1.941,3.826,4.352,6.053,6.42
	c2.305,2.141,4.361,4.723,6.237,6.236c0.558,0.451,1.308,0.658,1.835,1.102c3.665,3.088,6.173,8.428,8.621,12.473
	c2.26,3.734,4.584,7.164,6.971,10.641c1.15,1.676,2.122,4.137,4.035,4.586c1.594-2.105-1.186-4.215-1.467-6.238
	c-2.729-3.834-5.658-9.242-6.055-14.307c-0.445-5.701,3.668-9.268,4.403-14.492c0.181-1.281-0.114-2.682,0.183-3.668
	c0.463-1.533,2.326-2.42,2.201-4.035c1.211-0.502,1.844-1.582,3.119-2.02c1.316-4.613,5.373-6.488,8.07-9.721
	c2.146-0.791,3.803-2.068,4.953-3.852c-2.959-1.498-5.848-2.428-8.07-4.586c-1.409-1.369-2.101-3.582-4.22-4.221
	c-0.267-0.404-0.124-1.221-0.55-1.467c-1.941-1.549-5.27-3.156-7.154-1.283c-0.088-1.6,1.83-1.385,2.752-1.469
	c2.178-2.252,5.093-3.41,7.153-5.869c1.005-1.199,1.21-2.895,2.385-3.852c0.894-0.73,2.3-0.74,3.669-1.285
	c1.406-0.559,2.778-1.627,4.035-2.201c4.286-1.953,8.361-2.342,10.272-6.236c3.314-0.203,5.718-3.722,8.255-4.035
	c1.438-0.178,3.082,0.59,4.586,0.367c0.861-0.129,1.498-0.695,2.201-0.734c1.357-0.078,2.312,0.516,3.485,0.551
	c1.418,0.041,2.74-0.285,4.035-0.184c3.483,0.271,6.33,2.794,8.438,4.218c3.274,2.211,6.506,4.852,10.455,6.053
	C312.593,272.632,309.737,271.636,308.354,269.167z M340.088,343.275c0.248-1.061-0.21-2.035-0.367-3.303
	c-0.38-3.068-0.723-6.703-1.283-10.455c-0.522-3.492-1.176-7.154-1.468-10.271c-0.112-1.201,0.033-2.467-0.184-3.303
	c-0.909-3.508-3.888-5.688-4.77-8.438c-2.37-1.643-3.514-4.463-5.136-6.971c-1.096-1.695-2.671-3.24-3.853-5.137
	c-1.183-1.896-2.534-4.025-3.852-5.318c-2.072-2.037-6.27-4.834-10.64-3.303c-4.497,1.574-7.192,4.107-11.189,6.236
	c-4.475,2.385-9.763,4.961-14.675,6.604c-1.735,0.582-3.832,0.604-5.319,2.018c0.593,1.971,2.216,2.59,3.118,4.402
	c1.706,3.43,2.793,8.615,4.402,12.107c0.505,1.096,1.295,1.641,1.468,2.568c0.488,2.629-0.846,4.441-1.101,6.42
	c-0.156,1.209,0.352,2.846,0.184,4.402c-0.29,2.688-1.899,4.992-2.936,6.971c-1.119,2.139-2.751,4.043-4.219,5.688
	c-0.819,0.916-1.911,1.484-2.752,2.385c-0.864,0.926-1.199,2.063-2.018,2.75c-0.631,0.531-1.558,0.723-2.201,1.285
	c-0.734,0.641-1.236,1.711-2.018,2.385c-0.925,0.797-2.205,1.215-3.118,2.018c-1.356,1.191-2.618,2.748-4.036,4.035
	c-1.564,1.422-3.035,3.18-3.668,4.402c-1.811,3.495-0.172,7.501,1.65,10.091c2.18,3.096,5.23,5.742,7.888,8.621
	c2.675,2.898,5.064,5.816,8.255,8.254c0.291,1.047,1.263,2.111,2.385,3.486c0.583,0.713,2.092,2.953,3.118,2.75
	c1.092-0.215,1.014-2.699,1.834-4.035c0.683-1.111,1.431-0.92,2.752-2.018c0.933-0.773,1.537-2.037,2.018-2.385
	c0.66-0.477,1.652-0.59,2.385-1.1c2.316-1.619,3.747-4.471,6.42-5.688c1.621-0.738,3.493-0.25,5.32-0.551
	c2.557-0.42,4.965-2.5,7.888-2.75c4.502-0.389,7.217,2.709,12.29,3.117c0.944-2.512,0.243-5.662,0.366-8.805
	c-0.792-1.738-2.132-2.588-2.751-4.219c-2.05-5.392-0.21-14.54,1.834-18.712c1.059-2.158,2.747-3.59,3.853-5.502
	c0.744-1.287,0.516-2.768,1.65-3.303c1.463,0.123,1.725,1.711,2.936,2.385c2.057,1.145,4.768,1.373,6.236,3.303
	C338.053,345.781,339.725,344.832,340.088,343.275z M425.568,329.701c1.759-1.496,3.424-2.561,6.054-2.936
	c2.031-0.289,3.174-0.428,4.586-0.732c1.82-0.395,3.955-0.297,5.687-0.734c0.775-0.195,1.558-0.811,2.385-1.102
	c1.323-0.465,2.774-0.521,3.485-0.916c0.808-0.449,1.111-1.283,1.834-1.65c0.549-0.281,1.335-0.154,1.834-0.367
	c0.6-0.256,1.718-1.127,2.385-1.652c0.803-0.631,1.866-1.461,2.201-2.018c2.184-3.623-1.841-5.658-2.384-8.621
	c-1.635-0.059-2.684-2.031-4.403-2.752c-0.563-0.234-1.478-0.076-2.201-0.365c-0.968-0.391-1.516-1.168-2.385-1.285
	c-1.014-0.137-2.262,0.455-3.484,0.551c-2.869,0.223-5.297-1.912-7.338-1.467c-2.938,0.639-3.183,5.551-4.953,7.703
	c-3.694,2.822-4.577,8.168-8.621,10.639c-2.281,1.395-4.609,2.285-6.971,3.854c-1.912,2.488-5.504,3.301-7.153,6.053
	c1.946,1.049,4.541-0.102,6.787,0c2.93,0.133,5.418,1.781,8.438,1.467C422.638,331.91,424.025,331.015,425.568,329.701z
	 M302.667,407.477c-0.859,1.771-3.522,1.736-3.485,4.404c3.768,2.748,11.377,0.463,16.326,0.365
	c0.114-2.348,0.109-6.076-0.917-7.887C309.598,402.969,305.896,405.897,302.667,407.477z M217.737,453.704
	c-2.053,0.758-3.145,1.447-4.77,2.201c-3.588,1.664-7.068,3.99-10.456,4.402c-2.233,0.271-4.39-0.891-6.604-0.184
	c0.349,9.068-1.659,15.588-4.586,21.279c-1.226,2.383-3.392,5.324-5.319,5.869c-1.983,0.561-4.093,0.105-5.87,0.918
	c-1.493,0.682-2.466,2.184-3.669,2.934c-1.875,1.174-4.139,1.658-5.503,3.303c-1.144,1.377-1.554,3.16-2.567,4.586
	c-0.357,0.502-1.101,0.627-1.468,1.1c-1.05,1.354-1.255,3.287-2.752,4.586c-0.702,2.25-0.526,4.441-1.101,6.422
	c-0.703,2.424-2.922,4.471-2.018,7.52c4.711,1.328,7.616-1.391,11.557-1.834c1.232-0.139,2.455,0.057,3.668-0.184
	c1.59-0.313,3.01-0.928,4.586-1.1c4.639-0.51,8.73,0.432,11.924-2.02c-0.04-3.932,0.365-7.297-0.184-10.822
	c-1.439-3.561-2.307-9.02-0.917-12.84c0.188-0.516,0.884-0.916,1.101-1.467c0.316-0.809,0.09-1.881,0.367-2.568
	c0.313-0.779,1.408-1.936,2.201-3.119c2.217-3.307,4.562-6.301,7.521-8.438c5.633-2.561,10.512-5.875,16.325-8.254
	c0.357-3.324,0.346-5.963,1.651-8.072c0.345-0.557,1.251-0.83,1.651-1.467c0.26-0.416,0.08-1.1,0.366-1.469
	c1.087-1.402,2.966-2.473,3.485-4.402C222.71,449.565,220.581,452.653,217.737,453.704z"/>
</svg>
