<?xml version="1.0" encoding="utf-8"?>
<!-- Generator: Adobe Illustrator 12.0.0, SVG Export Plug-In . SVG Version: 6.00 Build 51448)  -->
<!DOCTYPE svg PUBLIC "-//W3C//DTD SVG 1.1//EN" "http://www.w3.org/Graphics/SVG/1.1/DTD/svg11.dtd" [
	<!ENTITY ns_svg "http://www.w3.org/2000/svg">
	<!ENTITY ns_xlink "http://www.w3.org/1999/xlink">
]>
<svg  version="1.1" id="Layer_1" xmlns="&ns_svg;" xmlns:xlink="&ns_xlink;" width="773.045" height="564.713"
	 viewBox="0 0 773.045 564.713" overflow="visible" enable-background="new 0 0 773.045 564.713" xml:space="preserve">
<g>
	<path fill-rule="evenodd" clip-rule="evenodd" fill="none" stroke="rgb(25, 25, 25)" stroke-width="2" d="M673.999,26.355
		c12.458-2.979,21.072-11.588,29.344-20.755"/>
	<path fill-rule="evenodd" clip-rule="evenodd" fill="none" stroke="rgb(25, 25, 25)" stroke-width="2" d="M361.813,345.543
		c14.747-0.909,29.589-1.169,44.309-1.984c0.227-0.313,0.775-1.27,0.923-1.956c-4.326-7.251-8.914-15.056-15.366-20.548
		c-15.254-0.998-43.467-4.849-39.836-25.975c9.189-12.966,21.927,1.621,32.401,3.768c-2.262-7.357-12.916-23.397-20.238-33.454
		c-4.849-6.658-9.322-14.435-16.403-11.118c-3.85,1.804-5.877,5.377-10.763,7.026c-19.349,20.254-44.532,3.313-60.333-12.062
		c9.528-20.566,37.843-27.05,58.113-19.679c-7.948-14.57-18.833-34.585-35.968-40.25c-0.527-0.412-0.814-0.683-1.187-1.003
		c-25.514,9.538-38.748,34.422-65.526,40.615c-14.875,3.44-26.798,3.691-41.57-1.002c-7.289-2.316-10.141-5.335-17.074-4.946
		c-3.623,0.203-11.848,1.679-15.426-0.699c-7.289-4.846-22.283-18.168-27.804-23.062"/>
	<path fill-rule="evenodd" clip-rule="evenodd" fill="none" stroke="rgb(25, 25, 25)" stroke-width="2" d="M515.704,229.926
		c15.387,12.568,36.062,25.158,56.291,16.803"/>
	<path fill-rule="evenodd" clip-rule="evenodd" fill="none" stroke="rgb(25, 25, 25)" stroke-width="2" d="M448.163,356.979
		c0.245-6.346-1.085-12.874,0.221-19.118c-0.967-18.997,16.854-33.394,26.04-52.038c7.528-15.275,15.767-25.651,28.584-36.666"/>
	<path fill-rule="evenodd" clip-rule="evenodd" fill="none" stroke="rgb(25, 25, 25)" stroke-width="2" d="M348.51,347.645
		c-5.03-4.977-12.138-7.744-16.338-13.77"/>
	<path fill-rule="evenodd" clip-rule="evenodd" fill="none" stroke="rgb(25, 25, 25)" stroke-width="2" d="M323.538,397.123
		c8.499-13.29,14.042-28.565,24.505-40.608"/>
	<path fill-rule="evenodd" clip-rule="evenodd" fill="none" stroke="rgb(25, 25, 25)" stroke-width="2" d="M438.595,396.188
		c10.358,8.568,18.405,21.081,33.141,22.871"/>
	<path fill-rule="evenodd" clip-rule="evenodd" fill="none" stroke="rgb(25, 25, 25)" stroke-width="2" d="M672.696,121.788
		c6.078-1.632,16.661-5.489,23.369-5.415c24.598,0.274,45.701-13.142,51.936-35.963c0.286-4.168-1.774-9.455,2.508-12.274
		c9.763,19.565,30.322,35.021,17.387,55.455c-6.153,9.719-13.446,15.722-25.642,20.196c-5.129,1.881-9.296,6.735-15.67,10.766
		c-10.095-0.542-19.916-3.554-28.134-9.169"/>
	<path fill-rule="evenodd" clip-rule="evenodd" fill="none" stroke="rgb(25, 25, 25)" stroke-width="2" d="M695.168,150.228
		c-0.922,5.259-2.276,11.583-3.23,16.93c-1.753,9.824,3.229,16.248,2.417,25.51c-0.587,6.71-5.808,13.34-8.305,19.513"/>
	<path fill-rule="evenodd" clip-rule="evenodd" fill="none" stroke="rgb(25, 25, 25)" stroke-width="2" d="M686.05,212.18
		c12.587-2.748,26.217-4.965,40.098-5.157c0.394,0.432,0.766,0.94,0.878,1.472c-0.708,12.545-2.538,21.841-12.618,33.956
		c-6.867,8.256-7.312,14.989-15.622,18.624c-4.389,1.919-9.23,0.901-14.206,1.874"/>
	<path fill-rule="evenodd" clip-rule="evenodd" fill="none" stroke="rgb(25, 25, 25)" stroke-width="2" d="M684.579,262.948
		c0.045,1.784,0.666,3.78,0.066,5.458c-18.571-2.809-30.285,23.241-46.245,23.449c-13.003,0.169-21.89-17.115-28.597-27.6
		c-9.87-2.665-14.78,9.46-18.956,17.65c-7.187,14.092-17.758,28.368-20.625,40.534"/>
	<path fill-rule="evenodd" clip-rule="evenodd" fill="none" stroke="rgb(25, 25, 25)" stroke-width="2" d="M684.579,262.948
		c-7.141,1.211-15.929-0.357-22.123,1.036c-12.945,2.912-18.531-0.945-31.419-3.242c-4.639-0.826-9.869-0.664-14.139-2.157"/>
	<path fill-rule="evenodd" clip-rule="evenodd" fill="none" stroke="rgb(25, 25, 25)" stroke-width="2" d="M686.05,212.18
		c-4.985,4.187-11.541,1.105-17.05,1.248c-1.154,7.949,9.804,8.388,13.63,12.926"/>
	<path fill-rule="evenodd" clip-rule="evenodd" fill="none" stroke="rgb(25, 25, 25)" stroke-width="2" d="M682.63,226.354
		c18.139,1.878,20.646,20.503,0.113,22.091c-3.456,0.267-9.095-0.899-13.101-0.222"/>
	<path fill-rule="evenodd" clip-rule="evenodd" fill="none" stroke="rgb(25, 25, 25)" stroke-width="2" d="M682.63,226.354
		c-25.484,4.147-53.132,7.446-74.732,23.603"/>
	<path fill-rule="evenodd" clip-rule="evenodd" fill="none" stroke="rgb(25, 25, 25)" stroke-width="2" d="M599.745,222.61
		c-0.779,9.011-3.657,16.747-5.018,25.497"/>
	<path fill-rule="evenodd" clip-rule="evenodd" fill="none" stroke="rgb(25, 25, 25)" stroke-width="2" d="M554.604,162.446
		c-6.917,4.399-0.892,15.659,1.043,22.05c5.187,17.667,19.386,30.949,29.604,45.896"/>
	<path fill-rule="evenodd" clip-rule="evenodd" fill="none" stroke="rgb(25, 25, 25)" stroke-width="2" d="M549.685,218.351
		c-17.833-18.82-14.843-50.837-0.95-70.451c3.802,3.538,3.266,9.983,5.869,14.546"/>
	<path fill-rule="evenodd" clip-rule="evenodd" fill="none" stroke="rgb(25, 25, 25)" stroke-width="2" d="M554.604,162.446
		c5.595,24.812,36.077,31.172,43.751,53.826"/>
	<path fill-rule="evenodd" clip-rule="evenodd" fill="none" stroke="rgb(25, 25, 25)" stroke-width="2" d="M598.354,216.272
		c0.868-0.348,1.78-0.643,2.578-1.129c5.225-16.75,13.697-32.513,20.513-48.706"/>
	<path fill-rule="evenodd" clip-rule="evenodd" fill="none" stroke="rgb(25, 25, 25)" stroke-width="2" d="M621.445,166.438
		c-17.905-2.726-35.561-27.56-30.92-44.191c2.07-7.414,9.342-14.375,13.114-21.815c6.568-12.947,18.083-24.45,16.268-36.532
		c-1.564-10.412-4.11-16.931-3.093-28.555c11.931,6.917,24.412,15.313,38.682,19.721c15.098,4.663,20.376,20.456,15.306,38.554
		c-1.28,4.572-4.103,8.19-3.918,13.134"/>
	<path fill-rule="evenodd" clip-rule="evenodd" fill="none" stroke="rgb(25, 25, 25)" stroke-width="2" d="M666.884,106.753
		c10.28-6.207,21.211-17.319,22.071-29.975c1.179-2.072,2.487-4.101,3.754-6.134c2.979-15.892,10.128-32.8,5.561-49.268"/>
	<path fill-rule="evenodd" clip-rule="evenodd" fill="none" stroke="rgb(25, 25, 25)" stroke-width="2" d="M598.354,216.272
		c-0.244,2.166-0.478,4.765,1.391,6.338"/>
	<path fill-rule="evenodd" clip-rule="evenodd" fill="none" stroke="rgb(25, 25, 25)" stroke-width="2" d="M599.745,222.61
		c5.77-5.703,9.854-13.226,16.997-17.796"/>
	<path fill-rule="evenodd" clip-rule="evenodd" fill="none" stroke="rgb(25, 25, 25)" stroke-width="2" d="M616.742,204.814
		c0.047-11.615,10.598-29.785,17.956-44.633c4.979-10.045,16.059-26.12,24.43-29.83"/>
	<path fill-rule="evenodd" clip-rule="evenodd" fill="none" stroke="rgb(25, 25, 25)" stroke-width="2" d="M659.128,130.352
		c3.274-3.988,9.577-4.876,13.568-8.564"/>
	<path fill-rule="evenodd" clip-rule="evenodd" fill="none" stroke="rgb(25, 25, 25)" stroke-width="2" d="M672.696,121.788
		c4.172-8.466,12.382-18.98,19.904-30.136c8.065-11.965,13.732-15.421,25.29-19.497c12.661-4.463,16.668-7.444,26.357-18.538
		c11.968-13.702,15.361-22.338,8.723-35.941c-7.768-15.915-27.799-14.938-44.741-16.681"/>
	<path fill-rule="evenodd" clip-rule="evenodd" fill="none" stroke="rgb(25, 25, 25)" stroke-width="2" d="M621.445,166.438
		c11.133-22.438,29.085-41.154,45.438-59.685"/>
	<path fill-rule="evenodd" clip-rule="evenodd" fill="none" stroke="rgb(25, 25, 25)" stroke-width="2" d="M659.128,130.352
		c12.931,4.187,28.955,4.224,39.322,15.031"/>
	<path fill-rule="evenodd" clip-rule="evenodd" fill="none" stroke="rgb(25, 25, 25)" stroke-width="2" d="M616.742,204.814
		c33.21-7.013,53.657-35.043,78.426-54.586"/>
	<path fill-rule="evenodd" clip-rule="evenodd" fill="none" stroke="rgb(25, 25, 25)" stroke-width="2" d="M695.168,150.228
		c1.107-1.608,2.447-3.068,3.282-4.845"/>
	<path fill-rule="evenodd" clip-rule="evenodd" fill="none" stroke="rgb(25, 25, 25)" stroke-width="2" d="M322.406,350.875
		c2.421,0.726,3.767,3.133,6.16,3.932c0.505,1.241,0.315,2.651,0.463,3.967"/>
	<path fill-rule="evenodd" clip-rule="evenodd" fill="none" stroke="rgb(25, 25, 25)" stroke-width="2" d="M329.028,358.774
		c3.522,2.277,7.542,0.106,11.08-0.86"/>
	<path fill-rule="evenodd" clip-rule="evenodd" fill="none" stroke="rgb(25, 25, 25)" stroke-width="2" d="M320.27,362.347
		c3.014,5.056,8.938,1.468,13.32,3.518c0.489,0.52,0.465,1.241,0.412,1.805c-14.783,9.883-30.299,24.165-29.172,43.725
		c-1.425,12.668,1.5,25.96,5.197,37.798"/>
	<path fill-rule="evenodd" clip-rule="evenodd" fill="none" stroke="rgb(25, 25, 25)" stroke-width="2" d="M310.027,449.192
		c11.431-18.085,32.45-28.697,45.717-45.77"/>
	<path fill-rule="evenodd" clip-rule="evenodd" fill="none" stroke="rgb(25, 25, 25)" stroke-width="2" d="M310.027,449.192
		c-0.397,21.042-16.176,37.07-23.654,55.3"/>
	<path fill-rule="evenodd" clip-rule="evenodd" fill="none" stroke="rgb(25, 25, 25)" stroke-width="2" d="M286.374,504.492
		c0.109,0.068,0.221,0.135,0.329,0.201c21.086-9.839,33.417-32.417,50.184-47.779"/>
	<path fill-rule="evenodd" clip-rule="evenodd" fill="none" stroke="rgb(25, 25, 25)" stroke-width="2" d="M336.886,456.914
		c5.189-6.829,11.375-14.318,18.522-18.646"/>
	<path fill-rule="evenodd" clip-rule="evenodd" fill="none" stroke="rgb(25, 25, 25)" stroke-width="2" d="M355.408,438.267
		c8.779-9.183,16.038-23.545,25.604-26.967c8.126-2.905,15.976-5.096,25.843-6.478"/>
	<path fill-rule="evenodd" clip-rule="evenodd" fill="none" stroke="rgb(25, 25, 25)" stroke-width="2" d="M355.408,438.267
		c-0.813,9.188-10.473,14.482-16.467,20.7"/>
	<path fill-rule="evenodd" clip-rule="evenodd" fill="none" stroke="rgb(25, 25, 25)" stroke-width="2" d="M339.199,461.936
		c16.665-9.504,41.236-37.272,63.751-46.43c3.292-1.337,7.036-2.396,10.219-4.075c4.826-2.542,7.138-6.819,11.188-9.877"/>
	<path fill-rule="evenodd" clip-rule="evenodd" fill="none" stroke="rgb(25, 25, 25)" stroke-width="2" d="M350.252,465.09
		c3.362-2.405,7.526-3.304,11.581-3.641"/>
	<path fill-rule="evenodd" clip-rule="evenodd" fill="none" stroke="rgb(25, 25, 25)" stroke-width="2" d="M361.833,461.45
		c14.715-14.191,29.421-29.11,47.223-39.722"/>
	<path fill-rule="evenodd" clip-rule="evenodd" fill="none" stroke="rgb(25, 25, 25)" stroke-width="2" d="M361.833,461.45
		c-1.692,10.917-8.362,17.853-10.634,27.31c-3.632,15.123,6.338,31.164,9.236,47.877c0.531,3.061,0.241,6.846,1.858,10.055"/>
	<path fill-rule="evenodd" clip-rule="evenodd" fill="none" stroke="rgb(25, 25, 25)" stroke-width="2" d="M362.293,546.691
		c0.779-0.155,1.477-0.191,2.334-0.285"/>
	<path fill-rule="evenodd" clip-rule="evenodd" fill="none" stroke="rgb(25, 25, 25)" stroke-width="2" d="M364.627,546.406
		c1.327-2.111,2.403-4.391,4.004-6.329"/>
	<path fill-rule="evenodd" clip-rule="evenodd" fill="none" stroke="rgb(25, 25, 25)" stroke-width="2" d="M368.631,540.077
		c-0.668-25.133,24.773-47.958,34.129-74.029c7.699-21.452,19.904-37.875,21.52-58.656"/>
	<path fill-rule="evenodd" clip-rule="evenodd" fill="none" stroke="rgb(25, 25, 25)" stroke-width="2" d="M368.631,540.077
		c19.25-9.86,40.361-16.585,57.995-29.587c33.952-28.297-5.483-71.91,11.175-104.984c8.583,9.831,14.952,23.649,26.766,26.45
		c12.318,2.918,29.15-0.299,42.409-0.062"/>
	<path fill-rule="evenodd" clip-rule="evenodd" fill="none" stroke="rgb(25, 25, 25)" stroke-width="2" d="M506.976,431.894
		c2.315-2.553,6.062-1.493,9.03-2.076c0.655-2.1,0.254-4.7,0.21-6.957c-9.026-9.937-26.015-23.032-42.076-27.618
		c-8.325-2.377-30.708-3.003-31.77-10.473c-1.083-7.622,15.752-17.656,25.537-20.322"/>
	<path fill-rule="evenodd" clip-rule="evenodd" fill="none" stroke="rgb(25, 25, 25)" stroke-width="2" d="M467.907,364.448
		c22.456-4.535,47.182-1.118,68.707-11.669"/>
	<path fill-rule="evenodd" clip-rule="evenodd" fill="none" stroke="rgb(25, 25, 25)" stroke-width="2" d="M560.953,342.977
		c7.543-6.959,19.225-5.251,28.569-6.166c-6.673-10.979-23.379-7.13-34.471-10.287"/>
	<path fill-rule="evenodd" clip-rule="evenodd" fill="none" stroke="rgb(25, 25, 25)" stroke-width="2" d="M555.052,326.524
		c-23.42-0.918-49.645,11.447-75.714,20.267c-7.713,2.609-14.329,5.266-20.393,10.937"/>
	<path fill-rule="evenodd" clip-rule="evenodd" fill="none" stroke="rgb(25, 25, 25)" stroke-width="2" d="M458.945,357.727
		c-3.636,2.716-6.693,6.226-10.315,9.055"/>
	<path fill-rule="evenodd" clip-rule="evenodd" fill="none" stroke="rgb(25, 25, 25)" stroke-width="2" d="M486.983,310.615
		c3.521-4.084,8.109-7.523,11.215-12.152"/>
	<path fill-rule="evenodd" clip-rule="evenodd" fill="none" stroke="rgb(25, 25, 25)" stroke-width="2" d="M498.198,298.462
		c4.191-17.913-0.165-38.354,11.643-53.854"/>
	<path fill-rule="evenodd" clip-rule="evenodd" fill="none" stroke="rgb(25, 25, 25)" stroke-width="2" d="M509.841,244.609
		c-11.054-2.92-22.969,13.343-32.426,1.552c-10.237,10.881-14.866,23.487-19.692,39.865c-3.775,12.815-17.844,16.64-21.755,30.179
		c-1.529,5.293-0.757,11.213-1.354,16.641c-3.9-2.623-14.888-17.27-12.713-23.629c2.606-7.624,11.166-15.357,8.725-22.462
		c-3.496-10.166-23.891-2.311-21.021,11.909c-10.543-9.144-21.806-22.181-23.4-36.522c7.624-9.934,26.479-9.058,36.287-14.051
		c2.802-1.424,3.286-3.682,5.928-6.245c5.276-5.124,10.773-4.839,10.641-11.36"/>
	<path fill-rule="evenodd" clip-rule="evenodd" fill="none" stroke="rgb(25, 25, 25)" stroke-width="2" d="M439.061,230.487
		c-17.688,6.123-37.299,10.022-52.043,22.639"/>
	<path fill-rule="evenodd" clip-rule="evenodd" fill="none" stroke="rgb(25, 25, 25)" stroke-width="2" d="M439.061,230.487
		c0.018-0.094,0.034-0.187,0.049-0.28c-0.818-2.066-3.985-1.639-7.879-1.347c-17.69,1.335-36.718-4.64-52.368,12.746
		c-0.419-0.418-0.75-1.195-0.904-1.705c0.549-5.905,1.179-13.224,6.968-16.477c15.993-9.124,35.444-4.454,50.344-12.075
		c9.909-5.069,18.209-15.116,25.228-25.86"/>
	<path fill-rule="evenodd" clip-rule="evenodd" fill="none" stroke="rgb(25, 25, 25)" stroke-width="2" d="M460.498,185.489
		c-31.175,7.013-61.818,20.39-92.292,30.248"/>
	<path fill-rule="evenodd" clip-rule="evenodd" fill="none" stroke="rgb(25, 25, 25)" stroke-width="2" d="M368.207,215.737
		c-5.144,7.773-10.414,17.444-7.781,26.967c-1.298,0.081-2.811-0.394-3.98-1.015"/>
	<path fill-rule="evenodd" clip-rule="evenodd" fill="none" stroke="rgb(25, 25, 25)" stroke-width="2" d="M356.445,241.689
		c-11.815-7.525-20.475-0.644-31.564,3.329c-4.639,1.663-11.857,1.561-16.513,0.405"/>
	<path fill-rule="evenodd" clip-rule="evenodd" fill="none" stroke="rgb(25, 25, 25)" stroke-width="2" d="M356.445,241.689
		c-0.927-4.596-5.621-7.468-6.45-12.093"/>
	<path fill-rule="evenodd" clip-rule="evenodd" fill="none" stroke="rgb(25, 25, 25)" stroke-width="2" d="M349.995,229.596
		c-14.699-15.015-25.966-34.242-41.159-49.13"/>
	<path fill-rule="evenodd" clip-rule="evenodd" fill="none" stroke="rgb(25, 25, 25)" stroke-width="2" d="M308.836,180.466
		c-6.291,1.504-16.018-0.377-23.671,0.161c-14.428,1.014-28.744,5.71-42.447,10.478c-27.516,9.572-50.704,18.217-77.599,14.386
		c-8.876-1.265-18.121-4.075-27.906-7.377c-0.619-0.491-1.107-1.156-1.446-1.869c9.681-2.548,16.905-3.248,25.87-5.727
		c18.127-5.01,31.157-19.885,48.543-21.938c20.985-2.479,41.646,5.17,64.506,1.681c4.125-0.63,9.988-1.284,15.262,0.093
		c0.703-0.714,1.198-1.549,1.553-2.187c-8.943-11.003-20.799-25.335-31.795-29.265c-7.93-2.834-15.632-1.085-24.59-1.88
		c-14.596-1.294-32.803-10.065-45.141-20.991c-18.728-16.585-5.502-37.918-8.938-59.669c2.781-0.113,4.726,2.874,7.138,4.182"/>
	<path fill-rule="evenodd" clip-rule="evenodd" fill="none" stroke="rgb(25, 25, 25)" stroke-width="2" d="M455.399,29.779
		c0.645-0.768,1.639-1.271,2.655-1.144c0.415,0.178,0.966,0.817,1.172,1.02c7.473,26.099,14.78,51.886,6.257,77.266
		c-8.154,24.277-26.021,53.368-43.996,67.823c-2.234,1.797-4.323,2.62-6.075,4.243"/>
	<path fill-rule="evenodd" clip-rule="evenodd" fill="none" stroke="rgb(25, 25, 25)" stroke-width="2" d="M509.841,244.609
		c0.406-0.372,0.771-0.734,1.149-1.1"/>
	<path fill-rule="evenodd" clip-rule="evenodd" fill="none" stroke="rgb(25, 25, 25)" stroke-width="2" d="M510.99,243.509
		c-7.006-8.391-18.882-16.131-16.617-28.779c7.742-9.421,20.832,0.182,31.189,0.931c10.578,0.766,26.146,6.255,36.843,9.082
		c11.63,3.074,15.39,8.697,20.199,20.184c1.401,3.344,4.019,6.979,7.066,7.809"/>
	<path fill-rule="evenodd" clip-rule="evenodd" fill="none" stroke="rgb(25, 25, 25)" stroke-width="2" d="M567.654,282.365
		c3.817-8.063,10.376-14.673,14.684-22.397c-3.806-4.172-10.343-5.432-15.851-6.376"/>
	<path fill-rule="evenodd" clip-rule="evenodd" fill="none" stroke="rgb(25, 25, 25)" stroke-width="2" d="M364.627,546.406
		c1.853,3.868-0.71,8.084,0.218,12.216"/>
	<path fill-rule="evenodd" clip-rule="evenodd" fill="none" stroke="rgb(25, 25, 25)" stroke-width="2" d="M362.293,546.691
		c-2.503,4.316-0.988,8.978-0.948,13.796"/>
	<path fill-rule="evenodd" clip-rule="evenodd" fill="none" stroke="rgb(25, 25, 25)" stroke-width="2" d="M253.989,366.549
		c-24.415,0.821-49.871,9.165-74.131,14.813c-39.315,9.152-70.194,37.157-104.589,33.14c-22.348-2.611-45.875-1.776-73.536-4.853
		c-0.328-0.441-0.665-1.063-0.694-1.489c5.241-3.298,11.632-2.93,17.566-4.046"/>
	<path fill-rule="evenodd" clip-rule="evenodd" fill="none" stroke="rgb(25, 25, 25)" stroke-width="2" d="M18.604,404.114
		c4.278-4.525,22.464-11.146,29.523-13.699c25.275-9.153,51.148-25.187,75.935-33.195c23.581-6.956,46.21-23.887,69.601-19.193
		c8.145,1.635,24.181,3.759,34.837,4.974c11.359,1.294,22.077,2.956,31.704,1.454c0.086-0.083,0.174-0.167,0.263-0.253"/>
	<path fill-rule="evenodd" clip-rule="evenodd" fill="none" stroke="rgb(25, 25, 25)" stroke-width="2" d="M260.467,344.201
		c-8.415-6.906-24.044-12.863-26.423-24.245c-2.999-14.351,17.041-21.442,24.272-35.095c9.447,2.167,18.997,12.025,27.59,18.441
		c9.985,7.458,17.243,14.746,8.782,24.848c-2.349,2.805-5.58,3.837-6.592,9.225c8.56,9.101,21.669,15.382,34.309,13.502"/>
	<path fill-rule="evenodd" clip-rule="evenodd" fill="none" stroke="rgb(25, 25, 25)" stroke-width="2" d="M322.406,350.875
		c-2.018-6.85-15.636-14.739-16.938-22.023c-1.591-8.904,8.363-20.373,19.143-18.454c4.473,0.795,9.597,3.826,14.399,6.039
		c12.404,5.715,21.466,8.146,19.301,26.54"/>
	<path fill-rule="evenodd" clip-rule="evenodd" fill="none" stroke="rgb(25, 25, 25)" stroke-width="2" d="M460.498,185.489
		c2.374-1.578,5.052-2.613,7.671-3.666"/>
	<path fill-rule="evenodd" clip-rule="evenodd" fill="none" stroke="rgb(25, 25, 25)" stroke-width="2" d="M468.169,181.824
		c0.235-0.977,0.444-1.959,0.681-2.936"/>
	<path fill-rule="evenodd" clip-rule="evenodd" fill="none" stroke="rgb(25, 25, 25)" stroke-width="2" d="M468.85,178.888
		c-16.772,1.025-34.989-2.702-51.472,2.971"/>
	<path fill-rule="evenodd" clip-rule="evenodd" fill="none" stroke="rgb(25, 25, 25)" stroke-width="2" d="M417.378,181.859
		c-5.697,2.905-10.898,8.911-17.693,8.599"/>
	<path fill-rule="evenodd" clip-rule="evenodd" fill="none" stroke="rgb(25, 25, 25)" stroke-width="2" d="M399.685,190.458
		c-3.263,1.93-6.344,4.142-9.633,5.956"/>
	<path fill-rule="evenodd" clip-rule="evenodd" fill="none" stroke="rgb(25, 25, 25)" stroke-width="2" d="M351.97,224.93
		c-0.666,1.547-0.354,3.684-1.975,4.666"/>
	<path fill-rule="evenodd" clip-rule="evenodd" fill="none" stroke="rgb(25, 25, 25)" stroke-width="2" d="M368.207,215.737
		c9.165-24.149,27.841-51.355,37.327-81.271c2.354-7.425,4.91-14.339,7.542-21.426c8.217-22.14,17.502-37.558,29.832-60.172
		c3.723-6.828,12.162-17.241,12.492-23.087"/>
	<path fill-rule="evenodd" clip-rule="evenodd" fill="none" stroke="rgb(25, 25, 25)" stroke-width="2" d="M455.399,29.779
		c-11.769,6.375-28.924,19.524-38.659,28.616c-12.911,12.057-15.722,31.094-27.406,43.007c-8.725,8.896-19.718-0.3-23.635,12.262
		c-2.607,8.357-0.926,18.864-0.609,29.354c0.352,11.677,1.46,20.711,3.108,30.388c0.654,3.841,3.383,10.781-2.683,13.434
		c-4.75-3.12-3.674-10.78-8.792-13.723c-18.909,14.117,9.251,36.91-4.752,51.813"/>
	<path fill-rule="evenodd" clip-rule="evenodd" fill="none" stroke="rgb(25, 25, 25)" stroke-width="2" d="M317.57,57.484
		c-0.127-1.323-0.474-2.674-1.255-3.772c-6.482,5.034-12.833,10.496-21.75,14.948c-12.04,6.011-26.467,10.772-30.649,22.416
		c-4.43,12.33,3.881,24.371,8.252,36.222c-10.058-0.44-17.862-10.907-21.302-21.814c-3.782-11.988-1.197-23.752-4.125-34.555
		c-3.835-14.146-22.874-13.752-37.658-10.729c-7.482,1.531-10.304,1.138-20.906,0.345"/>
	<path fill-rule="evenodd" clip-rule="evenodd" fill="none" stroke="rgb(25, 25, 25)" stroke-width="2" d="M308.836,180.466
		c-7.848-10.921-16.641-21.681-24.44-32.829"/>
	<path fill-rule="evenodd" clip-rule="evenodd" fill="none" stroke="rgb(25, 25, 25)" stroke-width="2" d="M284.396,147.637
		c-14.195-8.132-28.133-20.15-46.022-28.703c-21.309-10.189-37.743-35.575-49.445-56.182c-0.352-0.622-0.693-1.514-0.753-2.206"/>
	<path fill-rule="evenodd" clip-rule="evenodd" fill="none" stroke="rgb(25, 25, 25)" stroke-width="2" d="M351.97,224.93
		c-0.097-0.073-0.191-0.146-0.287-0.218c-3.422-12.979-20.483-26.626-17.862-38.993c2.597-12.256,32.479-25.338,17.026-42.246
		c-12.149,7.969-31.442,13.158-29.38,30.938c-0.317,0-0.84-0.116-1.351-0.259c-2.595-2.93-6.338-4.166-9.022-6.703
		c-5.021-15.775-21.55-27.609-13.455-41.69c2.969-5.161,10.982-6.72,15.518-10.95c16.121-15.033,15.256-37.206,4.413-57.324"/>
	<path fill-rule="evenodd" clip-rule="evenodd" fill="none" stroke="rgb(25, 25, 25)" stroke-width="2" d="M317.57,57.484
		c-17.562,26.93-43.112,55.42-33.174,90.152"/>
	<path fill-rule="evenodd" clip-rule="evenodd" fill="none" stroke="rgb(25, 25, 25)" stroke-width="2" d="M468.169,181.824
		c2.124,1.297,5.225,0.526,6.81-1.232c0.071-0.606-0.404-1.282-0.942-1.731c-1.724-0.333-3.479-0.568-5.187,0.028"/>
	<path fill-rule="evenodd" clip-rule="evenodd" fill="none" stroke="rgb(25, 25, 25)" stroke-width="2" d="M417.378,181.859
		c-0.815-0.845-1.374-1.866-1.966-2.872"/>
	<path fill-rule="evenodd" clip-rule="evenodd" fill="none" stroke="rgb(25, 25, 25)" stroke-width="2" d="M415.412,178.987
		c-5.791,2.543-13.512,4.909-15.728,11.471"/>
	<path fill-rule="evenodd" clip-rule="evenodd" fill="none" stroke="rgb(25, 25, 25)" stroke-width="2" d="M498.198,298.462
		c10.43-4.955,20.245-14.654,33.204-12.586"/>
	<path fill-rule="evenodd" clip-rule="evenodd" fill="none" stroke="rgb(25, 25, 25)" stroke-width="2" d="M531.402,285.876
		c-12.5-9.051-23.505-23.829-11.591-38.585"/>
	<path fill-rule="evenodd" clip-rule="evenodd" fill="none" stroke="rgb(25, 25, 25)" stroke-width="2" d="M519.812,247.291
		c-2.051-2.524-5.728-3.302-8.821-3.782"/>
	<path fill-rule="evenodd" clip-rule="evenodd" fill="none" stroke="rgb(25, 25, 25)" stroke-width="2" d="M531.402,285.876
		c10.775,4.766,29.88,7.94,36.252-3.511"/>
	<path fill-rule="evenodd" clip-rule="evenodd" fill="none" stroke="rgb(25, 25, 25)" stroke-width="2" d="M567.654,282.365
		c-0.111-0.052-0.227-0.104-0.34-0.157c-2.337-11.001-7.364-23.869-19.849-27.092c-9.62-2.482-18.863-6.126-27.654-7.825"/>
	<path fill-rule="evenodd" clip-rule="evenodd" fill="none" stroke="rgb(25, 25, 25)" stroke-width="2" d="M260.467,344.201
		c4.779,0.483,9.353,2.17,13.744,4.074"/>
	<path fill-rule="evenodd" clip-rule="evenodd" fill="none" stroke="rgb(25, 25, 25)" stroke-width="2" d="M18.604,404.114
		c15.622-1.845,41.429-8.599,57.179-11.744c17.774-3.55,35.242-6.974,51.811-11.202c46.186-11.787,85.682-21.988,129.398-23.009
		c10.173-0.238,20.716-0.801,30.71,2.46c0.055,0.045,0.11,0.088,0.164,0.131"/>
	<path fill-rule="evenodd" clip-rule="evenodd" fill="none" stroke="rgb(25, 25, 25)" stroke-width="2" d="M287.866,360.75
		c2.513-0.805,4.949-2.036,7.674-1.646"/>
	<path fill-rule="evenodd" clip-rule="evenodd" fill="none" stroke="rgb(25, 25, 25)" stroke-width="2" d="M295.541,359.104
		c-2.158-6.756-9.613-10.243-13.912-16.958c-5.12-7.997-11.501-20.537-14.447-27.795c-3.572-8.802-9.337-14.875-7.123-24.47"/>
	<path fill-rule="evenodd" clip-rule="evenodd" fill="none" stroke="rgb(25, 25, 25)" stroke-width="2" d="M318.847,362.347
		c0.469,0,1.023,0,1.423,0"/>
	<path fill-rule="evenodd" clip-rule="evenodd" fill="none" stroke="rgb(25, 25, 25)" stroke-width="2" d="M320.27,362.347
		c2.164-2.821,5.968-1.98,8.758-3.573"/>
	<path fill-rule="evenodd" clip-rule="evenodd" fill="none" stroke="rgb(25, 25, 25)" stroke-width="2" d="M486.983,310.615
		c-17.546,8.539-27.573,29.024-28.038,47.112"/>
	<path fill-rule="evenodd" clip-rule="evenodd" fill="none" stroke="rgb(25, 25, 25)" stroke-width="2" d="M555.052,326.524
		c0.187-7.037,6.384-12.921,5.789-19.954c-22.145,8.714-52.551,21.862-73.857,4.045"/>
	<path fill-rule="evenodd" clip-rule="evenodd" fill="none" stroke="rgb(25, 25, 25)" stroke-width="2" d="M506.976,431.894
		c36.564,34.65,64.125,73.847,89.689,99.741c10.09,10.223,22.426,24.404,31.819,30.4c6.498,4.146,18.877-0.726,26.61-0.523
		c-8.811-15.659-23.693-29.434-37.204-41.374c-14.684-16.773-26.974-30.168-41.027-44.931c-12.166-12.78-37.271-40.728-37.652-55.48
		c-0.339-13.063,6.668-31.799,11.243-46.291c3.097-9.814,8.017-19.703,10.499-30.459"/>
	<path fill-rule="evenodd" clip-rule="evenodd" fill="none" stroke="rgb(25, 25, 25)" stroke-width="2" d="M560.953,342.977
		c-8.253,2.201-16.573,6.033-24.339,9.802"/>
	<path fill-rule="evenodd" clip-rule="evenodd" fill="none" stroke="rgb(25, 25, 25)" stroke-width="2" d="M467.907,364.448
		c15.969,16.489,32.438,34.255,52.052,46.465c2.391-19.915,9.913-39.376,16.655-58.134"/>
	<path fill-rule="evenodd" clip-rule="evenodd" fill="none" stroke="rgb(25, 25, 25)" stroke-width="2" d="M355.745,403.422
		c0.434,0.065,0.937,0.068,1.488,0.024c16.125-14.527,38.303-21.742,59.426-14.505c3.999-1.674,8.342-7.318,6.229-11.415
		c-10.695,5.371-22.94,5.028-34.617,3.8c-3.078-14.115,12.991-15.507,20.484-21.17c-9.953-2.46-27.448-3.176-40.641-3.631
		c-5.666-0.195-11.626-0.237-14.651,3.785C363.765,372.395,360.305,389.314,355.745,403.422"/>
	<path fill-rule="evenodd" clip-rule="evenodd" fill="none" stroke="rgb(25, 25, 25)" stroke-width="2" d="M253.989,366.549
		c1.563-2.268,4.668-1.315,6.536,0"/>
	<path fill-rule="evenodd" clip-rule="evenodd" fill="none" stroke="rgb(25, 25, 25)" stroke-width="2" d="M260.525,366.549
		c0.195,0.072,0.377,0.147,0.56,0.223c0.264,0.096,0.668,0.27,0.956,0.428c-8.128,8.115-19.062,10.09-29.392,20.422
		c-13.417,13.418-22.537,30.152-25.826,46.188c-0.766,3.742-2.058,6.902-0.952,10.466"/>
	<path fill-rule="evenodd" clip-rule="evenodd" fill="none" stroke="rgb(25, 25, 25)" stroke-width="2" d="M205.871,444.275
		c26.574-28.27,48.679-62.377,81.996-83.525"/>
	<path fill-rule="evenodd" clip-rule="evenodd" fill="none" stroke="rgb(25, 25, 25)" stroke-width="2" d="M205.871,444.275
		c-2.168,3.519-5.712,7.503-3.61,11.887c11.896-9.17,33.092-8.584,46.333-21.217c3.119-2.978,6.858-8.255,9.948-12.518
		c13.187-18.188,21.764-30.11,26.172-50.098c7.655-12.299,24.423-1.571,33.845-9.679c0.096-0.102,0.192-0.202,0.288-0.304"/>
	<path fill-rule="evenodd" clip-rule="evenodd" fill="none" stroke="rgb(25, 25, 25)" stroke-width="2" d="M318.847,362.347
		c-6.656-4.897-15.704-1.417-23.307-3.243"/>
	<path fill-rule="evenodd" clip-rule="evenodd" fill="none" stroke="rgb(25, 25, 25)" stroke-width="2" d="M253.989,366.549
		c1.87,1.616,4.602,1.364,6.536,0"/>
	<path fill-rule="evenodd" clip-rule="evenodd" fill="none" stroke="rgb(25, 25, 25)" stroke-width="2" d="M336.886,456.914
		c0.685,0.684,1.37,1.369,2.055,2.054"/>
	<path fill-rule="evenodd" clip-rule="evenodd" fill="none" stroke="rgb(25, 25, 25)" stroke-width="2" d="M286.374,504.492
		c-4.166,1.513-6.254,6.647-6.168,10.743c0.106,0.15,0.321,0.359,0.498,0.516c9.06-1.443,19.647-14.183,32.592-20.874
		c15.714-8.125,33.035-17.065,36.958-29.786"/>
	<path fill-rule="evenodd" clip-rule="evenodd" fill="none" stroke="rgb(25, 25, 25)" stroke-width="2" d="M350.252,465.09
		c-3.857-1.134-8.496,2.248-11.639-1.451c0.187-0.606,0.389-1.142,0.586-1.703"/>
	<path fill-rule="evenodd" clip-rule="evenodd" fill="none" stroke="rgb(25, 25, 25)" stroke-width="2" d="M339.199,461.936
		c-0.135-0.984-0.229-1.974-0.258-2.969"/>
</g>
</svg>
