<?xml version="1.0" encoding="utf-8"?>
<!-- Generator: Adobe Illustrator 12.0.0, SVG Export Plug-In . SVG Version: 6.00 Build 51448)  -->
<!DOCTYPE svg PUBLIC "-//W3C//DTD SVG 1.1//EN" "http://www.w3.org/Graphics/SVG/1.1/DTD/svg11.dtd" [
	<!ENTITY ns_svg "http://www.w3.org/2000/svg">
	<!ENTITY ns_xlink "http://www.w3.org/1999/xlink">
]>
<svg  version="1.1" id="Layer_1" xmlns="&ns_svg;" xmlns:xlink="&ns_xlink;" width="544.438" height="569.185"
	 viewBox="0 0 544.438 569.185" overflow="visible" enable-background="new 0 0 544.438 569.185" xml:space="preserve">
<g>
	<path fill-rule="evenodd" clip-rule="evenodd" fill="none" stroke="rgb(25, 25, 25)" stroke-width="2" d="M338.729,137.688
		c-0.919-0.543-2.007-2.23-1.309-3.056C338.435,135.072,338.828,136.134,338.729,137.688z"/>
	<path fill-rule="evenodd" clip-rule="evenodd" fill="none" stroke="rgb(25, 25, 25)" stroke-width="2" d="M110.404,342.438
		c-1.753,0.186-0.725-2.965,0-3.056C112.243,339.282,110.862,342.081,110.404,342.438z"/>
	<path fill-rule="evenodd" clip-rule="evenodd" fill="none" stroke="rgb(25, 25, 25)" stroke-width="2" d="M3.445,82.68
		c-1.786,0.239-1.476-1.885-0.437-2.183C4.376,80.799,3.577,81.662,3.445,82.68z"/>
	<path fill-rule="evenodd" clip-rule="evenodd" fill="none" stroke="rgb(25, 25, 25)" stroke-width="2" d="M62.381,376.928
		c0.1,0.987-2.216,3.303-3.929,3.93C59.513,379.298,60.98,378.146,62.381,376.928z"/>
	<path fill-rule="evenodd" clip-rule="evenodd" fill="none" stroke="rgb(25, 25, 25)" stroke-width="2" d="M366.889,347.896
		c-4.911,42.017-34.245,77.571-37.763,120.274"/>
	<path fill-rule="evenodd" clip-rule="evenodd" fill="none" stroke="rgb(25, 25, 25)" stroke-width="2" d="M329.126,468.171
		c1.729,25.642,9.289,51.52,19.225,75.846"/>
	<path fill-rule="evenodd" clip-rule="evenodd" fill="none" stroke="rgb(25, 25, 25)" stroke-width="2" d="M329.126,468.171
		c-7.65,8.957-15.28,18.178-19.282,29.469"/>
	<path fill-rule="evenodd" clip-rule="evenodd" fill="none" stroke="rgb(25, 25, 25)" stroke-width="2" d="M218.455,41.279
		c10.298,5.494,20.812,10.988,32.524,12.37"/>
	<path fill-rule="evenodd" clip-rule="evenodd" fill="none" stroke="rgb(25, 25, 25)" stroke-width="2" d="M315.155,230.633
		c-4.771-15.208-15.14-36.237-34.489-29.206"/>
	<path fill-rule="evenodd" clip-rule="evenodd" fill="none" stroke="rgb(25, 25, 25)" stroke-width="2" d="M204.594,177.962
		c-9.616-4.558-24.804-7.755-27.576-19.147"/>
	<path fill-rule="evenodd" clip-rule="evenodd" fill="none" stroke="rgb(25, 25, 25)" stroke-width="2" d="M177.018,158.815
		c-22.208-13.972-44.553-27.984-70.979-31.386"/>
	<path fill-rule="evenodd" clip-rule="evenodd" fill="none" stroke="rgb(25, 25, 25)" stroke-width="2" d="M170.172,139.314
		c-10.916-18.242-34.409-17.308-49.364-29.785"/>
	<path fill-rule="evenodd" clip-rule="evenodd" fill="none" stroke="rgb(25, 25, 25)" stroke-width="2" d="M272.64,164.235
		c-16.524-3.047-31.037-14.899-36.507-33.213c-3.299-11.043-5.949-18.702-15.16-28.796c-12.556-13.759-35.089-37.527-32.892-58.865
		c1.602-15.546,17.131-34.729,35.73-37.471c19.123-3.482,39.311-3.283,58.805-4.2c21.335-4.665,43.233,15.109,41.839,36.591
		c-7.231,19.114-3.498,45.532-0.127,65.936c1.684,10.196-2.726,19.48-8.361,28.979c-0.875,0.15-1.52,0.96-1.885,1.721
		c-0.126,0.384-0.182,0.75-0.235,1.114"/>
	<path fill-rule="evenodd" clip-rule="evenodd" fill="none" stroke="rgb(25, 25, 25)" stroke-width="2" d="M313.846,136.029
		c6.632,0.715,12.479,0.047,16.896-4.949c19.541-22.096,41.974-50.628,77.298-42.413c12.33,2.867,24.636,6.451,39.289,15.039
		c18.543,10.866,41.989,25.385,48.348,41.17c3.645,9.046,7.07,18.026,8.95,26.246"/>
	<path fill-rule="evenodd" clip-rule="evenodd" fill="none" stroke="rgb(25, 25, 25)" stroke-width="2" d="M504.627,171.122
		c0.169,0.153,0.337,0.306,0.506,0.459c4.767,8.648,9.713,19.397,0.841,28.216c-6.929,6.887-22.131,16.855-32.014,24.645
		c-13.837,10.907-38.102,9.606-54.578,3.283c-15.237-5.849-22.787-17.141-37.802-22.476c-10.222-3.633-25.705-6.661-35.927-8.244
		c-16.462-2.55-39.947-1.327-44.674-20.665c0.238-1.195,0.43-2.565-0.207-3.676c-5.125,2.989-10.627,8.904-14.615,13.937"/>
	<path fill-rule="evenodd" clip-rule="evenodd" fill="none" stroke="rgb(25, 25, 25)" stroke-width="2" d="M286.157,186.601
		c13.16-0.31,19.357,5.177,29.491,15.959c6.53,6.947,11.577,21.551,16.415,25.179"/>
	<path fill-rule="evenodd" clip-rule="evenodd" fill="none" stroke="rgb(25, 25, 25)" stroke-width="2" d="M332.063,227.739
		c5.045-11.83,12.902-5.851,18.284-0.467c10.811,10.813,18.126,17.363,32.951,24.715c12.832,6.363,23.913,15.552,36.492,27.685
		c22.529,21.73,47.521,29.177,70.932,45.62c4.896,3.44,9.687,7.8,13.974,11.354c11.253,9.324,18.134,22.17,26.8,32.926
		c20.538,25.492,9.47,59.53,4.216,89.469c-0.27,2.353,0.191,4.713,0.345,7.062c-11.139,27.552-23.313,54.665-48.083,70.484
		c-6.371,4.068-12.345,7.238-19.603,11.334c-4.964,2.8-11.274,5.73-16.768,6.945c-9.426,2.084-22.298-0.776-28.716,5.274
		c-16.721,15.762-33.048,3.946-49.73,1.401c-12.848-1.96-23.575,1.438-34.998-1.557c-2.379-0.623-4.953-1.517-7.387-2.379
		c-13.476-4.776-27.682-21.426-33.133-35.358c-12.87-32.892-22.011-74.079-17.113-112.231c0.756-5.892,1.02-13.825,1.506-19.615
		c1.455-17.343,4.979-37.638,6.727-54.652c1.978-19.231-0.565-39.107-3.475-58.993c0.785-6.68,2.16-13.762,1.188-21.323
		c-2.222-17.268,10.46-27.097,28.038-24.433c0.265-0.128,0.457-0.247,0.645-0.366"/>
	<path fill-rule="evenodd" clip-rule="evenodd" fill="none" stroke="rgb(25, 25, 25)" stroke-width="2" d="M332.063,227.739
		c5.698,14.956,13.8,29.716,18.603,44.871"/>
	<path fill-rule="evenodd" clip-rule="evenodd" fill="none" stroke="rgb(25, 25, 25)" stroke-width="2" d="M350.666,272.609
		c16.927,9.569,36.932,12.017,55.078,18.642"/>
	<path fill-rule="evenodd" clip-rule="evenodd" fill="none" stroke="rgb(25, 25, 25)" stroke-width="2" d="M350.666,272.609
		c-0.806,5.447,3.471,8.848,5.152,13.623c4.687,13.304,6.028,31.29,15.103,47.643"/>
	<path fill-rule="evenodd" clip-rule="evenodd" fill="none" stroke="rgb(25, 25, 25)" stroke-width="2" d="M370.921,333.875
		c32.229,8.829,71.254,14.753,106.561,21.983c7.911,1.62,14.545,2.876,21.396,5.238c8.815,3.038,16.203,10.127,23.866,16.269"/>
	<path fill-rule="evenodd" clip-rule="evenodd" fill="none" stroke="rgb(25, 25, 25)" stroke-width="2" d="M370.921,333.875
		c2.742,12.854,12.148,24.393,12.52,37.454"/>
	<path fill-rule="evenodd" clip-rule="evenodd" fill="none" stroke="rgb(25, 25, 25)" stroke-width="2" d="M383.44,371.329
		c7.508,16.83,13.68,34.49,22.874,50.247"/>
	<path fill-rule="evenodd" clip-rule="evenodd" fill="none" stroke="rgb(25, 25, 25)" stroke-width="2" d="M406.314,421.576
		c18.113-5.604,35.64-4.424,53.706,0.203c15.315,3.924,32.051,2.412,47.396,10.105c1.632,0.455,3.307-0.139,4.908,0.528"/>
	<path fill-rule="evenodd" clip-rule="evenodd" fill="none" stroke="rgb(25, 25, 25)" stroke-width="2" d="M406.314,421.576
		c3.532,10.408,10.407,19.699,12.668,30.396"/>
	<path fill-rule="evenodd" clip-rule="evenodd" fill="none" stroke="rgb(25, 25, 25)" stroke-width="2" d="M418.982,451.973
		c9.88,15.564,16.22,34.634,29.358,48.536"/>
	<path fill-rule="evenodd" clip-rule="evenodd" fill="none" stroke="rgb(25, 25, 25)" stroke-width="2" d="M418.982,451.973
		c-0.11,0.114-0.221,0.229-0.331,0.344c-6.973,18.468-11.827,32.829-9.728,50.77c0.837,7.153,13.457,27.207,17.076,34.979"/>
	<path fill-rule="evenodd" clip-rule="evenodd" fill="none" stroke="rgb(25, 25, 25)" stroke-width="2" d="M338.869,276.695
		c-2.085,6.602-2.998,17.101-5.463,25.035c-5.779,18.604-26.138,38.254-33.979,59.259c-0.58,1.554-1.197,3.423-2.171,5.134"/>
	<path fill-rule="evenodd" clip-rule="evenodd" fill="none" stroke="rgb(25, 25, 25)" stroke-width="2" d="M504.627,171.122
		c-32.416-0.353-64.919-2.293-97.137-4.257"/>
	<path fill-rule="evenodd" clip-rule="evenodd" fill="none" stroke="rgb(25, 25, 25)" stroke-width="2" d="M407.49,166.865
		c11.515,26.665,41.562,37.604,65.922,49.478"/>
	<path fill-rule="evenodd" clip-rule="evenodd" fill="none" stroke="rgb(25, 25, 25)" stroke-width="2" d="M407.49,166.865
		c-14.428-1.886-29.564-1.708-44.163-3.029"/>
	<path fill-rule="evenodd" clip-rule="evenodd" fill="none" stroke="rgb(25, 25, 25)" stroke-width="2" d="M296.283,158.743
		c-1.272,1.212-3.199,1.383-4.817,1.252c-11.109-23.035-25.87-45.341-29.056-71.242"/>
	<path fill-rule="evenodd" clip-rule="evenodd" fill="none" stroke="rgb(25, 25, 25)" stroke-width="2" d="M283.067,163.446
		c2.988,1.299,3.893,5.174,4.146,8.076"/>
	<path fill-rule="evenodd" clip-rule="evenodd" fill="none" stroke="rgb(25, 25, 25)" stroke-width="2" d="M272.64,164.235
		c-1.448,6.286-7.986,9.324-13.117,11.751"/>
	<path fill-rule="evenodd" clip-rule="evenodd" fill="none" stroke="rgb(25, 25, 25)" stroke-width="2" d="M259.522,175.986
		c-3.242,5.622-8.938,9.479-12.964,14.339"/>
	<path fill-rule="evenodd" clip-rule="evenodd" fill="none" stroke="rgb(25, 25, 25)" stroke-width="2" d="M246.558,190.325
		c-3.396,6.354-13.921,14.045-20.891,19.458c-18.795,14.598-37.131,35.147-56.849,44.853c-0.126,0.063-0.246,0.139-0.372,0.202"/>
	<path fill-rule="evenodd" clip-rule="evenodd" fill="none" stroke="rgb(25, 25, 25)" stroke-width="2" d="M168.446,254.839
		c-24.567,25.489-55.34,45.974-80.307,71.186"/>
	<path fill-rule="evenodd" clip-rule="evenodd" fill="none" stroke="rgb(25, 25, 25)" stroke-width="2" d="M88.14,326.024
		c-2.553,7.077-11.585,13.567-6.581,21.623"/>
	<path fill-rule="evenodd" clip-rule="evenodd" fill="none" stroke="rgb(25, 25, 25)" stroke-width="2" d="M81.559,347.647
		c1.492-0.596,2.685-1.793,4.233-2.261"/>
	<path fill-rule="evenodd" clip-rule="evenodd" fill="none" stroke="rgb(25, 25, 25)" stroke-width="2" d="M85.792,345.387
		c8.316-24.662,26.285-32.91,47.008-44.415c18.846-10.463,38.317-25.519,53.648-38.85"/>
	<path fill-rule="evenodd" clip-rule="evenodd" fill="none" stroke="rgb(25, 25, 25)" stroke-width="2" d="M263.64,192.259
		c1.118-4.597,6.946-5.442,9.167-9.386"/>
	<path fill-rule="evenodd" clip-rule="evenodd" fill="none" stroke="rgb(25, 25, 25)" stroke-width="2" d="M315.155,230.633
		c10.078,14.08,16.521,30.361,23.714,46.062"/>
	<path fill-rule="evenodd" clip-rule="evenodd" fill="none" stroke="rgb(25, 25, 25)" stroke-width="2" d="M338.869,276.695
		c15.539,26.159,23.997,52.673,36.116,80.759c2.358,5.468,5.317,12.553,8.455,13.875"/>
	<path fill-rule="evenodd" clip-rule="evenodd" fill="none" stroke="rgb(25, 25, 25)" stroke-width="2" d="M286.157,186.601
		c-1.166,0.55-2.382,0.895-3.604,1.286c-2.017-2.227-0.575-6.065-3.646-7.84c-0.737-0.366-1.598-0.174-2.389-0.229"/>
	<path fill-rule="evenodd" clip-rule="evenodd" fill="none" stroke="rgb(25, 25, 25)" stroke-width="2" d="M313.846,136.029
		c-11.151,0.891-27.155,10.042-17.563,22.714"/>
	<path fill-rule="evenodd" clip-rule="evenodd" fill="none" stroke="rgb(25, 25, 25)" stroke-width="2" d="M296.283,158.743
		c20.015,13.671,44.705,2.612,67.044,5.093"/>
	<path fill-rule="evenodd" clip-rule="evenodd" fill="none" stroke="rgb(25, 25, 25)" stroke-width="2" d="M363.327,163.836
		c7.376-14.291,20.96-24.47,32.463-35.447"/>
	<path fill-rule="evenodd" clip-rule="evenodd" fill="none" stroke="rgb(25, 25, 25)" stroke-width="2" d="M272.64,164.235
		c3.521,0.435,6.941-0.31,10.428-0.789"/>
	<path fill-rule="evenodd" clip-rule="evenodd" fill="none" stroke="rgb(25, 25, 25)" stroke-width="2" d="M283.067,163.446
		c0.489-0.874,1.121-1.663,1.551-2.568c-7.832-16.959-15.781-34.723-23.043-51.954"/>
	<path fill-rule="evenodd" clip-rule="evenodd" fill="none" stroke="rgb(25, 25, 25)" stroke-width="2" d="M261.575,108.924
		c-0.098,0.047-0.197,0.093-0.295,0.139c-10.914-8.124-26.944-5.725-37.348-15.727"/>
	<path fill-rule="evenodd" clip-rule="evenodd" fill="none" stroke="rgb(25, 25, 25)" stroke-width="2" d="M261.575,108.924
		c-1.185-9.184-6.857-17.505-4.757-27.17c0.404-0.365,0.917-0.699,1.365-1.039"/>
	<path fill-rule="evenodd" clip-rule="evenodd" fill="none" stroke="rgb(25, 25, 25)" stroke-width="2" d="M258.183,80.716
		c-2.288-13.359-3.017-27.151-3.274-40.601"/>
	<path fill-rule="evenodd" clip-rule="evenodd" fill="none" stroke="rgb(25, 25, 25)" stroke-width="2" d="M258.183,80.716
		c2.428,2.099,2.202,5.708,4.227,8.037"/>
	<path fill-rule="evenodd" clip-rule="evenodd" fill="none" stroke="rgb(25, 25, 25)" stroke-width="2" d="M262.41,88.752
		c23.099-10.407,36.723-33.018,41.613-57.151"/>
	<path fill-rule="evenodd" clip-rule="evenodd" fill="none" stroke="rgb(25, 25, 25)" stroke-width="2" d="M280.666,201.427
		c-5.979-2.38-10.134-8.278-17.026-9.168"/>
	<path fill-rule="evenodd" clip-rule="evenodd" fill="none" stroke="rgb(25, 25, 25)" stroke-width="2" d="M263.64,192.259
		c-21.24,26.636-54.034,44.273-77.192,69.863"/>
	<path fill-rule="evenodd" clip-rule="evenodd" fill="none" stroke="rgb(25, 25, 25)" stroke-width="2" d="M186.448,262.122
		c1.345,3.586-1.113,8.213-1.912,12.104c-3.638,17.71-5.297,38.89-4.945,59.255c0.12,6.957,1.147,11.033,4.375,16.598"/>
	<path fill-rule="evenodd" clip-rule="evenodd" fill="none" stroke="rgb(25, 25, 25)" stroke-width="2" d="M183.966,350.079
		c9.48,14.091,19.24,29.618,23.793,46.275"/>
	<path fill-rule="evenodd" clip-rule="evenodd" fill="none" stroke="rgb(25, 25, 25)" stroke-width="2" d="M183.966,350.079
		c-8.001,31.526-2.842,67.809-23.513,95.671"/>
	<path fill-rule="evenodd" clip-rule="evenodd" fill="none" stroke="rgb(25, 25, 25)" stroke-width="2" d="M86.928,449.38
		c14.417,8.244,29.154,7.798,44.465,10.093c12.446,1.866,30.153,4.045,39.407-2.659c35.656-25.83,56.293-61.628,66.875-106.233
		c3.726-15.703,5.192-30.33,11.007-46.936c5.26-15.023,9.982-31.505,14.542-46.948c1.375-4.659,2.891-11.708,5.301-16.12
		c4.699-8.603,14.787-13.676,16.811-21.835c1.559-6.288-1.328-12.611-4.669-17.314"/>
	<path fill-rule="evenodd" clip-rule="evenodd" fill="none" stroke="rgb(25, 25, 25)" stroke-width="2" d="M222.284,169.765
		c-4.549,4.682-12.959,3.599-17.69,8.197"/>
	<path fill-rule="evenodd" clip-rule="evenodd" fill="none" stroke="rgb(25, 25, 25)" stroke-width="2" d="M204.594,177.962
		c12.438,5.43,26.341,8.713,39.619,11.896"/>
	<path fill-rule="evenodd" clip-rule="evenodd" fill="none" stroke="rgb(25, 25, 25)" stroke-width="2" d="M259.522,175.986
		c-12.541,0.157-25.544-1.033-37.239-6.221"/>
	<path fill-rule="evenodd" clip-rule="evenodd" fill="none" stroke="rgb(25, 25, 25)" stroke-width="2" d="M88.14,326.024
		c-0.095-0.049-0.19-0.098-0.285-0.146c-14.412,1.468-25.69-6.021-38.464-7.841c-13.639-1.944-27.058,3.427-41.581,4.974"/>
	<path fill-rule="evenodd" clip-rule="evenodd" fill="none" stroke="rgb(25, 25, 25)" stroke-width="2" d="M168.446,254.839
		c-8.485-1.293-16.445,3.122-25.037,1.619c-17.91,0.034-32.732-5.528-49.629-5.664c-11.682-0.094-22.2,4.803-35.688,8.146
		c-14.853,3.681-27.66,8.339-40.897,15.177"/>
	<path fill-rule="evenodd" clip-rule="evenodd" fill="none" stroke="rgb(25, 25, 25)" stroke-width="2" d="M246.558,190.325
		c-0.708-0.415-1.543-0.481-2.345-0.467"/>
	<path fill-rule="evenodd" clip-rule="evenodd" fill="none" stroke="rgb(25, 25, 25)" stroke-width="2" d="M244.213,189.858
		c-8.332,5.798-25.366,6.773-36.243,7.436c-30.645,1.866-64.231,6.703-93.323,12.449c-2.54,1.774-6.044,0.161-8.539,1.854
		c-23.438,1.53-57.618,13.513-81.484,39.429c-7.731,8.395-15.258,16.912-18.344,26.137c-1.677,5.01-1.717,11.688-2.258,16.473
		c-4.409,38.963-7.819,83.117,18.749,118.497c0.38,0.11,0.819,0.199,1.109,0.276"/>
	<path fill-rule="evenodd" clip-rule="evenodd" fill="none" stroke="rgb(25, 25, 25)" stroke-width="2" d="M23.879,412.408
		c13.335-6.395,20.524-19.952,31.735-28.713"/>
	<path fill-rule="evenodd" clip-rule="evenodd" fill="none" stroke="rgb(25, 25, 25)" stroke-width="2" d="M23.879,412.408
		c15.695,19.001,38.31,34.039,63.049,36.972"/>
	<path fill-rule="evenodd" clip-rule="evenodd" fill="none" stroke="rgb(25, 25, 25)" stroke-width="2" d="M86.928,449.38
		c17.615-33.51,3.95-70.293-1.136-103.993"/>
	<path fill-rule="evenodd" clip-rule="evenodd" fill="none" stroke="rgb(25, 25, 25)" stroke-width="2" d="M81.559,347.647
		c-2.72,9.688-6.569,19.45-14.594,26.442"/>
	<path fill-rule="evenodd" clip-rule="evenodd" fill="none" stroke="rgb(25, 25, 25)" stroke-width="2" d="M170.172,139.314
		c2.936,5.982,8.988,12.594,6.846,19.501"/>
	<path fill-rule="evenodd" clip-rule="evenodd" fill="none" stroke="rgb(25, 25, 25)" stroke-width="2" d="M222.284,169.765
		c-11.147-6.991-29.333-13.631-38.842-21.511c-4.532-3.756-8.155-10.487-13.269-8.939"/>
</g>
</svg>
