<?xml version="1.0" encoding="utf-8"?>
<!-- Generator: Adobe Illustrator 12.0.0, SVG Export Plug-In . SVG Version: 6.00 Build 51448)  -->
<!DOCTYPE svg PUBLIC "-//W3C//DTD SVG 1.1//EN" "http://www.w3.org/Graphics/SVG/1.1/DTD/svg11.dtd" [
	<!ENTITY ns_svg "http://www.w3.org/2000/svg">
	<!ENTITY ns_xlink "http://www.w3.org/1999/xlink">
]>
<svg  version="1.1" id="Layer_1" xmlns="&ns_svg;" xmlns:xlink="&ns_xlink;" width="380.226" height="543.607"
	 viewBox="0 0 380.226 543.607" overflow="visible" enable-background="new 0 0 380.226 543.607" xml:space="preserve">
<path fill-rule="evenodd" clip-rule="evenodd" fill="#FFFFFF" d="M0,217.16c0.052,0.007,0.106-0.007,0.157,0
	c1.014,0.16,1.917-0.642,3.763-0.784c1.651-1.747,4.147-2.647,5.175-5.017c1.175-0.288,1.458-1.468,2.508-1.882
	c0.371-0.361,0.501-0.962,0.784-1.411c0.542-0.399,1.161-0.721,1.725-1.097c0.368-1.41,1.419-2.136,2.509-2.822
	c-0.21-1.557,1.712-2.108,2.352-3.293c0.426-0.789,0.593-2.089,0.941-2.979c1.038-2.651,2.842-4.957,4.077-7.526
	c1.811-3.769,1.799-8.1,3.45-12.073c1.45-3.493,3.797-6.647,5.331-10.191c3.123-7.212,6.589-14.079,9.408-21.48
	c1.414-3.715,3.362-7.088,4.86-10.662c1.608-3.835,2.747-7.488,4.704-10.819c1.756-2.99,4.343-5.618,6.742-8.623
	c2.376-2.978,4.325-6.107,6.428-9.095c4.204-5.972,9.911-10.749,15.837-15.208c2.856-2.151,5.473-4.691,8.31-7.056
	c2.722-2.268,5.791-4.38,8.467-7.056c2.55-2.55,5.24-5.044,8.153-7.368c2.972-2.374,6.049-3.999,10.035-5.488
	c3.635-1.359,6.43-4.306,9.878-5.488c1.994-0.684,4.57-0.964,6.899-1.725c2.213-0.723,4.46-1.676,6.585-1.881
	c4.137-0.4,8.122-0.495,11.917-1.254c0.771-0.155,1.809-0.078,2.665-0.313c0.444-0.124,0.262-0.439,0.627-0.471
	c0.922-0.081,1.164,0.113,2.038,0.314c0.95-0.772,2.09,0.52,2.352-0.941c0.426-0.112-0.112,0.739,0.313,0.627
	c0.78,0.154,0.414-0.841,1.098-0.784c0.865-0.134,1.623,0.038,2.508-0.156c0.692-0.153,1.179-0.647,1.725-0.785
	c2.013-0.508,4.398-0.321,6.585-0.626c5.548-0.776,12.267-3.137,18.346-3.137c3.643,0,7.273,1.351,11.133,0.627
	c0.618-0.201,0.378,0.457,0.783,0.47c0.07-0.182,0.211-0.914,0.471-0.157c3.977-0.853,10.161-1.692,14.582-2.195
	c0.676-0.076,1.92-0.911,3.136-0.471c0.218-0.321-0.048-0.434,0.471-0.626c2.375-0.334,5.137-1.807,7.369-1.254
	c1.48-0.981,3.8-1.031,6.9-1.568c2.737-0.475,5.131-1.398,8.152-0.941c1.774,0.269,4.435,1.934,4.547,3.607
	c0.121,1.792-2.39,3.79-3.45,4.86c-1.584,1.601-3.045,2.527-4.076,4.234c-0.363,0.569-0.117-0.095-0.783,0
	c-0.372,2.711-2.217,3.95-2.979,6.271c-0.671-0.671-0.594,0.303-1.255,0c-0.315,0.787,0.712,0.229,0.784,0.627
	c-1.627,3.81-4.541,6.33-7.369,8.938c-0.442,0.493-0.431-0.407-0.785,0c-1.325,1.904-3.276,3.845-4.704,5.958
	c-0.357,0.53-0.727,1.725-1.411,1.411c-1.153,2.574-2.356,5.125-2.822,8.311c-0.813,5.54-3.357,10.049-5.959,14.111
	c-1.12,1.749-2.573,3.641-3.292,5.487c-0.275,0.707-0.09,1.044-0.314,1.726c-4.236,12.88-11.569,21.807-20.54,29.791
	c-1.568,1.396-2.89,2.519-4.704,3.605c-1.631,0.978-3.387,1.966-5.174,3.137c-6.353,4.16-10.284,10.637-14.269,16.463
	c-4.12,6.025-10.197,9.883-16.307,14.268c-2.862,2.054-6.08,4.032-8.78,6.585c-2.68,2.534-5.334,5.076-8.624,6.585
	c-3.472,1.593-7.361,2.732-11.133,4.234c-3.462,1.378-6.598,3.694-10.192,5.018c-4.131,1.521-8.875,2.242-14.738,2.508
	c-5.254,0.238-10.195,1.643-15.993,1.254c-2.499-0.168-5.178-0.236-7.683-0.314c-1.376-0.043-2.488-0.49-3.763-0.627
	c-2.625-0.283-4.759,0.99-7.84,0.941c-2.087-0.033-4.038-1.081-6.271-1.098c-0.751-0.005-1.582,0.179-2.352,0.156
	c-4.395-0.124-8.421-2.446-13.014-2.508c-0.691-0.009-1.356,0.332-2.039,0.313c-1.612-0.043-3.631-1.297-4.39,0
	c0.046-0.097,0.39-0.604,0-0.626c-1.347,0.049-1.938,0.495-2.823-0.157c-0.279,0.382-1.323,0.5-2.508,0.94
	c0.351,0.584-0.536,0.455-0.784,0.941c-0.439,0.859-0.201,2.636-1.881,2.508c-0.355,1.108-0.912,2.016-1.881,2.509
	c-0.489,1.498-1.142,2.831-2.666,3.292c-0.359,1.471-1.444,2.214-2.666,2.822c-1.37,1.64-1.558,3.894-2.822,5.488
	c-0.497,0.626-1.415,0.906-2.038,1.411c-1.155,0.935-2.058,2.023-3.137,2.823c-1.1,0.317-2.298,0.81-2.352,1.725
	c1.005,1.055,1.647,0.746,2.352,2.195c5.957,1.465,10.042,4.801,14.269,7.996c1.817-0.13,4.824,1.329,6.429,0.784
	c0.475-0.005,0.391,0.551,0.47,0.941c0.626-0.925,1.519,0.157,2.039-0.941c0.451,0.816,0.885,0.505,1.568,0.157
	c0.697,0.684,1.551,0.239,2.821,0.313c1.003,0.67,2.2,1.144,3.45,1.567c0.34,0.393,0.667,0.797,0.941,1.255
	c0.684-0.707,0.733,0.515,1.097,0.157c-0.023,0.748,1.25-0.456,0.785,0.785c1.312-0.348,3.14,0.082,3.763,0.939
	c3.307-1.502,7.409,0.002,11.132,0.628c2.389,0.4,4.858,0.361,6.742,1.253c1.91,0.906,3.359,2.233,5.018,2.979
	c2.047,0.921,4.1,0.954,6.271,1.726c1.199,0.425,2.426,1.309,3.606,1.881c2.318,1.123,5.324,2.086,7.526,3.45
	c1.083,0.669,1.731,1.808,2.822,2.507c0.592,0.381,1.545,0.357,1.881,1.098c-0.593,0.229-0.301-0.43-0.784-0.312
	c-0.18,0.688,0.541,1.167,0.941,1.724c0.981,1.364,2.129,2.924,3.763,3.764c2.909,1.495,7.009,1.562,10.506,2.038
	c7.174,0.978,15.784,1.044,22.108-1.098c3.088-1.046,5.581-2.911,8.31-4.078c3.478-1.487,8.245-2.253,10.975-3.448
	c2.605-1.263,4.66-3.076,7.369-4.233c4.425-4.056,8.66-6.131,12.857-8.468c9.357-5.209,11.638-15.584,15.052-27.439
	c1.575-5.468,2.71-11.19,6.115-15.052c7.951-9.018,21.482-10.503,33.083-15.679c5.397-2.408,10.368-5.809,15.368-8.938
	c4.969-3.112,10.051-6.183,15.521-8.78c2.959-1.405,5.709-2.537,8.153-4.077c2.437-1.535,4.23-3.56,6.271-5.802
	c7.488-8.224,14.61-17.537,21.794-26.812c1.72-2.219,3.387-4.688,4.861-7.37c1.431-2.6,3.163-5.481,3.92-8.153
	c0.53-1.879,0.22-4.874,0.471-7.056c0.596-5.201,2.359-10.717,3.45-16.307c0.515-2.65,1.025-5.469,1.566-8.31
	c0.548-2.877,0.219-6.121,0.94-8.938c0.292-1.134,1.257-2.021,1.883-3.136c0.232-0.417,0.265-0.946,0.47-1.411
	c0.302-0.686,1.019-1.159,1.255-1.726c1.055-2.531,0.776-5.726,1.724-8.309c0.707-1.923,2.531-3.351,3.138-4.861
	c0.621-1.554,0.645-3.079,1.409-4.391c0.451-0.769,1.177-1.559,1.727-2.351c0.495-0.716,1.367-1.426,1.724-2.196
	c0.464-1.002,0.345-2.199,0.94-3.292c1.171-2.151,4.305-4.797,6.273-6.585c0.696-0.634,1.326-1.714,2.351-1.568
	c0.978-2.542,3.386-2.852,4.232-5.645c0.814,0.824,0.844-0.582,1.726-0.157c0.079-1.405,1.18-0.816,1.098-2.352
	c0.881-0.321,1.747-0.658,2.665-0.94c0.099-0.82,0.212,0.331,0.628,0.157c1-0.464,1.97-0.957,2.353-2.039
	c0.909,0.146,1.174-1.007,1.724-0.313c0.404-0.896,1.588-1.343,2.666-1.881c1.944-0.97,3.268-2.167,5.958-1.725
	c0.804,0.11-0.265-0.67,0.313-0.783c3.373,0.102,6.529-1.507,9.878-2.822c3.4-1.337,6.986-1.48,10.035-2.509
	c1.163-0.393,3.248-1.685,4.233-2.509c2.883-2.409,3.96-6.016,7.212-7.526c-3.218,6.756-8.303,9.569-10.818,15.836
	c-2.914,7.258-1.695,15.04-3.448,23.206c-0.767,3.563-2.61,6.009-5.333,7.996c-2.553,1.867-5.163,3.683-7.525,5.802
	c-2.455,2.202-4.941,3.935-7.526,5.802c-2.524,1.82-4.825,4.112-6.899,6.271c-8.563,8.915-16.198,19.069-24.302,29.007
	c-1.997,2.448-4.177,4.764-5.959,7.369c-1.813,2.649-3.18,5.588-5.018,8.31c-3.583,5.308-7.608,10.336-10.819,15.679
	c-1.285,2.143-2.365,4.593-3.604,6.899c-2.412,4.487-4.623,9.411-6.116,14.738c-1.997,7.127-4.898,12.512-8.78,18.189
	c-1.088,1.589-2.396,3.234-3.448,4.86c-1.007,1.552-1.828,3.421-2.98,4.233c-1.78,3.866-3.518,7.224-5.487,10.505
	c-1.006,1.678-2.315,3.14-3.136,4.862c-0.849,1.778-1.123,3.849-2.038,5.957c-0.805,1.85-2.129,3.792-3.136,5.645
	c-3.021,5.565-5.165,12.534-8.938,17.404c-2.511,3.243-5.691,5.859-9.25,8.311c-3.364,2.315-6.86,5.203-10.663,6.742
	c-3.686,1.492-7.759,1.933-11.446,3.607c-5.456,2.476-10.379,6.042-16.464,7.838c-3.052,0.901-6.549,1.456-10.034,2.195
	c-3.381,0.719-6.897,1.569-10.505,1.569c-3.36,0-6.068-1.135-9.564-1.098c-2.855,0.031-5.199,1.425-7.526,2.665
	c-6.763,3.604-13.533,6.481-19.756,10.506c-1.182,1.161-1.237,3.083,0,4.39c1.617,1.707,5.747,2.816,8.938,4.076
	c3.262,1.289,6.224,2.55,9.25,3.607c6.715,2.342,12.472,4.88,18.659,7.212c6.515,2.456,12.687,4.651,18.659,7.213
	c7.718,3.311,15.891,8.713,27.752,6.586c2.21-0.397,4.579-1.488,6.585-2.353c2.134-0.92,4.291-1.888,5.802-2.979
	c3.564-2.577,5.393-6.261,7.369-10.192c2.965-5.897,5.56-11.792,8.938-17.404c1.021-1.695,1.842-3.864,3.762-5.018
	c2.182,7.526-1.144,13.162-3.919,17.718c-3.855,6.326-8.557,12.158-14.269,16.464c-2.393,1.804-4.74,2.716-7.84,3.764
	c-0.968,0.327-2.202,0.457-2.821,0.94c-0.744,0.578-1.847,2.869-1.726,4.391c0.169,2.103,2.568,4.129,4.547,4.859
	c2.362,0.872,5.532,0.599,8.467,0.471c5.984-0.263,11.676,0.878,16.935,1.255c4.848,0.347,9.673-0.21,14.269,0
	c6.865,0.311,12.542,0.13,19.441-0.471c4.648-0.405,11.922-0.767,16.149,1.411c3.19,1.643,5.755,4.866,8.469,7.526
	c2.399,2.354,5.571,3.967,7.368,6.585c1.754,2.554,3.542,7.377,2.667,10.976c-0.805,3.298-3.074,5.956-4.861,8.623
	c-3.667,5.477-6.055,11.512-8.154,18.816c-1.013,3.521-1.362,7.558-2.665,10.818c-1.563,3.914-5.354,6.813-7.525,10.661
	c-2.255,3.996-3.885,8.504-6.429,11.604c-1.352,1.646-2.958,3.258-4.078,5.017c-2.35,3.692-4.494,7.349-7.995,10.035
	c-2.155,1.653-5.261,3.313-6.43,5.959c-1.081,2.445-1.018,6.3-1.41,9.25c-0.843,6.341-2.586,11.654-2.821,18.501
	c-0.113,3.247,0.557,6.545,0.313,10.192c-0.364,5.428-2.602,11.37-4.861,15.366c-1.154,2.041-2.709,3.948-4.076,5.957
	c-1.371,2.018-2.359,4.476-3.763,6.272c-0.502,0.643-2.13,2.344-3.293,2.351c-1.056,0.009-2.447-1.449-2.823-2.193
	c-0.979-1.947-1.456-5.491-2.038-8.468c-1.126-5.765-0.486-13.411-0.94-19.912c-0.281-4.028-1.77-8.566-0.471-12.074
	c1.155-3.117,3.976-5.08,6.429-7.369c1.867-1.741,5.172-4.795,5.645-7.997c0.488-3.293-1.223-5.474-2.038-7.682
	c-1.127-3.053-1.561-5.371-2.979-7.683c-3.248-5.293-7.453-10.417-10.662-15.994c-0.628-1.091-1.368-2.171-1.726-3.449
	c-0.938-0.159-0.872-1.321-1.566-1.725c-0.106-0.578-0.357-1.105-0.157-1.568c-0.123-0.589-0.972,0.413-0.783-0.313
	c-1.401-4.193-1.883-9.303-3.607-13.171c-0.715-0.384-1.084-1.111-2.352-0.94c-0.183-1.178-0.954-1.765-1.725-2.352
	c-0.3,0.745-0.334,1.756-0.313,2.821c-2.433,3.798-1.009,11.249-2.353,16.935c-0.652,2.755-1.938,5.105-2.509,7.683
	c-0.666,3.003-0.511,6.046-0.627,9.407c-0.104,2.977-0.616,5.968-1.255,8.938c-0.942,4.385-1.068,8.593-3.606,11.133
	c-0.391,0.468-0.769,0.131-1.254,0.313c0.043,0.308,0.674,0.39,0,0.784c0.042,0.61-0.487,0.5-0.626,0.155
	c-0.802,2.338-3.247,4.692-3.92,6.116c-0.094-0.278,0.459-0.65,0-0.784c-0.661,0.02-0.156,1.202-0.313,1.725
	c-2.909,6.541-6.259,13.909-9.565,20.696c-1.082,2.223-2.556,4.486-3.292,6.742c-0.56,1.712-0.693,3.581-1.256,5.331
	c-0.918,2.857-2.469,5.692-3.136,9.095c-0.596,3.043-0.462,6.662-1.411,9.878c-1.552,5.258-3.281,10.991-5.018,16.307
	c-1.836,5.619-4.493,10.414-6.429,16.149c-0.509,1.507-1.273,3.016-1.568,4.233c-0.599,2.479-0.25,4.841-1.724,6.428
	c-1.206,1.301-3.135,1.9-5.488,1.726c-6.453-0.478-10.826-3.333-15.523-6.114c-4.641-2.75-8.496-6.375-12.7-8.78
	c-1.45-1.975-3.311-4.182-4.704-6.585c-1.422-2.455-1.989-6.303-2.979-9.409c-0.985-3.093-2.621-5.854-3.762-8.623
	c-1.2-2.907-2.261-5.918-3.45-8.938c-1.191-3.026-3.349-6.084-3.763-8.467c-0.406-2.333,0.3-5.254,0.156-7.84
	c-0.117-2.116-0.71-4.151-0.784-5.957c-0.064-1.565,0.486-3.264,0-4.861c-0.324-1.063-2.076-2.647-3.136-2.667
	c-2.159-0.034-4.732,3.223-6.115,4.705c-1.902,2.039-3.561,3.874-5.174,5.487c-1.776,1.777-4.02,3.346-5.645,5.174
	c-0.803,0.905-1.577,2.035-2.508,2.823c-0.871,0.736-2.076,1.62-3.292,1.412c-1.797,2.109-4.255,3.47-6.429,5.017
	c-4.305,3.063-7.714,7.276-11.917,10.661c-1.015,0.817-2.141,1.632-3.135,2.51c-1.003,0.884-1.621,2.139-2.823,2.821
	c-1.707,5.188-2.811,12.525-2.509,20.07c0.087,2.178,1.031,4.704-0.313,6.271c-1.169-0.905-1.631-2.518-2.509-3.763
	c-2.007-2.847-4.667-5.25-7.056-7.683c-0.207-0.799-0.207-0.301,0-1.098c-0.979-0.144-1.955,0.183-3.449,0.157
	c-0.094-0.002-0.195,0.128-0.313,0.157c-2.539,0.616-5.617,4.307-8.153,6.114c-4.484,3.195-8.483,5.595-12.857,8.623
	c-2.684,1.857-5.33,3.928-8.311,5.802c-1.513,0.951-2.605,2.211-3.919,3.136c-3.395,2.39-7.106,4.651-9.408,7.84
	c-0.422,0.152-0.804,0.345-1.254,0.47c-0.325,0.931-1.301,1.208-1.725,2.038c-0.605,0.397,0.201-0.329-0.627-0.155
	c-0.649,1.493-2.585,1.7-3.45,2.979c-4.704,0-9.408,0-14.111,0c0-41.812,0-83.625,0-125.437c3.269-0.206,5.414-2.086,7.997-3.606
	c1.815-1.067,3.83-2.146,6.115-2.979c5.049-1.839,9.561-2.357,13.014-5.174c1.107-0.903,2.883-2.639,3.136-3.763
	c0.225-1-0.071-1.808,0-2.509c0.204-1.997,0.892-3.474,1.568-4.547c0.704-1.118,2.191-1.663,2.979-3.136
	c0.842-1.572,0.499-3.887,1.725-5.802c0.88-0.48,1.398-1.32,2.195-1.882c2.289-4.567,5.714-9.639,6.742-16.15
	c0.762-4.824,1.475-9.845,2.979-14.111c0.688-1.948,1.893-3.186,1.725-5.958c0.066-0.754,0.057,0.187,0.47,0
	c-0.061-0.53-0.392-0.428-0.47-0.94c0.619-0.638,0.25-2.055,0.941-2.666c-0.274-0.809-1.206-0.341-1.726-1.098
	c-0.775,0.397-0.84,0.693-1.411,1.412c-3.265,0.133-4.692,2.101-7.055,3.136c-0.458,0.379-0.771-0.39-1.411-0.314
	c-0.396,0.285,0.147,1.507-0.627,1.412c-0.414,0.428-0.564-0.102-0.471-0.629c-0.839,0.103-0.776,1.106-1.098,1.726
	c-0.891-0.562-1.03,0.383-1.411,0.784c-2.788,0.884-4.091,3.287-6.428,4.39c-0.787,0.371-1.789,0.426-2.666,0.784
	c-0.8,0.327-1.473,0.927-2.352,1.254c-0.722,0.271-1.637,0.298-2.351,0.629c-3.988,1.847-4.438,7.638-6.899,11.444
	c-1.647,2.549-3.762,4.772-5.331,7.369c-1.659,2.745-2.879,5.566-4.391,8.312c-0.054,0.768-0.102-0.298-0.627,0
	c0.395,0.45-1.16,1.491-0.47,1.254c0.235,0.398-0.71,0.344-0.941,0c-0.248,0.434,0.408,0.703,0.47,0.314
	c-0.288,1.75-2.434,2.999-3.919,4.076c0-26.08,0-52.161,0-78.241c0.753,0.201,1.176-0.251,1.568-0.47
	c2.778-1.551,3.806-3.994,6.585-6.115c1.72-1.312,4.108-2.19,6.272-2.665c2.473-0.543,5.172-0.13,7.839-1.098
	c3.349-1.217,7.771-5.229,7.683-10.349c0.757,0.802,1.031-1.552,1.098-1.882c-0.745-0.819-0.738,1.035-1.254,0.47
	c-0.205-0.986,0.928-0.639,1.411-0.94c0.081-0.899-0.719-0.012-0.941-0.47c0.782-2.251,2.355-3.2,2.979-4.861
	c0.646-1.719,0.502-4.035,0.784-5.957c0.458-3.13,1.516-5.641,1.098-9.409c-0.24-2.159-1.22-4.417-2.196-6.114
	c-0.646-1.125-1.9-1.934-2.508-3.292c-0.877-1.965,0.069-4.423-0.313-6.428c-0.663-3.476-5.476-5.966-8.153-7.84
	c-4.14-2.898-7.597-7.657-14.425-6.899c-2.395,0.266-5.081,1.725-7.526,2.038C0,232.84,0,225,0,217.16z M50.174,344.165
	c0.136-0.237,0.234,0.043,0.627-0.157c-0.056-0.705-0.47-0.454-0.784-0.626C49.97,343.747,49.683,344.055,50.174,344.165z
	 M227.979,332.562c-0.297-4.361-0.217-9.109-1.098-12.544c-0.811-3.163-3.235-5.58-5.644-7.84
	c-4.053-3.802-8.632-6.999-13.015-10.192c-2.209-1.609-4.072-3.646-6.428-5.174c-4.559-2.956-9.768-4.423-16.15-7.212
	c-2.488-1.089-5.046-2.319-8.31-3.449c-4.61-1.598-11.5-4.32-12.857,1.409c-0.381,1.611,0.154,3.72,0.157,5.646
	c0.008,4.634-0.925,9.793,0.156,12.23c1.377,3.1,4.55,4.139,7.684,5.802c6.214,3.296,11.053,6.882,17.091,9.878
	c3.054,1.514,6.083,2.751,8.78,4.704c2.346,1.696,4.798,3.925,7.682,5.8c6.981,4.541,11.168,10.886,17.092,16.621
	c0.92,0.893,2.459,3.038,4.076,2.821c2.059-0.273,2.133-3.163,1.882-5.643C228.678,341.492,228.29,337.101,227.979,332.562z
	 M146.29,300.105c0.165,0.63,0.637-0.021,1.254,0.157c3.776,4.33,10.502,2.417,10.505-3.607c0.003-6.288-2.012-10.166-5.174-14.425
	c-4.386-5.905-12.248-8.407-19.914-10.819c-5.774-1.816-14.111-4.162-17.717,0c-0.443,3.769,2.668,5.146,5.017,7.213
	c3.679,3.234,6.564,5.744,9.878,8.936c1.613,1.556,2.932,3.592,4.547,5.019c3.321,2.937,7.226,5.591,11.132,7.369
	c0.036-0.278-0.158-0.785,0.313-0.626C146.353,299.77,145.646,300.176,146.29,300.105z M109.286,313.589
	c-1.584,5.813-4.914,12.521-5.331,18.345c-0.349,4.882,1.333,8.926,2.509,12.856c1.388,4.642,1.904,9.028,5.958,9.409
	c1.847,0.172,4.879-1.241,6.271-1.883c1.931-0.888,3.578-1.812,5.488-2.979c2.901-1.772,7.62-4.245,8.467-8.467
	c0.427-2.127-0.614-4.617-0.626-7.057c-0.016-2.954,0.738-6.16,0.94-9.406c0.209-3.359,0.642-6.75,0.784-9.722
	c0.234-4.877-0.793-9.54-2.195-13.327c-1.224-3.309-4.558-6.854-7.212-9.407c-1.138-1.096-2.442-2.59-4.234-4.078
	c-1.478-1.229-3.752-3.238-5.017-3.136c-4.17,0.336-2.225,6.078-2.039,9.095c0.213,3.439-0.505,6.181,0,8.938
	C110.854,305.758,110.448,309.329,109.286,313.589z M78.711,494.216c-0.044,0.357,0.037,0.589,0.313,0.627
	c0.05-0.212,0.223-0.299,0.157-0.627C79.024,494.216,78.868,494.216,78.711,494.216z M0.471,389.007
	c0.088,0.417-0.645,0.799-0.157,1.098c0.143-0.174,0.292-0.05,0.784-0.157C1.041,389.484,0.826,389.174,0.471,389.007z"/>
</svg>
